<svg viewBox="0 0 131 30" fill="none" xmlns="http://www.w3.org/2000/svg">
<g clip-path="url(#clip0_514_47)">
<path d="M16.274 7.20574L18.3386 17.0431H12.1448L16.274 7.20574ZM13.3593 0.526123L0 28.9448H7.16541L9.47292 23.3583H19.6745L20.7676 28.9448H27.5686L21.0104 0.526123H13.3593Z" fill="white"/>
<path d="M46.7573 18.0145H29.2689L30.2405 11.4564H47.8504L46.7573 18.0145ZM50.8865 7.08429H30.8477L31.8193 0.526123H51.8581L50.8865 7.08429ZM48.5791 22.2653H28.6616L27.6901 28.9448H47.6075L48.5791 22.2653Z" fill="white"/>
<path d="M70.5611 21.658C68.6179 22.5082 65.8247 22.751 64.3673 22.751C59.8737 22.751 56.959 19.7149 57.0805 15.0999C57.2019 10.3634 60.8453 6.84144 65.8247 6.84144C68.1322 6.84144 70.3183 7.69157 72.0185 9.14895L73.3544 2.34788C70.9255 0.769065 68.1322 -0.0810712 65.2175 0.0403763C57.0804 0.0403763 50.2793 6.84144 50.0365 15.4642C49.7936 23.7226 55.1372 29.5522 63.1528 29.5522C64.6102 29.5522 67.5249 29.4307 69.4681 28.4591L70.5611 21.658Z" fill="white"/>
<path d="M92.1788 15.7071C93.2719 10.9706 91.4502 7.20575 87.8068 6.35562C83.7989 5.50548 80.1555 8.54168 79.0624 13.6424C77.9695 18.3789 79.7912 22.1438 83.4346 22.994C87.4423 23.7227 91.0858 20.6864 92.1788 15.7071ZM87.4423 0.0403481C95.0936 0.526139 99.7085 6.71996 98.8585 14.9783C98.0083 23.4797 91.0858 29.795 83.3132 29.3092C75.662 28.8235 71.0469 22.6297 71.8971 14.3712C72.8686 5.74838 79.7912 -0.56689 87.4423 0.0403481Z" fill="white"/>
<path d="M123.512 0.526123L115.254 16.5572L111.975 0.526123H105.659L96.7938 28.9448H103.838L108.696 12.3065L111.61 28.9448H115.254L123.512 12.3065L123.391 28.9448H130.435L129.949 0.526123H123.512Z" fill="white"/>
</g>
<defs>
<clipPath id="clip0_514_47">
<rect width="130.435" height="30" fill="white"/>
</clipPath>
</defs>
</svg>
