<svg viewBox="0 0 329 30" fill="none" xmlns="http://www.w3.org/2000/svg">
<path d="M18.4716 23.9737H7.72926L5.37118 29.4759H0L11.3974 2.75098H15.1965L26.2009 29.4759H20.6987L18.4716 23.9737ZM16.8996 19.7815L13.2314 10.3492L9.43232 19.7815H16.8996Z" fill="white"/>
<path d="M33.2751 0V29.476H28.5589V0H33.2751Z" fill="white"/>
<path d="M42.5764 0V29.476H37.8603V0H42.5764Z" fill="white"/>
<path d="M46.6376 5.24024C46.6376 4.84722 46.7686 4.45421 46.8996 4.1922C47.0306 3.79918 47.2926 3.53718 47.5546 3.27517C48.0786 2.75115 48.8646 2.48914 49.5197 2.48914C50.3057 2.48914 50.9607 2.75115 51.4847 3.27517C51.7467 3.53718 52.0088 3.79918 52.1398 4.1922C52.2708 4.58521 52.4018 4.84722 52.4018 5.24024C52.4018 5.63325 52.2708 6.02626 52.1398 6.28827C52.0088 6.68128 51.7467 6.94329 51.4847 7.2053C51.2227 7.46731 50.9607 7.72932 50.5677 7.86032C50.1747 7.99133 49.9127 8.12233 49.5197 8.12233C49.1267 8.12233 48.7336 7.99133 48.4716 7.86032C48.0786 7.72932 47.8166 7.46731 47.5546 7.2053C47.2926 6.94329 47.0306 6.68128 46.8996 6.28827C46.6376 6.02626 46.6376 5.63325 46.6376 5.24024ZM51.8777 12.4455V29.476H47.1616V12.4455H51.8777Z" fill="white"/>
<path d="M72.9694 21.7466H60.262C60.262 22.9256 60.655 24.1047 61.441 25.1527C61.834 25.5457 62.3581 25.9388 62.8821 26.0698C63.4061 26.3318 63.9301 26.3318 64.5851 26.3318C65.3712 26.3318 66.1572 26.0698 66.9432 25.6767C67.5982 25.2837 68.2533 24.7597 68.6463 23.9737L73.1004 24.6287C71.6594 28.1658 68.9083 29.8689 64.7161 29.8689C61.9651 29.8689 59.738 29.0829 58.0349 27.3798C56.3319 25.8077 55.5458 23.5807 55.5458 20.8296C55.5458 18.0785 56.3319 15.8514 57.9039 14.2794C59.476 12.5763 61.703 11.7903 64.4541 11.7903C67.2052 11.7903 69.3013 12.5763 70.8734 14.2794C72.4454 15.9824 73.2314 18.2095 73.2314 21.0916V21.7466H72.9694ZM68.5153 18.7335C67.9913 16.5064 66.6812 15.3274 64.4541 15.3274C63.5371 15.3274 62.6201 15.5894 61.834 16.2444C61.048 16.8994 60.655 17.8165 60.524 18.7335H68.5153Z" fill="white"/>
<path d="M88.297 13.6245L85.9389 16.3756C85.1529 15.7206 84.1048 15.3276 83.0568 15.3276C82.5328 15.3276 82.1398 15.4586 81.7468 15.7206C81.6158 15.8516 81.4848 15.9826 81.3538 16.1136C81.2228 16.2446 81.2228 16.5066 81.2228 16.6376C81.2228 16.7686 81.2228 17.0306 81.3538 17.1616C81.4848 17.2926 81.6158 17.4236 81.7468 17.5546C82.0088 17.6856 82.2708 17.8166 82.5328 17.9476C82.9258 18.0786 83.3188 18.3406 83.8428 18.4716C84.7599 18.7337 85.5459 19.1267 86.3319 19.5197C86.8559 19.7817 87.38 20.1747 87.904 20.5677C88.297 20.9607 88.559 21.4848 88.821 22.0088C89.083 22.5328 89.083 23.0568 89.083 23.7118C89.083 24.4979 88.952 25.4149 88.559 26.2009C88.166 26.9869 87.642 27.642 86.9869 28.166C85.5459 29.345 83.7118 30.0001 81.8778 29.869C80.6987 29.869 79.5197 29.607 78.3407 29.214C77.1616 28.69 76.2446 28.035 75.4586 27.1179L77.9476 24.2359C79.2577 25.5459 80.5677 26.2009 81.8778 26.2009C82.1398 26.2009 82.4018 26.2009 82.7948 26.0699C83.0568 25.9389 83.3188 25.8079 83.4498 25.6769C83.7118 25.5459 83.8428 25.2839 83.9738 25.1529C84.1048 24.8909 84.1048 24.6289 84.1048 24.3668C84.1048 24.1048 84.1048 23.9738 83.9738 23.7118C83.8428 23.4498 83.7118 23.3188 83.5808 23.1878C82.9258 22.7948 82.2708 22.4018 81.4848 22.1398C79.3887 21.3537 78.0786 20.6987 77.4236 20.0437C76.7686 19.3887 76.5066 18.4717 76.5066 17.0306C76.5066 16.2446 76.6376 15.5896 76.8996 14.9345C77.1616 14.2795 77.6856 13.6245 78.2096 13.2315C79.3887 12.1834 80.9607 11.6594 82.5328 11.6594C84.7599 11.7904 86.7249 12.4455 88.297 13.6245Z" fill="white"/>
<path d="M116.332 12.4453H121.048V29.4759H116.332V27.2488C115.677 28.1658 114.891 28.8208 113.843 29.3449C112.926 29.8689 111.747 29.9999 110.699 29.9999C109.52 29.9999 108.472 29.8689 107.424 29.3449C106.376 28.9519 105.459 28.2968 104.672 27.3798C103.1 25.5457 102.183 23.3187 102.314 20.8296C102.314 18.4715 103.1 16.1134 104.672 14.4104C105.459 13.6243 106.376 12.9693 107.293 12.4453C108.341 12.0523 109.389 11.7903 110.568 11.7903C111.616 11.7903 112.664 12.0523 113.712 12.4453C114.629 12.9693 115.546 13.6243 116.201 14.4104L116.332 12.4453ZM116.856 20.9606C116.856 20.3056 116.725 19.6505 116.463 19.1265C116.201 18.6025 115.808 17.9475 115.415 17.5545C115.022 17.1615 114.498 16.7684 113.843 16.5064C113.319 16.2444 112.664 16.1134 112.009 16.1134C110.699 16.1134 109.52 16.6374 108.603 17.5545C107.686 18.4715 107.162 19.6505 107.162 20.9606C107.162 21.8776 107.424 22.7947 107.948 23.5807C108.472 24.3667 109.258 25.0217 110.044 25.2837C110.961 25.6768 111.878 25.6767 112.795 25.5457C113.712 25.4147 114.498 24.8907 115.284 24.2357C115.677 23.8427 116.07 23.3187 116.332 22.6637C116.725 22.2706 116.856 21.6156 116.856 20.9606Z" fill="white"/>
<path d="M125.633 12.4455H130.349V14.5415C131.004 13.7555 131.79 12.9695 132.707 12.5764C133.624 12.0524 134.672 11.9214 135.721 11.9214C137.424 11.7904 138.996 12.4454 140.306 13.6245C140.961 14.1485 141.354 14.9345 141.616 15.7206C141.878 16.7686 142.009 17.8166 142.009 18.7337V29.476H137.293V20.0437C137.293 19.3887 137.293 18.7337 137.162 18.2096C137.031 17.6856 136.9 17.2926 136.638 16.8996C136.376 16.5066 135.983 16.3756 135.59 16.1136C135.066 15.9826 134.541 15.8516 134.148 15.8516C131.79 15.8516 130.48 17.4236 130.48 20.5677V29.345H125.764V12.4455H125.633Z" fill="white"/>
<path d="M159.563 0H164.28V29.476H159.563V27.2489C158.908 28.166 158.122 28.821 157.074 29.345C156.157 29.869 154.978 30 153.93 30C152.751 30 151.703 29.869 150.655 29.345C149.607 28.952 148.69 28.2969 147.904 27.3799C146.332 25.5459 145.415 23.3188 145.546 20.8297C145.546 18.4716 146.332 16.1135 147.904 14.4105C148.69 13.6245 149.607 12.9694 150.524 12.4454C151.572 12.0524 152.62 11.7904 153.799 11.7904C154.847 11.7904 155.895 12.0524 156.943 12.4454C157.86 12.9694 158.777 13.6245 159.432 14.4105L159.563 0ZM160.087 20.9607C160.087 20.3057 159.956 19.6506 159.694 19.1266C159.432 18.6026 159.039 17.9476 158.646 17.5546C158.253 17.1616 157.729 16.7686 157.074 16.5065C156.55 16.2445 155.895 16.1135 155.24 16.1135C153.93 16.1135 152.751 16.6376 151.834 17.5546C150.917 18.4716 150.393 19.6507 150.393 20.9607C150.393 22.2707 150.917 23.4498 151.834 24.3668C152.751 25.2838 153.93 25.8079 155.24 25.8079C156.55 25.8079 157.729 25.2838 158.646 24.3668C159.563 23.4498 160.087 22.2707 160.087 20.9607Z" fill="white"/>
<path d="M178.952 29.4759L183.799 2.75098H187.336L194.542 19.9126L202.009 2.75098H205.546L209.869 29.4759H204.629L202.271 13.3623L195.066 29.7379H193.624L186.681 13.3623L184.061 29.4759H178.952Z" fill="white"/>
<path d="M212.751 20.8296C212.751 19.6505 212.882 18.4715 213.406 17.2924C213.93 16.2444 214.585 15.1964 215.502 14.4104C217.336 12.7073 219.694 11.9213 222.576 11.9213C225.459 11.9213 227.686 12.7073 229.52 14.4104C230.437 15.1964 231.092 16.2444 231.616 17.4235C232.14 18.6025 232.271 19.7815 232.271 20.9606C232.271 22.1396 232.14 23.4497 231.616 24.4977C231.092 25.6767 230.437 26.5938 229.52 27.5108C227.686 29.2138 225.328 29.9999 222.445 29.9999C219.563 29.9999 217.205 29.2138 215.502 27.5108C213.668 25.8077 212.751 23.5807 212.751 20.8296ZM217.598 20.8296C217.598 21.7466 217.86 22.6636 218.384 23.4496C218.908 24.2357 219.694 24.8907 220.48 25.2837C221.397 25.6767 222.314 25.8077 223.232 25.5457C224.149 25.4147 225.066 24.8907 225.721 24.2357C226.114 23.8427 226.507 23.3187 226.769 22.6636C227.031 22.1396 227.162 21.4846 227.162 20.8296C227.162 20.1745 227.031 19.5195 226.769 18.9955C226.507 18.4715 226.114 17.9475 225.721 17.4235C225.328 17.0304 224.804 16.6374 224.149 16.3754C223.494 16.1134 222.97 15.9824 222.314 15.9824C221.659 15.9824 221.135 16.1134 220.48 16.3754C219.956 16.6374 219.432 17.0304 218.908 17.4235C218.515 17.8165 218.122 18.3405 217.86 18.8645C217.729 19.6505 217.598 20.3055 217.598 20.8296Z" fill="white"/>
<path d="M235.808 12.4453H240.524V15.0654C241.703 12.9693 243.406 11.9213 245.502 11.9213C246.157 11.9213 246.943 12.0523 247.598 12.3143L246.943 16.7684C246.288 16.3754 245.502 16.1134 244.716 16.1134C241.965 16.1134 240.655 17.8165 240.655 21.2226V29.3448H235.939V12.4453H235.808Z" fill="white"/>
<path d="M250.087 12.4453H254.804V15.0654C255.983 12.9693 257.686 11.9213 259.782 11.9213C260.437 11.9213 261.223 12.0523 261.878 12.3143L261.223 16.7684C260.568 16.3754 259.782 16.1134 258.996 16.1134C256.245 16.1134 254.935 17.8165 254.935 21.2226V29.3448H250.218V12.4453H250.087Z" fill="white"/>
<path d="M263.843 5.24024C263.843 4.84722 263.974 4.45421 264.105 4.1922C264.236 3.79918 264.498 3.53718 264.76 3.27517C265.284 2.75115 266.07 2.48914 266.725 2.48914C267.511 2.48914 268.166 2.75115 268.69 3.27517C268.952 3.53718 269.214 3.79918 269.345 4.1922C269.476 4.58521 269.607 4.84722 269.607 5.24024C269.607 5.63325 269.476 6.02626 269.345 6.28827C269.214 6.68128 268.952 6.94329 268.69 7.2053C268.428 7.46731 268.166 7.72932 267.773 7.86032C267.38 7.99133 267.118 8.12233 266.725 8.12233C266.332 8.12233 265.939 7.99133 265.677 7.86032C265.284 7.72932 265.022 7.46731 264.76 7.2053C264.498 6.94329 264.236 6.68128 264.105 6.28827C263.974 6.02626 263.843 5.63325 263.843 5.24024ZM269.083 12.4455V29.476H264.367V12.4455H269.083Z" fill="white"/>
<path d="M285.197 13.6245L282.839 16.3756C282.052 15.7206 281.004 15.3276 279.956 15.3276C279.432 15.3276 279.039 15.4586 278.646 15.7206C278.515 15.8516 278.384 15.9826 278.253 16.1136C278.122 16.2446 278.122 16.5066 278.122 16.6376C278.122 16.7686 278.122 17.0306 278.253 17.1616C278.384 17.2926 278.515 17.4236 278.646 17.5546C278.908 17.6856 279.17 17.8166 279.432 17.9476C279.825 18.0786 280.218 18.3406 280.742 18.4716C281.659 18.7337 282.445 19.1267 283.232 19.5197C283.756 19.7817 284.28 20.1747 284.804 20.5677C285.197 20.9607 285.459 21.4848 285.721 22.0088C285.852 22.5328 285.983 23.0568 285.983 23.7118C285.983 24.4979 285.852 25.4149 285.459 26.2009C285.066 26.9869 284.542 27.642 283.887 28.166C282.445 29.345 280.611 30.0001 278.777 29.869C277.598 29.869 276.419 29.607 275.24 29.214C274.192 28.69 273.144 28.035 272.358 27.1179L274.847 24.2359C276.157 25.5459 277.467 26.2009 278.777 26.2009C279.039 26.2009 279.301 26.2009 279.694 26.0699C279.956 25.9389 280.218 25.8079 280.349 25.6769C280.611 25.5459 280.742 25.2839 280.873 25.1529C281.004 24.8909 281.004 24.6289 281.004 24.3668C281.004 24.1048 281.004 23.9738 280.873 23.7118C280.742 23.4498 280.611 23.3188 280.48 23.1878C279.825 22.7948 279.17 22.4018 278.384 22.1398C276.288 21.3537 274.978 20.6987 274.323 20.0437C273.668 19.3887 273.406 18.4717 273.406 17.0306C273.406 16.2446 273.537 15.5896 273.799 14.9345C274.061 14.2795 274.585 13.6245 275.109 13.2315C276.288 12.1834 277.86 11.6594 279.432 11.6594C281.659 11.7904 283.625 12.4455 285.197 13.6245Z" fill="white"/>
<path d="M288.603 20.8296C288.603 19.6505 288.734 18.4715 289.258 17.2924C289.782 16.2444 290.437 15.1964 291.354 14.4104C293.188 12.7073 295.546 11.9213 298.428 11.9213C301.31 11.9213 303.537 12.7073 305.371 14.4104C306.288 15.1964 306.943 16.2444 307.467 17.4235C307.991 18.6025 308.122 19.7815 308.122 20.9606C308.122 22.1396 307.991 23.4497 307.467 24.4977C306.943 25.6767 306.288 26.5938 305.371 27.5108C303.537 29.2138 301.179 29.9999 298.297 29.9999C295.415 29.9999 293.057 29.2138 291.354 27.5108C289.389 25.8077 288.603 23.5807 288.603 20.8296ZM293.45 20.8296C293.45 21.7466 293.712 22.6636 294.236 23.4496C294.76 24.2357 295.546 24.8907 296.332 25.2837C297.249 25.6767 298.166 25.8077 299.083 25.5457C300 25.4147 300.917 24.8907 301.572 24.2357C301.965 23.8427 302.358 23.3187 302.62 22.6636C302.882 22.1396 303.013 21.4846 303.013 20.8296C303.013 20.1745 302.882 19.5195 302.62 18.9955C302.358 18.4715 301.965 17.9475 301.572 17.4235C301.179 17.0304 300.655 16.6374 300 16.3754C299.476 16.1134 298.821 15.9824 298.166 15.9824C297.511 15.9824 296.856 16.1134 296.332 16.3754C295.808 16.6374 295.284 17.0304 294.76 17.4235C294.367 17.8165 293.974 18.3405 293.712 18.8645C293.581 19.6505 293.45 20.3055 293.45 20.8296Z" fill="white"/>
<path d="M311.66 12.4455H316.376V14.5415C317.031 13.7555 317.817 12.9695 318.734 12.5764C319.651 12.0524 320.699 11.9214 321.747 11.9214C323.45 11.7904 325.022 12.4454 326.332 13.6245C326.987 14.1485 327.38 14.9345 327.642 15.7206C327.904 16.7686 328.035 17.8166 328.035 18.7337V29.476H323.319V20.0437C323.319 19.3887 323.319 18.7337 323.188 18.2096C323.057 17.6856 322.926 17.2926 322.664 16.8996C322.402 16.5066 322.009 16.3756 321.616 16.1136C321.092 15.9826 320.568 15.8516 320.175 15.8516C317.817 15.8516 316.507 17.4236 316.507 20.5677V29.345H311.791L311.66 12.4455Z" fill="white"/>
</svg>
