<svg viewBox="0 0 105 30" fill="none" xmlns="http://www.w3.org/2000/svg">
<path d="M0 0V30H30V0H0ZM8.4104 6.76301H14.8266C16.7341 6.76301 18.1214 7.10983 19.1618 7.89018C20.2023 8.58382 20.7225 9.62428 20.7225 11.0116C20.7225 11.7919 20.5491 12.4856 20.2023 13.0925C19.8555 13.6994 19.2486 14.1329 18.5549 14.4798C19.5954 14.8266 20.289 15.3468 20.8092 16.0405C21.3295 16.7341 21.5896 17.6012 21.5896 18.5549C21.5896 19.5087 21.3295 20.3757 20.8092 21.0694C20.289 21.763 19.5954 22.2832 18.6416 22.7168C17.6879 23.1503 16.5607 23.3237 15.1734 23.3237H8.4104V6.76301ZM11.8786 9.45087V13.526H14.4798C15.3468 13.526 16.0405 13.3526 16.474 13.0058C16.9942 12.659 17.1676 12.052 17.1676 11.4451C17.1676 10.1445 16.2139 9.45087 14.3931 9.45087H11.8786ZM11.8786 16.1272V20.5491H14.9133C15.9538 20.5491 16.7341 20.3757 17.2543 20.0289C17.7746 19.6821 18.1214 19.0751 18.1214 18.3815C18.1214 16.9075 17.0809 16.1272 14.9133 16.1272H11.8786ZM74.9133 0V30H104.913V0H74.9133ZM91.1272 6.41619C91.9942 6.41619 92.8613 6.50289 93.7283 6.6763C94.5087 6.84971 95.289 7.10983 95.9826 7.54336V10.8381C95.3757 10.4046 94.6821 10.0578 93.9017 9.88439C93.1214 9.62428 92.341 9.53757 91.5607 9.53757C90.4335 9.53757 89.4798 9.71099 88.6994 10.1445C87.9191 10.578 87.3121 11.185 86.8786 12.052C86.4451 12.8324 86.2717 13.8728 86.2717 15C86.2717 16.2139 86.4451 17.1676 86.8786 18.0347C87.3121 18.815 87.9191 19.5087 88.6994 19.9422C89.4798 20.3757 90.4335 20.5491 91.5607 20.5491C93.2948 20.5491 94.8555 20.1156 96.2428 19.1619V22.3699C95.5491 22.7168 94.7688 23.0636 93.9017 23.237C93.0347 23.4971 92.0809 23.5838 91.0404 23.5838C89.7399 23.5838 88.526 23.4104 87.4855 22.9769C86.4451 22.5433 85.578 22.0231 84.7977 21.2428C84.104 20.4624 83.4971 19.5954 83.1503 18.5549C82.8035 17.5145 82.5433 16.3006 82.5433 14.9133C82.5433 13.6127 82.7167 12.3988 83.1503 11.3584C83.5838 10.3179 84.104 9.36416 84.8844 8.67052C85.6647 7.89017 86.5318 7.36994 87.5722 6.93642C88.6994 6.58959 89.8266 6.41619 91.1272 6.41619ZM37.4566 0V30H67.4566V0H37.4566ZM45.867 6.76301H52.2832C54.1907 6.76301 55.578 7.10983 56.6185 7.89018C57.659 8.58382 58.1792 9.62428 58.1792 11.0116C58.1792 11.7919 58.0058 12.4856 57.659 13.0925C57.3121 13.6994 56.7052 14.1329 56.0116 14.4798C57.052 14.8266 57.7457 15.3468 58.2659 16.0405C58.7861 16.7341 59.0462 17.6012 59.0462 18.5549C59.0462 19.5087 58.7861 20.3757 58.2659 21.0694C57.7457 21.763 57.052 22.2832 56.0983 22.7168C55.1445 23.0636 54.0173 23.3237 52.63 23.3237H45.867V6.76301ZM49.3353 9.45087V13.526H51.9364C52.8035 13.526 53.4971 13.3526 53.9306 13.0058C54.4509 12.659 54.6243 12.052 54.6243 11.4451C54.6243 10.1445 53.6705 9.45087 51.8497 9.45087H49.3353ZM49.3353 16.1272V20.5491H52.3699C53.4104 20.5491 54.1907 20.3757 54.711 20.0289C55.2312 19.6821 55.578 19.0751 55.578 18.3815C55.578 16.9075 54.5376 16.1272 52.3699 16.1272H49.3353Z" fill="white"/>
</svg>
