<svg viewBox="0 0 98 100" fill="none" xmlns="http://www.w3.org/2000/svg">
<path fill-rule="evenodd" clip-rule="evenodd" d="M27.972 15.5011C27.972 13.5198 27.1562 12.3543 25.9907 11.7715C25.1748 11.3053 24.2424 11.1888 22.7273 11.1888H19.697L19.5804 20.1631H22.7273C25.9907 20.1631 27.972 18.5314 27.972 15.5011Z" fill="white"/>
<path fill-rule="evenodd" clip-rule="evenodd" d="M23.6597 23.7762H19.697L19.5804 33.3334H23.4266C26.8065 33.3334 29.4872 31.9348 29.4872 28.4382C29.4872 25.2914 26.69 23.7762 23.6597 23.7762Z" fill="white"/>
<path fill-rule="evenodd" clip-rule="evenodd" d="M80.5361 66.6667C80.4196 66.6667 80.303 66.6667 80.1865 66.6667C81.8182 63.0536 82.7506 59.0909 82.7506 54.7785C82.7506 38.5781 69.5804 25.4079 53.38 25.4079C50.4662 25.4079 47.7855 25.8741 45.1049 26.5734C45.338 25.2914 45.4545 24.1259 45.4545 22.7273C45.4545 10.1399 35.3147 0 22.7273 0C10.1399 0 0 10.1399 0 22.7273C0 35.3147 10.1399 45.4545 22.7273 45.4545C23.6597 45.4545 24.7086 45.338 25.641 45.2214C24.5921 48.1352 24.1259 51.2821 24.1259 54.662C24.1259 70.8625 37.296 84.0326 53.4965 84.0326C57.2261 84.0326 60.7226 83.3333 63.8695 82.0513C63.8695 82.4009 63.7529 82.8671 63.7529 83.2168C63.7529 92.5408 71.3287 100 80.5361 100C89.8601 100 97.3193 92.4242 97.3193 83.2168C97.3193 74.2424 89.7436 66.6667 80.5361 66.6667ZM24.1259 36.7133H12.0047V33.3333H14.9184L15.035 11.1888H12.0047V7.80885H23.5431C26.5734 7.80885 28.4382 8.15851 30.1865 9.44056C31.5851 10.4895 32.7506 12.4709 32.7506 14.9184C32.7506 18.2984 30.6527 21.2121 27.0396 21.5618V21.6783C30.8858 21.6783 34.4988 24.2424 34.4988 28.6713C34.6154 33.5664 31.1189 36.7133 24.1259 36.7133ZM63.7529 52.7972V57.6923H51.6317L51.5152 70.6294H56.2937V75.1748H41.3753V70.6294H45.2214L45.4545 40.7925H40.9091V36.4802V36.2471H41.1422H68.2984L68.5315 46.5035H63.4033L63.0536 40.7925H51.7483L51.6317 52.7972H63.7529ZM84.6154 75.8741H82.634V91.0256H84.6154V94.1725H76.3403V91.0256H78.3217V75.8741H76.3403V73.0769V72.7273H76.5734H84.6154V75.8741Z" fill="white"/>
</svg>
