<svg width="100" height="45" viewBox="0 0 100 45" fill="none" xmlns="http://www.w3.org/2000/svg">
<path fill-rule="evenodd" clip-rule="evenodd" d="M0.0779411 0.233823H5.61185C7.09275 0.233823 8.49571 0.311766 9.35308 0.623535C11.1457 1.16913 11.8472 2.5721 11.8472 3.97506C11.8472 4.75448 11.6913 5.22214 11.6134 5.37802C10.9899 6.85893 9.58691 7.17069 8.80748 7.32658C9.66485 7.48246 10.834 7.71629 11.6134 8.57366C12.159 9.11925 12.3928 9.89867 12.3928 10.6781C12.3928 11.8472 11.7693 13.3281 9.97662 14.1855C8.88542 14.6532 7.79423 14.7311 6.0795 14.7311H0V0.233823H0.0779411ZM3.42946 2.9618V6.00156H6.15744C6.93687 6.00156 8.26189 5.92361 8.26189 4.44271C8.26189 3.03975 7.01481 3.03975 6.39127 3.03975H3.42946V2.9618ZM3.42946 8.49571V12.0031H6.00156C7.24864 12.0031 8.72954 11.9252 8.72954 10.2884C8.72954 8.49571 7.32658 8.49571 6.62509 8.49571H3.42946ZM17.4591 5.06625C18.1606 4.44271 18.862 3.97506 20.5768 3.81918V6.54716L19.4856 6.70304C18.0047 6.93687 17.537 7.24864 17.537 8.57366V14.5752H14.3414V3.89712H17.4591V5.06625ZM32.8137 9.35308C32.8137 12.0811 31.2549 14.9649 27.046 14.9649C24.0062 14.9649 21.2783 13.2502 21.2783 9.35308C21.2783 6.0795 23.3048 3.5074 27.4357 3.74123C31.8784 3.97505 32.8137 7.40452 32.8137 9.35308ZM25.0974 7.17069C24.7077 7.79423 24.5518 8.49571 24.5518 9.27514C24.5518 10.9899 25.3313 12.4708 27.1239 12.4708C28.8387 12.4708 29.696 11.1458 29.696 9.43102C29.696 8.26189 29.4622 7.32658 28.8387 6.78098C28.2151 6.15744 27.4357 6.15744 26.968 6.15744C26.0327 6.23539 25.4871 6.6251 25.0974 7.17069ZM45.5183 9.35308C45.5183 12.0811 43.9595 14.9649 39.7506 14.9649C36.7108 14.9649 33.9829 13.2502 33.9829 9.35308C33.9829 6.0795 36.0094 3.5074 40.1403 3.74123C44.583 3.97505 45.5183 7.40452 45.5183 9.35308ZM37.802 7.17069C37.4123 7.79423 37.2564 8.49571 37.2564 9.27514C37.2564 10.9899 38.0359 12.4708 39.8285 12.4708C41.5433 12.4708 42.4006 11.1458 42.4006 9.43102C42.4006 8.26189 42.1668 7.32658 41.5433 6.78098C40.9197 6.15744 40.1403 6.15744 39.6726 6.15744C38.7373 6.23539 38.1917 6.6251 37.802 7.17069ZM47.5448 0.233823H50.6625V7.63834L54.092 4.053H57.9111L54.1699 7.87217L58.3009 14.7311H54.7155L51.9875 10.1325L50.6625 11.3796V14.7311H47.5448V0.233823ZM60.0156 2.9618C60.0156 2.41621 60.0156 1.71473 60.4832 1.09119C60.873 0.545597 61.7303 0 63.2112 0C63.8348 0 64.4583 0.0779399 65.0818 0.155882V2.57209H64.3024C63.1333 2.57209 63.0553 2.80592 63.0553 4.28683H65.1598V6.23539H63.0553V14.7311H59.9377V6.23539H58.2229V4.28683H59.9377V2.9618H60.0156ZM66.7186 2.72798H69.8363V0.233823H66.7186V2.72798ZM66.7186 14.6532H69.8363V3.97506H66.7186V14.6532ZM82.6189 12.0031C82.2292 12.5487 81.9174 13.0943 81.2938 13.562C80.4365 14.4193 79.0335 15.0429 77.3188 15.0429C74.1231 15.0429 71.9408 13.0164 71.9408 9.5869C71.9408 7.01481 73.1878 3.66329 77.3967 3.66329C78.0203 3.66329 79.8909 3.74123 81.2159 5.14419C82.6189 6.6251 82.6968 8.6516 82.6968 9.89867H75.1364C75.1364 11.2237 75.8379 12.5487 77.5526 12.5487C79.2673 12.5487 79.8129 11.3796 80.2027 10.6781L82.6189 12.0031ZM79.4232 8.02806C79.3453 7.5604 79.2673 6.93687 78.7997 6.54716C78.41 6.15744 77.8644 5.92362 77.3188 5.92362C76.5394 5.92362 75.9938 6.31333 75.7599 6.6251C75.2923 7.09275 75.2143 7.5604 75.1364 8.02806C75.1364 8.02806 79.4232 8.02806 79.4232 8.02806ZM84.5674 14.6532H87.7631V0.233823H84.5674V14.6532ZM100 0.233823V14.6532H97.1941V13.7178C96.6485 14.2634 95.8691 15.0429 94.3102 15.0429C93.219 15.0429 92.2058 14.5752 91.2705 13.7958C89.7116 12.3149 89.7116 10.2104 89.7116 9.50896C89.7116 5.45596 91.9719 3.89712 94.1543 3.89712C95.5573 3.89712 96.3367 4.52066 96.9603 4.98831V0.389712H100V0.233823ZM96.9603 9.35308C96.9603 8.80748 96.9603 7.48246 96.2588 6.70304C96.1029 6.54715 95.6352 6.0795 95.0117 6.0795C92.8293 6.0795 92.8293 8.88542 92.8293 9.35308C92.8293 10.834 93.297 12.6267 94.8558 12.6267C95.2455 12.6267 95.5573 12.5487 95.947 12.2369C96.9603 11.5355 96.9603 9.97662 96.9603 9.35308Z" fill="white"/>
<path fill-rule="evenodd" clip-rule="evenodd" d="M1.94856 33.5932V39.6727H0.0779419V25.2534H6.31333C7.01481 25.2534 7.79423 25.2534 8.57365 25.4872C10.2884 26.1107 11.0678 27.6696 11.0678 29.3843C11.0678 30.9431 10.3663 32.8138 8.41777 33.3594C7.71629 33.5932 7.01481 33.5932 6.15744 33.5932H1.94856ZM1.94856 31.8785H6.00156C7.09275 31.8785 7.87217 31.8785 8.49571 31.2549C9.04131 30.7093 9.19719 30.0078 9.19719 29.3064C9.19719 28.7608 9.11925 28.0593 8.41777 27.4357C7.79423 26.8901 7.09275 26.8901 6.39127 26.8901H1.94856V31.8785ZM14.2634 30.1637V31.9564C15.1208 30.0858 16.9135 30.0858 17.537 30.0858V31.8785C17.3811 31.8785 17.0694 31.8785 16.8355 31.8785C15.9002 31.8785 15.0429 32.2682 14.6532 33.0476C14.1855 33.7491 14.1855 34.6064 14.1855 35.5417V39.9845H12.4708V30.3975H14.2634V30.1637ZM23.3048 40.0624C19.9532 40.0624 18.5503 37.5682 18.5503 34.9961C18.5503 32.8917 19.6415 29.774 23.3048 29.774C26.5004 29.774 27.9813 32.2682 27.9033 34.9182C27.9813 37.8021 26.1886 40.0624 23.3048 40.0624ZM26.1107 33.5932C25.721 31.6446 24.5518 31.099 23.3827 31.099C21.2003 31.099 20.265 32.8138 20.265 34.9961C20.265 37.0226 21.0444 38.7374 23.1489 38.7374C25.8769 38.7374 26.0327 35.9315 26.0327 34.9182C26.1886 34.2947 26.1107 33.827 26.1107 33.5932ZM30.0857 30.1637H31.6446V31.5667C32.0343 31.177 32.1902 30.9431 32.5019 30.7093C33.1255 30.2417 34.0608 29.9299 35.074 29.9299C37.1785 29.9299 39.3609 31.6446 39.3609 35.0741C39.3609 37.8021 37.88 40.2183 34.8402 40.2183C33.5152 40.2183 32.3461 39.7506 31.5666 38.8153V44.5831H30.0078C30.0857 44.4272 30.0857 30.1637 30.0857 30.1637ZM31.7225 35.0741C31.7225 37.1785 32.8137 38.5815 34.7623 38.5815C35.3079 38.5815 35.9314 38.5036 36.477 38.1138C37.0226 37.7241 37.88 36.7888 37.88 34.8403C37.88 32.5799 36.6329 31.2549 34.7623 31.2549C32.8137 31.4108 31.7225 32.8917 31.7225 35.0741ZM50.1169 36.7888C49.8831 37.4124 49.0257 40.0624 45.8301 40.0624C43.0242 40.0624 41.1535 38.1138 41.1535 34.8403C41.1535 31.2549 43.8036 29.774 45.8301 29.774C47.6228 29.774 49.4154 30.7093 50.039 33.2035C50.1949 33.9829 50.1949 34.7623 50.1949 35.152H42.8683C42.8683 36.7109 43.6477 38.7374 45.986 38.7374C47.3889 38.7374 48.2463 37.8021 48.5581 36.555L50.1169 36.7888ZM48.4022 34.0608C48.2463 31.4887 46.4536 31.0211 45.6742 31.0211C44.2712 31.0211 43.1021 32.1123 42.9462 34.0608H48.4022ZM53.8581 30.1637V31.9564C54.7155 30.0858 56.5082 30.0858 57.1317 30.0858V31.8785C56.9758 31.8785 56.6641 31.8785 56.4302 31.8785C55.4949 31.8785 54.6376 32.2682 54.2479 33.0476C53.7802 33.7491 53.7802 34.6064 53.7802 35.5417V39.9845H52.0655V30.3975H53.8581V30.1637ZM60.795 30.1637H62.5877V31.4887H60.795V36.9447C60.795 38.1138 60.795 38.6594 61.4965 38.6594C61.7303 38.6594 62.198 38.5815 62.5877 38.4256V39.7506C62.3539 39.7506 61.6524 39.9065 61.0288 39.9065C59.1582 39.9065 59.1582 39.0491 59.1582 37.7241V31.4887H57.6773V30.0858H59.1582V27.046H60.8729L60.795 30.1637ZM64.6921 27.2019H66.251V25.4092H64.6921V27.2019ZM64.6921 39.7506H66.251V30.1637H64.6921V39.7506ZM77.3188 36.7888C77.0849 37.4124 76.2276 40.0624 73.0319 40.0624C70.226 40.0624 68.3554 38.1138 68.3554 34.8403C68.3554 31.2549 71.0054 29.774 73.0319 29.774C74.8246 29.774 76.6173 30.7093 77.2408 33.2035C77.3967 33.9829 77.3967 34.7623 77.3967 35.152H70.0701C70.0701 36.7109 70.8496 38.7374 73.1878 38.7374C74.5908 38.7374 75.4482 37.8021 75.7599 36.555L77.3188 36.7888ZM75.5261 34.0608C75.3702 31.4887 73.5775 31.0211 72.7981 31.0211C71.3952 31.0211 70.226 32.1123 70.0701 34.0608H75.5261ZM82.6189 35.5417C81.06 35.152 79.1894 34.7623 79.1894 32.7358C79.1894 30.9431 80.6703 29.9299 82.9306 29.9299C84.8012 29.9299 86.7498 30.7873 87.0616 33.1255L85.2689 33.3594C85.2689 32.7358 85.1909 32.2682 84.5674 31.8005C83.9439 31.2549 83.1645 31.2549 82.6968 31.2549C81.4497 31.2549 80.7482 32.0343 80.7482 32.6579C80.7482 33.5152 81.8394 33.905 83.0086 34.1388L83.8659 34.3726C85.0351 34.6064 87.0616 35.152 87.0616 37.1006C87.0616 38.6594 85.6586 40.1403 83.0086 40.1403C81.9174 40.1403 80.8262 39.9065 79.9688 39.3609C79.735 39.1271 78.7217 38.4256 78.5659 36.7109L80.4365 36.477C80.4365 36.9447 80.4365 37.7241 81.138 38.3477C81.6835 38.8933 82.463 38.8933 83.0865 38.8933C84.4895 38.8933 85.3468 38.3477 85.3468 37.3344C85.3468 36.2432 84.5674 36.0094 83.3203 35.8535L82.6189 35.5417Z" fill="white"/>
</svg>
