<svg width="73" height="100" viewBox="0 0 73 100" fill="none" xmlns="http://www.w3.org/2000/svg">
<path d="M18.6047 91.8605H26.7442V100H18.6047V91.8605ZM45.2431 100H65.5391V91.8605H45.2431V100ZM0 67.019H40.0634V58.8795H0V67.019ZM31.9239 100H40.0634V72.1987H31.9239V100ZM26.6385 37.315V24.4186L2.95983 53.6998H13.425L26.6385 37.315ZM46.5116 0L45.3488 1.47992V14.3763L52.8541 5.074L46.5116 0ZM58.5624 58.8795V67.019H72.5159V58.8795H58.5624ZM53.3827 12.5793L45.2431 22.6216V86.6808H53.3827V12.5793ZM31.9239 53.5941H40.0634V7.92812L31.9239 17.9704V53.5941Z" fill="white"/>
</svg>
