<svg width="86" height="100" viewBox="0 0 86 100" fill="none" xmlns="http://www.w3.org/2000/svg">
<path d="M42.789 100L0 74.9702V25.0298L42.789 0L85.5781 25.0298V74.9702L42.789 100Z" fill="white"/>
<path d="M56.2575 57.211L59.4756 60.5483L37.4255 77.7116L33.1347 74.851L39.2134 70.441L33.7307 66.031L23.4804 68.2956L18.9512 65.1967L56.2575 57.211ZM39.3326 64.7199L42.9083 67.5805L50.0596 62.3361L39.3326 64.7199Z" fill="black"/>
<path d="M17.7593 49.5828L34.3266 21.4541C39.0942 34.6842 36.2337 43.385 36.2337 43.385C32.5388 55.6615 25.3874 61.3826 25.3874 61.3826C23.3612 63.1705 21.2158 62.4553 20.3814 61.1442C19.5471 59.714 19.1895 57.5685 19.1895 57.5685C19.0704 56.615 17.7593 49.5828 17.7593 49.5828ZM21.4542 50.1788C21.4542 50.1788 21.9309 53.5161 22.0501 53.9929C22.0501 53.9929 22.8844 58.9988 26.9369 53.5161C26.9369 53.5161 35.6377 42.5507 32.5388 31.8236L21.4542 50.1788Z" fill="black"/>
<path d="M53.3969 29.9166L55.7807 26.6984L69.2491 51.8474L67.3421 55.4231L66.5077 54.5888C66.5077 56.0191 66.2694 56.7342 66.2694 56.7342C65.1967 60.4291 62.5745 60.3099 62.5745 60.3099C57.6877 60.1907 54.2312 52.0858 54.2312 52.0858C50.0596 43.2658 53.5161 38.6174 53.5161 38.6174C55.1847 36.7104 57.0918 36.9487 57.0918 36.9487L53.3969 29.9166ZM62.5745 55.0656C64.0048 54.3504 64.124 50.5363 62.6937 46.8415C61.1442 42.789 59.118 40.4052 57.211 41.3588C55.5423 42.1931 55.4231 45.6496 57.0918 49.3445C59.2372 53.8737 61.1442 55.8999 62.5745 55.0656Z" fill="black"/>
<path d="M48.8677 37.1871L53.7545 34.565C53.1585 38.975 48.6293 47.9142 48.6293 47.9142C48.9869 48.2718 51.6091 53.3969 51.6091 53.3969L46.4839 55.7807L45.1728 53.5161C39.2133 62.0977 35.876 60.0715 35.876 60.0715C33.3731 59.2372 33.8498 53.2777 33.8498 53.2777C34.4458 47.795 38.8558 41.2396 38.8558 41.2396C36.1144 36.1144 39.8093 30.8701 39.8093 30.8701C43.1466 25.6258 46.2455 25.149 46.2455 25.149C49.4636 24.4339 49.3445 27.7712 49.3445 27.7712C49.8212 32.6579 44.2193 39.9285 44.2193 39.9285C44.4577 41.1204 46.3647 43.9809 46.3647 43.9809C47.4374 42.4315 48.8677 37.1871 48.8677 37.1871ZM40.6436 44.8153C40.6436 44.8153 36.5912 50.6556 38.1406 53.2777C38.1406 53.2777 40.286 55.6615 43.2658 49.8212L40.6436 44.8153ZM45.4112 29.6782C45.4112 29.6782 44.1001 29.3206 42.6698 31.8236C42.6698 31.8236 41.2396 34.4458 42.6698 36.8296C42.6698 36.8296 45.1728 33.2539 45.5304 31.7044C45.5304 31.7044 46.2455 29.9166 45.4112 29.6782Z" fill="black"/>
</svg>
