<svg width="125" height="31" viewBox="0 0 125 31" fill="none" xmlns="http://www.w3.org/2000/svg">
<path d="M0 1.00345H19.1379C24.2069 1.00345 26.4828 2.76207 26.4828 7.41724V23.6586C26.4828 29.1414 24.5172 30.9 19.1379 30.9H0V1.00345ZM12.931 24.0724C14.2759 24.0724 14.5862 23.4517 14.5862 21.9V9.9C14.5862 8.34828 14.1724 7.72759 12.931 7.72759H11.5862V23.969L12.931 24.0724Z" fill="white"/>
<path d="M40.9655 7.62414L42.2069 17.7621H39.7241L40.9655 7.62414ZM31.7586 1.00345L26.4828 30.9H38.4828L39.1034 24.3828H42.4138L43.0345 30.9H55.1379L49.8621 1.00345H31.7586Z" fill="white"/>
<path d="M56.6897 1.00345V7.83104H63.9311L55.9655 24.4862V30.9H76.9655V24.0724H68.8966L76.9655 7.21035V1.00345H56.6897Z" fill="white"/>
<path d="M78 1.00344V30.9H96.8276V24.0724H89.6897V17.8655H96.8276V11.0379H89.6897V7.72758H96.8276V0.899994H78V1.00344Z" fill="white"/>
<path d="M98.069 30.9H117.103C122.483 30.9 124.448 29.1414 124.448 23.6586V7.41724C124.448 2.65862 122.172 1.00345 117.103 1.00345H97.9655V30.9H98.069ZM109.655 24.0724V7.83104H110.897C112.138 7.83104 112.552 8.45172 112.552 10.0034V22.0035C112.552 23.5552 112.241 24.1759 110.897 24.1759L109.655 24.0724Z" fill="white"/>
</svg>
