<svg width="120" height="30" viewBox="0 0 120 30" fill="none" xmlns="http://www.w3.org/2000/svg">
<path fill-rule="evenodd" clip-rule="evenodd" d="M16.9412 30L30.2647 17.1176C35.4706 12 37.6765 11.2941 47.6471 11.2941H87.5294L99 0.0882339H46.1471C32.7353 0.0882339 28.9412 1.32353 21.0882 9.08824L0 30H16.9412ZM47.9118 13.0588H85.8529L75.3529 23.5588H48.1765C43.1471 23.5588 42.0882 23.8235 39.6176 26.2941L35.9118 30H20.0294L31.6765 18.3529C36.2647 13.7647 37.8529 13.0588 47.9118 13.0588ZM120 0L89.9118 30H71.2941L101.294 0H120ZM100.235 29.0294C100.853 29.6471 101.647 30 102.618 30C103.588 30 104.382 29.6471 105 29.0294C105.618 28.4118 105.882 27.6176 105.882 26.7353C105.882 25.8529 105.529 25.0588 104.912 24.4412C104.294 23.8235 103.5 23.4706 102.529 23.4706C101.559 23.4706 100.765 23.8235 100.147 24.4412C99.5294 25.0588 99.1765 25.8529 99.1765 26.7353C99.2647 27.6176 99.5294 28.4118 100.235 29.0294ZM100.588 24.7941C101.118 24.2647 101.735 24 102.529 24C103.324 24 103.941 24.2647 104.471 24.7941C105 25.3235 105.265 25.9412 105.265 26.7353C105.265 27.5294 105 28.1471 104.471 28.6765C103.941 29.2059 103.324 29.4706 102.529 29.4706C101.735 29.4706 101.118 29.2059 100.588 28.6765C100.059 28.1471 99.7941 27.5294 99.7941 26.7353C99.7941 25.9412 100.059 25.3235 100.588 24.7941ZM101.912 28.5882V27.2647H102.618L103.235 28.5882H104.029L103.324 27.1765C103.588 27.0882 103.676 26.9118 103.853 26.7353C103.941 26.5588 104.029 26.2941 104.029 25.9412C104.029 25.5882 103.941 25.3235 103.676 25.1471C103.412 24.9706 103.059 24.8824 102.618 24.8824H101.206V28.5H101.912V28.5882ZM101.912 26.7353V25.5H102.529C103.059 25.5 103.324 25.6765 103.324 26.1177C103.324 26.2941 103.235 26.4706 103.147 26.5588C103.059 26.6471 102.882 26.7353 102.706 26.7353H101.912Z" fill="white"/>
</svg>
