<svg width="116" height="30" viewBox="0 0 116 30" fill="none" xmlns="http://www.w3.org/2000/svg">
<path d="M0 1.10887H17.1982V5.62892H4.85078V13.4563H16.3163V17.9764H4.85078V29.5521H0V1.10887Z" fill="white"/>
<path d="M36.2706 8.16455V10.8104H35.9399C34.3964 8.71578 31.9711 7.61333 29.4354 7.72357C23.7027 7.72357 19.5134 12.4641 19.5134 18.8583C19.5134 25.3628 23.8129 29.9931 29.5457 29.9931C33.294 29.9931 35.0579 28.1189 35.9399 26.796H36.2706V29.5521H41.0111V8.2748H36.2706V8.16455ZM30.4276 25.3628C27.01 25.3628 24.3641 22.9374 24.3641 18.8583C24.3641 14.7793 26.8998 12.2436 30.3174 12.2436C33.6247 12.2436 36.2706 14.669 36.2706 18.8583C36.3809 22.4964 34.0657 25.3628 30.4276 25.3628Z" fill="white"/>
<path d="M48.6181 26.9062H48.2873V29.4418H43.5468V1.10887H48.3976V10.8104H48.7283C50.2717 8.71578 52.6971 7.50309 55.343 7.50309C61.0757 7.50309 65.2651 12.3539 65.2651 18.7481C65.2651 25.1423 60.8553 29.9931 55.0123 29.9931C52.3664 30.1033 50.0512 28.8906 48.6181 26.9062ZM60.1938 18.7481C60.1938 14.7793 57.5479 12.0231 54.1303 12.0231C50.7127 12.0231 48.0668 14.5588 48.0668 18.7481C48.0668 22.3862 50.382 25.473 54.0201 25.473C57.5479 25.473 60.1938 22.8271 60.1938 18.7481Z" fill="white"/>
<path d="M67.47 8.27481H72.1003V11.8027H72.431C73.4232 9.708 75.5179 8.27481 77.9432 8.27481H79.4867V12.9051H77.392C73.9744 12.9051 72.2105 15.3305 72.2105 19.1891V29.4419H67.5802V8.27481H67.47Z" fill="white"/>
<path d="M85.5501 12.9051H81.8018V8.2748H90.2907V29.5521H85.5501V12.9051ZM84.9989 2.8728C85.1092 1.21913 86.5424 -0.103821 88.196 0.00642442C89.7395 0.116669 90.9521 1.32937 91.0624 2.8728C90.9521 4.52648 89.519 5.84942 87.8653 5.73917C86.3219 5.73917 84.9989 4.52648 84.9989 2.8728Z" fill="white"/>
<path d="M115.316 10.7002L111.899 7.28261L103.961 15.2202L96.1337 7.28261L92.7161 10.7002L100.543 18.6378L92.7161 26.5755L96.1337 29.8828L103.961 22.0554L111.899 29.8828L115.316 26.5755L107.379 18.6378L115.316 10.7002Z" fill="white"/>
</svg>
