<svg width="351" height="30" viewBox="0 0 351 30" fill="none" xmlns="http://www.w3.org/2000/svg">
<path fill-rule="evenodd" clip-rule="evenodd" d="M152.191 0.148513H155.161C155.161 1.18812 155.161 2.22772 155.161 3.41584V13.0693H168.23V16.0396H155.161C155.161 16.9307 155.161 17.8218 155.161 18.7129C155.161 19.604 155.161 20.3465 155.161 21.2376V28.9604H152.339C152.339 28.9604 152.339 28.9604 152.339 28.8119V28.6634V16.1881C152.339 16.1881 152.339 16.1881 152.339 16.0396H150.854H139.27V13.0693H152.339L152.191 0.148513ZM322.834 9.80198C324.616 8.31683 326.696 7.42575 329.072 7.27723V12.9208C328.775 12.9208 328.329 13.0693 327.884 13.0693C326.993 13.2178 326.102 13.3663 325.21 13.6634C324.913 13.6634 324.765 13.8119 324.616 13.9604C323.874 14.2574 323.28 15 323.131 15.8911C323.131 16.3366 322.983 16.7822 322.983 17.2277C322.983 21.0891 322.983 24.802 322.983 28.6634V29.1089C322.686 29.2574 317.339 29.2574 316.597 29.1089C316.448 28.8119 316.448 8.16832 316.597 7.57426H322.834C322.834 8.31683 322.834 8.91089 322.834 9.80198ZM122.933 29.1089H116.547V7.57426H122.785V9.80198C123.082 9.50495 123.379 9.35644 123.676 9.05941C123.973 8.91089 124.27 8.61386 124.567 8.46534C125.309 8.16831 125.903 7.87128 126.646 7.72277C126.943 7.57425 127.389 7.57426 127.686 7.42574C127.983 7.42574 128.428 7.27723 128.725 7.27723C128.725 7.27723 128.725 7.42574 128.725 7.57426C128.725 9.35644 128.725 10.9901 128.725 12.7723V12.9208C127.983 13.0693 127.389 13.0693 126.646 13.2178C126.052 13.3663 125.458 13.5149 124.864 13.6634C124.715 13.6634 124.418 13.8119 124.27 13.8119C123.824 13.9604 123.527 14.2574 123.23 14.5545C122.933 14.8515 122.785 15.297 122.785 15.7426C122.785 16.1881 122.785 16.4852 122.636 16.9307C122.636 20.7921 122.636 24.6535 122.636 28.5149L122.933 29.1089ZM239.814 29.1089H233.428V7.57426H239.666V9.80198C239.963 9.50495 240.26 9.35644 240.557 9.05941C240.854 8.91089 241.151 8.61386 241.597 8.46534C241.894 8.31683 242.339 8.16832 242.636 8.01981C242.933 7.87129 243.379 7.72277 243.676 7.72277C243.973 7.57425 244.418 7.57426 244.864 7.42574C245.161 7.42574 245.606 7.27723 245.903 7.27723C246.052 7.57426 246.052 12.3267 245.903 12.9208C245.309 13.0693 244.864 13.0693 244.27 13.2178C243.527 13.3663 242.785 13.5149 242.042 13.6634C241.894 13.6634 241.745 13.8119 241.597 13.8119C240.557 14.1089 239.814 15 239.814 16.0396C239.814 16.4851 239.814 16.7822 239.814 17.2277C239.814 20.9406 239.814 24.802 239.814 28.5149V29.1089ZM250.953 11.8812H247.834V8.01981H250.953C250.953 7.42575 250.953 6.83168 250.953 6.38613V1.48515C251.25 1.33663 256.745 1.33663 257.339 1.48515V8.16832C257.785 8.16832 258.23 8.16832 258.676 8.16832C259.121 8.16832 259.567 8.16832 260.012 8.16832H261.349V12.0297C261.052 12.0297 260.606 12.0297 260.309 12.0297C260.012 12.0297 259.567 12.0297 259.27 12.0297H257.191V21.3861C257.191 21.6832 257.191 22.1287 257.191 22.4257C257.191 22.5743 257.191 22.7228 257.191 22.8713C257.191 23.0198 257.191 23.1683 257.339 23.4653C257.339 23.6139 257.488 23.7624 257.636 23.9109C257.785 24.0594 257.933 24.0594 258.082 24.2079C258.23 24.2079 258.379 24.3564 258.676 24.2079C259.27 24.2079 259.864 24.2079 260.458 24.2079C260.606 24.2079 260.903 24.2079 261.052 24.2079C261.201 25.8416 261.201 27.4753 261.052 29.1089C260.606 29.1089 260.161 29.2574 259.715 29.2574C258.23 29.406 256.597 29.406 255.111 29.2574C254.814 29.2574 254.369 29.1089 254.072 28.9604C253.181 28.6634 252.438 28.2178 251.993 27.4752C251.399 26.7327 251.102 25.9901 251.102 25.099C250.953 24.3564 250.953 23.6139 250.953 23.0198C250.953 19.604 250.953 16.0396 250.953 12.6238V11.8812ZM76.5965 1.33664H82.9827V8.01981H87.1411C87.2896 9.35644 87.2896 10.5446 87.1411 11.8812C86.8441 11.8812 86.3985 11.8812 86.1015 11.8812C85.8045 11.8812 85.3589 11.8812 85.0619 11.8812H82.9827V21.0891C82.9827 21.5347 82.9827 22.1287 82.9827 22.5743C82.9827 22.7228 82.9827 23.0198 83.1312 23.1683C83.1312 23.3168 83.2797 23.4654 83.4282 23.6139C83.5767 23.7624 83.7253 23.9109 83.8738 23.9109C84.0223 23.9109 84.1708 24.0594 84.4678 23.9109C85.0619 23.9109 85.8045 23.9109 86.3985 23.9109C86.547 23.9109 86.6956 23.9109 86.8441 23.9109V28.8119L86.1015 28.9604C84.3193 29.2574 82.5371 29.2574 80.9035 28.9604C80.6064 28.9604 80.1609 28.8119 79.8639 28.6634C79.1213 28.3663 78.3787 27.9208 77.9332 27.3267C77.3391 26.7327 77.0421 25.9901 76.8936 25.2475C76.7451 24.3564 76.5965 23.4654 76.7451 22.5743C76.7451 19.1584 76.7451 15.7426 76.7451 12.1782V11.5842C76.448 11.5842 76.0025 11.5842 75.7055 11.5842H73.6262V7.72277C74.0718 7.72277 74.6659 7.72277 75.1114 7.72277C75.5569 7.72277 76.151 7.72277 76.7451 7.72277L76.5965 1.33664ZM70.5074 10.099L66.646 13.6634L66.2005 13.3663C65.0124 12.4752 63.8243 11.8812 62.4876 11.5842C61.5965 11.4356 60.5569 11.4356 59.6658 11.5842C59.2203 11.7327 58.9233 11.8812 58.6262 12.0297C58.4777 12.1782 58.3292 12.3267 58.1807 12.4753C58.0322 12.6238 58.0322 12.9208 58.0322 13.0693C58.0322 13.2178 58.1807 13.5149 58.1807 13.6634C58.3292 13.8119 58.4777 13.9604 58.6262 14.1089C59.0718 14.4059 59.6659 14.5545 60.1114 14.703C61.448 15 62.6361 15.1485 63.9728 15.4455C65.0124 15.5941 66.052 16.0396 66.9431 16.4851C67.5371 16.7822 68.2797 17.2277 68.7253 17.6733C69.3193 18.1188 69.7649 18.7129 70.0619 19.3069C70.3589 19.901 70.6559 20.6436 70.6559 21.3861C70.8045 22.5743 70.6559 23.7624 70.0619 24.802C69.6163 25.8416 68.7253 26.7327 67.8342 27.4752C66.4975 28.3663 65.0124 28.9604 63.3787 29.2574C60.4084 29.8515 57.2896 29.5545 54.4678 28.3663C52.8342 27.6238 51.349 26.7327 50.1609 25.5446L50.0124 25.396L54.0223 21.8317L54.6163 22.2772C55.6559 23.1683 56.8441 23.9109 58.1807 24.3564C59.5173 24.802 61.0025 24.802 62.3391 24.3564C62.6361 24.2079 62.9332 24.0594 63.2302 23.9109C63.3787 23.7624 63.6758 23.6139 63.8243 23.4653C63.9728 23.3168 64.1213 23.1683 64.1213 22.8713C64.1213 22.7228 64.1213 22.4257 64.1213 22.2772C64.1213 22.1287 63.9728 21.8317 63.8243 21.6832C63.6758 21.5347 63.5272 21.3861 63.3787 21.2376C62.9332 20.9406 62.3391 20.7921 61.7451 20.6436C60.854 20.4951 59.8144 20.3465 58.9233 20.198C57.7352 20.0495 56.6956 19.7525 55.5074 19.3069C55.2104 19.1584 54.9134 19.0099 54.6163 19.0099C53.5767 18.5644 52.6857 17.8218 52.0916 16.7822C51.4975 15.7426 51.2005 14.703 51.349 13.5149C51.349 12.6238 51.646 11.5842 52.0916 10.8416C52.5371 9.95049 53.1312 9.20792 53.8738 8.61386C55.0619 7.57425 56.547 6.9802 58.0322 6.83168C61.5965 6.23762 65.3094 6.83169 68.5767 8.76238C69.0223 9.05941 69.4678 9.35644 69.9134 9.65347C70.3589 9.9505 70.5074 10.099 70.5074 10.099ZM350.606 10.099L346.745 13.6634C346.597 13.5149 346.448 13.5148 346.448 13.3663C345.26 12.4752 344.072 11.8812 342.587 11.5842C341.696 11.4356 340.656 11.4356 339.765 11.5842C339.468 11.7327 339.022 11.8812 338.725 12.0297C338.577 12.1782 338.428 12.3267 338.28 12.4753C338.131 12.6238 338.131 12.9208 338.131 13.0693C338.131 13.2178 338.28 13.5149 338.28 13.6634C338.428 13.8119 338.577 13.9604 338.725 14.1089C339.171 14.4059 339.765 14.5545 340.21 14.5545C341.399 14.8515 342.587 15 343.775 15.297C344.814 15.4455 345.854 15.8911 346.894 16.3366C347.488 16.6337 347.933 16.9307 348.527 17.2277C349.27 17.6733 349.864 18.4158 350.309 19.1584C350.755 19.901 350.903 20.7921 350.903 21.6832C350.903 22.7228 350.755 23.7624 350.309 24.6535C349.864 25.5446 349.121 26.4357 348.379 27.0297C347.042 28.0693 345.557 28.6634 344.072 28.9604C340.804 29.703 337.24 29.4059 334.27 27.9208C332.785 27.1782 331.597 26.2871 330.408 25.2475C330.408 25.2475 330.408 25.099 330.26 25.099L334.27 21.5346L334.715 21.9802C335.904 23.0198 337.24 23.7624 338.725 24.3564C340.062 24.802 341.399 24.6535 342.735 24.3564C343.032 24.2079 343.329 24.0594 343.626 23.9109C343.775 23.7624 344.072 23.6139 344.22 23.4653C344.369 23.3168 344.369 23.1683 344.517 23.0198C344.517 22.8713 344.517 22.5743 344.517 22.4257C344.517 22.2772 344.369 22.1287 344.22 21.8317C344.072 21.6832 343.923 21.5347 343.775 21.3861C343.181 21.0891 342.735 20.9406 342.141 20.7921C341.25 20.6436 340.359 20.4951 339.319 20.3465C338.131 20.198 336.795 19.7525 335.606 19.3069C334.567 19.0099 333.676 18.2673 332.933 17.3762C332.191 16.4852 331.745 15.297 331.745 14.2574C331.597 13.0693 331.894 11.8812 332.488 10.9901C333.379 9.35644 334.715 8.16832 336.349 7.57426C337.983 6.9802 339.765 6.68317 341.547 6.83168C344.666 6.9802 347.636 8.0198 350.161 9.80198C350.458 9.95049 350.606 9.95049 350.606 10.099ZM265.953 7.57426H272.339V9.35643C272.339 9.35643 272.488 9.35643 272.488 9.20792C273.527 8.16831 274.715 7.42574 276.201 7.12871C277.834 6.68316 279.616 6.83169 281.25 7.27723C281.547 7.42575 281.696 7.42574 281.993 7.57426C282.735 7.87129 283.478 8.46534 284.072 9.20792C284.666 9.95049 284.963 10.6931 284.963 11.5842C285.111 12.4752 285.111 13.3663 285.111 14.2574C285.111 19.0099 285.111 23.7624 285.111 28.3663V28.8119H278.725C278.725 28.6634 278.725 28.5149 278.725 28.3663C278.725 24.3564 278.725 20.3465 278.725 16.1881C278.725 15.4455 278.725 14.8515 278.577 14.1089C278.577 13.5148 278.28 13.0693 277.983 12.6238C277.686 12.1782 277.092 12.0297 276.646 11.8812C275.903 11.7327 275.161 11.7327 274.418 11.8812C273.676 12.0297 273.082 12.6238 272.785 13.3663C272.636 13.8119 272.488 14.4059 272.339 14.8515C272.339 15.4455 272.191 16.0396 272.191 16.4851C272.191 20.3465 272.191 24.2079 272.191 28.0693V28.5149H265.953C265.953 28.8119 265.953 8.16832 265.953 7.57426ZM221.102 18.8614C220.953 18.8614 220.804 18.8614 220.804 19.0099C219.616 19.4554 218.428 19.7525 217.092 20.198C216.646 20.3465 216.201 20.495 215.755 20.7921C215.309 20.9406 215.012 21.2376 214.715 21.5346C214.418 21.8317 214.27 22.2772 214.27 22.7228C214.27 23.1683 214.418 23.6139 214.567 24.0594C214.864 24.3564 215.161 24.6535 215.458 24.9505C215.903 25.099 216.349 25.2475 216.646 25.099C217.537 24.9505 218.428 24.6535 219.022 24.2079C219.765 23.6139 220.21 22.8713 220.507 22.1287C220.953 20.9406 221.102 19.901 221.102 18.8614ZM227.933 29.1089H221.696C221.696 28.8119 221.547 28.5148 221.696 28.2178C221.696 27.9208 221.696 27.6238 221.696 27.1782L221.399 27.3267C220.804 27.7723 220.062 28.2178 219.468 28.6634C218.28 29.2574 217.092 29.703 215.755 29.703C214.418 29.703 213.23 29.5545 212.042 29.1089C211.002 28.6634 210.111 28.0693 209.369 27.1782C208.626 26.2871 208.329 25.2475 208.181 24.2079C207.735 21.6832 208.775 19.7525 210.705 18.1188C211.745 17.3762 212.785 16.7822 213.973 16.4851C215.606 16.0396 217.389 15.7426 219.171 15.297C219.913 15.1485 220.507 15 221.25 14.8515C221.399 13.9604 221.25 13.0693 220.953 12.3267C220.804 12.0297 220.656 11.7327 220.359 11.5842C220.062 11.4356 219.765 11.2871 219.468 11.2871C218.725 11.1386 217.983 11.2871 217.389 11.4356C216.943 11.5842 216.646 11.7327 216.349 12.0297C216.052 12.3267 215.755 12.7723 215.755 13.0693C215.755 13.2178 215.606 13.3663 215.606 13.6634H209.22C209.22 13.0693 209.369 12.4752 209.517 11.8812C209.814 10.6931 210.408 9.80198 211.448 9.05941C212.636 8.16832 213.973 7.57426 215.309 7.27723C217.686 6.83169 220.21 6.83168 222.587 7.42574C223.329 7.57426 224.22 7.87129 224.963 8.31683C225.854 8.76238 226.597 9.50495 227.042 10.2475C227.488 10.9901 227.785 12.0297 227.785 13.0693V25.5446C227.785 25.8416 227.785 26.1386 227.785 26.4356C227.339 27.4752 227.488 28.3663 227.933 29.1089ZM41.547 18.2673C41.547 17.9703 41.547 17.6733 41.547 17.2277C41.3985 16.1881 41.25 15.1485 40.6559 14.2574C40.3589 13.6634 39.9134 13.0693 39.3193 12.7723C38.7253 12.3267 38.1312 12.0297 37.5371 12.0297C36.646 11.8812 35.755 11.8812 35.0124 12.1782C33.9728 12.3267 33.0817 13.0693 32.4876 13.8119C32.1906 14.2574 31.8936 14.703 31.7451 15.297C31.2995 16.6337 31.151 17.9703 31.2995 19.3069C31.448 20.198 31.5965 21.0891 32.0421 21.9802C32.4876 23.0198 33.2302 23.7624 34.2698 24.2079C35.1609 24.6535 36.349 24.802 37.3886 24.6535C38.2797 24.505 39.0223 24.2079 39.6163 23.7624C40.2104 23.3168 40.8045 22.5743 41.1015 21.8317C41.3985 20.6436 41.547 19.4554 41.547 18.2673ZM36.2005 6.83168C37.6856 6.83168 39.1708 6.9802 40.6559 7.42574C41.9926 7.87129 43.3292 8.46535 44.3688 9.50495C45.4084 10.396 46.2995 11.5842 46.8936 12.9208C47.6361 14.5545 47.9332 16.1881 48.0817 17.9703C48.0817 19.7525 47.7847 21.3861 47.1906 23.0198C46.5965 24.5049 45.7055 25.8416 44.6658 26.8812C43.4777 27.9208 42.1411 28.6634 40.6559 29.1089C37.8342 30 34.7154 29.8515 31.8936 28.8119C30.2599 28.2178 28.7748 27.3267 27.5866 25.9901C26.3985 24.6535 25.6559 23.0198 25.3589 21.2376C24.7649 18.8614 24.9134 16.4851 25.6559 14.1089C26.1015 12.3267 27.1411 10.6931 28.4777 9.50495C29.8144 8.31684 31.448 7.42574 33.2302 7.12871C33.9728 6.98019 35.1609 6.83168 36.2005 6.83168ZM96.646 15.5941H105.408C105.408 14.703 105.111 13.8119 104.517 13.0693C104.369 12.7723 104.072 12.4752 103.775 12.3267C103.329 11.8812 102.735 11.7327 102.141 11.5842C101.547 11.4356 100.953 11.4356 100.359 11.5842C99.3193 11.7327 98.4282 12.3267 97.8342 13.0693C97.0916 13.6634 96.646 14.5544 96.646 15.5941ZM111.943 19.604H96.4975C96.4975 19.901 96.4975 20.198 96.4975 20.6436C96.4975 21.2376 96.7946 21.9802 97.0916 22.5743C97.3886 23.3168 97.9827 23.9109 98.5767 24.3564C99.1708 24.802 100.062 25.099 100.804 25.099C101.547 25.099 102.29 25.099 102.884 24.9505C103.923 24.6535 104.963 24.0594 105.557 23.1683C105.854 22.7228 106.151 22.2772 106.448 21.8317C106.597 21.6832 106.597 21.5347 106.745 21.3861C108.379 22.1287 109.864 23.0198 111.498 23.7624L110.903 24.5049C110.161 25.6931 109.27 26.5842 108.082 27.4752C106.3 28.8119 104.369 29.5545 102.141 29.8515C100.359 30.1485 98.5767 30 96.7946 29.4059C95.1609 28.9604 93.6757 28.0693 92.4876 26.8812C91.2995 25.6931 90.4084 24.2079 90.1114 22.4257C89.2203 19.1584 89.5173 15.7426 90.854 12.7723C91.448 11.2871 92.4876 9.95049 93.8243 9.05941C95.1609 8.0198 96.646 7.42575 98.2797 7.27723C100.21 6.9802 102.141 6.9802 103.923 7.42574C105.408 7.87129 106.894 8.61386 108.082 9.65347C109.27 10.6931 110.161 12.0297 110.606 13.6634C111.052 15 111.349 16.3366 111.498 17.6733C111.498 18.2673 111.498 18.8614 111.646 19.3069C111.943 19.3069 111.943 19.4555 111.943 19.604ZM296.547 15.5941C297.141 15.7426 305.012 15.5941 305.309 15.5941C305.309 14.703 305.012 13.9604 304.567 13.2178C304.27 12.9208 303.973 12.6238 303.676 12.3267C303.082 11.8812 302.191 11.5842 301.448 11.5842C300.705 11.5842 299.814 11.7327 299.072 12.0297C298.329 12.3267 297.735 12.9208 297.29 13.5149C296.844 13.9604 296.696 14.8515 296.547 15.5941ZM296.547 19.604C296.399 20.3465 296.547 20.9406 296.696 21.5346C296.844 22.1287 297.29 22.7228 297.735 23.3168C298.181 23.7624 298.775 24.2079 299.369 24.5049C299.963 24.802 300.705 24.9505 301.3 24.9505C301.894 24.9505 302.488 24.9505 303.082 24.802C304.121 24.505 305.161 23.9109 305.755 23.0198C306.052 22.5743 306.349 21.9802 306.646 21.5346C306.795 21.3861 306.795 21.2376 306.795 21.0891L311.547 23.4653L311.25 23.9109C310.507 25.099 309.616 26.1386 308.577 27.0297C306.795 28.5149 304.715 29.4059 302.488 29.5545C300.705 29.8515 298.923 29.703 297.141 29.1089C295.507 28.6634 294.171 27.9208 292.983 26.7327C291.795 25.5445 290.903 24.2079 290.606 22.5743C289.567 19.1584 289.864 15.4455 291.349 12.1782C291.943 10.6931 292.983 9.50495 294.319 8.61386C295.656 7.72277 297.141 7.12871 298.626 6.83168C300.557 6.38614 302.636 6.53465 304.567 7.12871C306.052 7.57425 307.537 8.31684 308.725 9.50495C309.913 10.6931 310.656 12.0297 311.102 13.5149C311.547 14.8515 311.844 16.1881 311.844 17.5247C311.844 17.9703 311.844 18.5644 311.993 19.0099C311.993 19.1584 311.993 19.3069 311.993 19.4554L296.547 19.604ZM7.38861 29.1089H0.111386C-0.0371287 28.8119 -0.0371287 0.59406 0.111386 0H22.5371V5.49505C22.0916 5.49505 21.646 5.49505 21.2005 5.49505C20.755 5.49505 20.3094 5.49505 19.8639 5.49505H7.2401V11.5842C8.13119 11.5842 9.02228 11.5842 10.0619 11.5842C10.953 11.5842 11.8441 11.5842 12.8837 11.5842H21.2005V17.2277H7.2401L7.38861 29.1089ZM188.131 14.1089C188.28 14.1089 188.428 14.1089 188.428 14.1089C190.062 14.1089 191.547 14.1089 193.181 14.1089C193.923 14.1089 194.666 13.9604 195.408 13.9604C196.151 13.8119 196.894 13.5149 197.488 12.9208C198.082 12.3267 198.379 11.5842 198.527 10.8416C198.676 10.2475 198.676 9.50495 198.676 8.91089C198.676 8.16832 198.379 7.42574 197.785 6.83168C197.339 6.23762 196.597 5.79207 195.854 5.64356C195.111 5.49504 194.22 5.34653 193.478 5.34653C191.844 5.34653 190.359 5.34653 188.725 5.34653H188.28L188.131 14.1089ZM188.131 19.604V29.1089H180.854V0.148513C181.002 0.148513 181.151 0.148513 181.151 0.148513C185.606 0.148513 190.062 0.148513 194.517 0.148513C196.151 0.148513 197.636 0.297032 199.27 0.594062C201.052 0.891092 202.834 1.93069 204.022 3.41584C204.765 4.45544 205.359 5.49505 205.656 6.68317C206.25 8.61386 206.25 10.6931 205.656 12.7723C205.21 14.2574 204.468 15.7426 203.28 16.7822C202.092 17.9703 200.755 18.7129 199.121 19.0099C197.636 19.4554 196.002 19.604 194.369 19.604C192.438 19.604 190.656 19.604 188.725 19.604H188.131Z" fill="white"/>
</svg>
