<svg width="141" height="30" viewBox="0 0 141 30" fill="none" xmlns="http://www.w3.org/2000/svg">
<path d="M104.187 18.7996C104.187 12.0326 108.621 7.94916 114.454 7.94916C120.871 7.94916 125.072 12.8493 124.255 20.8997H111.071C111.071 21.483 111.188 22.183 111.421 22.7664C111.654 23.3498 112.121 23.8164 112.588 24.2831C113.054 24.7498 113.638 24.9831 114.221 25.2165C114.804 25.4498 115.504 25.4498 116.088 25.4498C117.955 25.3332 119.705 24.8665 121.221 23.8164L123.321 28.0166C120.755 29.3 117.955 30 115.038 30C108.271 29.8833 104.187 25.5665 104.187 18.7996ZM118.188 16.6995C118.188 14.2494 116.905 12.3827 114.688 12.3827C112.471 12.3827 111.188 14.3661 111.188 16.6995H118.188Z" fill="white"/>
<path d="M65.4525 29.1833V16.2328C65.4525 15.8828 65.4525 15.5328 65.3359 15.0661C65.2192 14.7161 64.9859 14.3661 64.7525 14.1327C64.5192 13.8994 64.1692 13.666 63.8191 13.5494C63.4691 13.4327 63.1191 13.4327 62.6524 13.4327C61.4857 13.5494 60.4357 14.1327 59.619 14.9494V29.1833H52.8521V8.53251H59.3856V11.0993C59.969 10.1659 60.7857 9.34921 61.7191 8.88252C62.6524 8.29917 63.7025 7.94916 64.8692 7.94916C65.8026 7.94916 66.8526 8.06583 67.6693 8.41584C68.6027 8.76586 69.4194 9.34921 70.1194 9.93256C70.8194 10.6326 71.2861 11.4493 71.6361 12.3827C71.9861 13.316 72.1028 14.2494 72.1028 15.1828V29.1833H65.4525Z" fill="white"/>
<path d="M101.854 0.248848H95.087V29.3H101.854V0.248848Z" fill="white"/>
<path d="M140.122 14.016C139.305 13.7827 138.489 13.666 137.672 13.666C136.855 13.666 136.039 13.8994 135.339 14.2494C134.639 14.5994 133.939 15.0661 133.472 15.7661V29.4166H126.705V8.76582H133.239V11.4493C133.822 10.3992 134.639 9.58252 135.689 8.99917C136.739 8.41581 137.905 8.18246 139.072 8.18246C139.772 8.18246 140.355 8.29914 140.939 8.41581L140.122 14.016Z" fill="white"/>
<path d="M30.2178 18.7996C30.2178 12.0326 34.6513 7.94916 40.4849 7.94916C46.9018 7.94916 51.102 12.8493 50.2853 20.8997H36.9848C36.9848 21.483 37.1014 22.183 37.3348 22.7664C37.5681 23.3498 38.0348 23.8164 38.5015 24.2831C38.9682 24.7498 39.5515 24.9831 40.1349 25.2165C40.7182 25.4498 41.4183 25.4498 42.0016 25.4498C43.8684 25.3332 45.6184 24.8665 47.1352 23.8164L49.3519 28.0166C46.7851 29.3 43.985 30 41.0683 30C34.1846 29.8833 30.2178 25.5665 30.2178 18.7996ZM44.1017 16.6995C44.1017 14.2494 42.8183 12.3827 40.6016 12.3827C38.2681 12.3827 37.1014 14.3661 37.1014 16.5828L44.1017 16.6995Z" fill="white"/>
<path d="M82.6032 29.8833C79.6864 30 76.8863 29.4166 74.2029 28.1333L76.1863 23.6997C77.9364 24.7498 79.8031 25.3331 81.7865 25.3331C84.1199 25.3331 85.17 24.5165 85.17 23.5831C85.17 22.6497 84.4699 22.183 82.3699 21.5997C77.8197 20.1996 75.2529 18.3329 75.2529 14.5994C75.2529 11.2159 77.9364 7.94914 83.5366 7.94914C86.4534 7.83247 89.2535 8.5325 91.9369 9.69921L90.0702 14.016C88.5534 13.0827 86.6867 12.4993 84.82 12.4993C82.9532 12.4993 82.1365 13.1993 82.1365 14.1327C82.1365 15.4161 83.1866 15.7661 85.4033 16.4661C91.0035 18.2162 92.4036 20.5496 92.4036 23.2331C92.4036 26.6165 89.3701 29.8833 82.6032 29.8833Z" fill="white"/>
<path d="M22.0509 26.2665C21.7008 26.7332 19.6008 29.65 14.1172 29.8833C6.18357 30.2333 0 24.1664 0 14.7161C0 5.2657 6.76693 -0.334518 14.8172 0.0154956C17.034 0.0154956 19.3674 0.598853 21.3508 1.64889C23.3342 2.69893 25.0843 4.21566 26.4844 5.96572L21.0008 9.46586C20.5341 8.64916 18.5507 5.49905 14.7006 5.49905C10.5004 5.49905 7.58363 9.23252 7.58363 14.9494C7.58363 20.0829 9.91705 24.7498 14.7006 24.7498C19.4841 24.7498 21.2342 20.433 21.3508 17.9829H14.7006V13.316H27.5344V29.0666H22.4009L22.0509 26.2665Z" fill="white"/>
</svg>
