<svg width="107" height="45" viewBox="0 0 107 45" fill="none" xmlns="http://www.w3.org/2000/svg">
<path d="M0.0889382 23.6561C2.40119 23.6561 4.62451 23.6561 6.93676 23.6561C8.00396 23.6561 9.07115 23.6561 10.1383 23.7451C10.8498 23.7451 11.3834 23.834 12.0059 24.0119C13.5178 24.3676 14.585 25.2569 15.1186 26.6798C16.0079 28.4585 15.83 30.3261 14.6739 32.0158C14.2292 32.7273 13.6067 33.1719 12.8953 33.4387C12.8063 33.4387 12.7174 33.5277 12.6285 33.6166C12.7174 33.6166 12.8063 33.7055 12.8953 33.7055C13.9625 33.9723 14.9407 34.5059 15.5632 35.3063C16.0968 36.0178 16.4526 36.8182 16.5415 37.7075C16.7194 39.1304 16.5415 40.4644 15.7411 41.7095C14.8518 43.2213 13.5178 44.1996 11.8281 44.4664C11.2945 44.5553 10.6719 44.6443 10.0494 44.6443H0.355733C0.2668 44.6443 0.0889328 44.6443 0 44.6443V23.5672H0.0889382V23.6561ZM2.84585 42.332H9.78261C10.1383 42.332 10.583 42.332 10.8498 42.2431C12.0949 41.9763 13.0731 41.2648 13.5178 40.0198C13.7846 39.2194 13.7846 38.419 13.6067 37.6186C13.4289 36.7292 12.8953 36.1957 12.1838 35.751C11.917 35.6621 11.7391 35.4842 11.3834 35.3953C10.6719 35.2174 10.0494 35.1285 9.33795 35.1285H2.93479C2.84585 35.1285 2.84586 35.1285 2.75692 35.1285C2.84586 37.5297 2.84585 39.9308 2.84585 42.332ZM2.84585 32.7273H8.44862C8.71542 32.7273 9.16009 32.7273 9.42688 32.7273C10.1383 32.6383 10.7609 32.5494 11.2945 32.2826C12.0949 31.9269 12.5395 31.3043 12.7174 30.5039C12.8953 29.7925 12.8953 29.081 12.7174 28.3696C12.5395 27.4802 11.917 26.9466 11.2055 26.5909C11.0277 26.502 10.8498 26.502 10.7609 26.413C10.0494 26.2352 9.42688 26.2352 8.71542 26.2352C6.93676 26.2352 4.98024 26.2352 3.20159 26.2352C3.11265 26.2352 3.02372 26.2352 2.93479 26.2352C2.84585 28.2806 2.84585 30.415 2.84585 32.7273ZM0.0889382 0.444664H2.84585C2.84585 1.42292 2.84585 2.49012 2.84585 3.37945V9.42688C3.11265 9.51581 13.1621 9.51581 13.8735 9.42688C13.8735 8.44862 13.8735 7.38143 13.8735 6.4921V0.444664C14.0514 0.355731 16.0968 0.355731 16.6304 0.444664C16.7194 0.62253 16.7194 21.0771 16.6304 21.4328H13.8735V11.917C13.6067 11.8281 3.46838 11.8281 2.84585 11.917C2.84585 12.7174 2.84585 13.5178 2.84585 14.3182V21.5217H0.0889382V0.444664ZM31.2154 45C31.1265 45 31.0376 44.9111 30.9486 44.9111C28.1917 44.3775 26.502 42.6878 25.6127 40.0198C24.9012 37.7964 25.0791 35.6621 25.8795 33.4387C26.8577 31.0375 28.6364 29.6146 31.2154 29.2589C32.6383 29.081 34.1502 29.17 35.4842 29.6146C37.3518 30.415 38.5968 31.749 39.3083 33.6166C39.8419 35.0395 40.0198 36.5514 39.8419 38.0632C39.753 39.2194 39.4862 40.2866 38.8636 41.2648C37.7964 43.1324 36.2846 44.2885 34.1502 44.7332C34.0613 44.7332 33.9723 44.8221 33.8834 44.8221H31.1265V45H31.2154ZM37.3518 37.085C37.3518 35.9289 37.1739 34.7727 36.6403 33.8834C35.6621 31.8379 33.6166 30.9486 31.4822 31.3933C30.0593 31.749 29.081 32.6383 28.5474 33.8834C28.1028 34.9506 27.836 36.0178 27.836 37.085C27.836 38.1522 28.0138 39.2194 28.5474 40.1087C29.5257 42.1541 31.5711 43.0435 33.7055 42.5988C35.1285 42.2431 36.1957 41.3538 36.7293 39.9308C37.2629 39.1304 37.3518 38.0632 37.3518 37.085ZM97.3814 0C97.6482 0.800395 97.915 1.51186 98.2708 2.31225C100.85 8.71541 103.34 15.1186 105.919 21.4328C105.919 21.5217 106.008 21.6107 106.097 21.6996V21.9664C105.741 21.9664 105.296 21.9664 105.03 21.9664H103.962C103.962 21.8775 103.874 21.7885 103.874 21.6996C101.028 14.585 98.2708 7.47036 95.4249 0.355733C95.4249 0.2668 95.336 0.177864 95.336 0.0889314H97.4704V0H97.3814ZM51.9368 29.5257C53.004 33.6166 54.0712 37.7964 55.0494 41.8874C55.0494 41.8874 55.0494 41.8874 55.1383 41.8874C55.4941 40.5534 55.9387 39.1304 56.2945 37.7964C56.6502 36.3735 57.0949 35.0395 57.4506 33.6166L58.6067 29.5257H61.1858C59.585 34.5949 57.9842 39.664 56.2945 44.6443H53.6265L50.6028 32.6383H50.5138C49.4466 36.6403 48.4684 40.6423 47.4901 44.6443H44.8221C43.2213 39.5751 41.6206 34.5059 39.9308 29.5257H42.6877C43.8439 33.6166 45 37.7075 46.1561 41.8874C46.2451 41.7984 46.2451 41.7095 46.334 41.6205L47.3123 37.7075C48.0237 35.0395 48.6463 32.4605 49.1798 29.7925C49.1798 29.7036 49.1798 29.6146 49.2688 29.5257H51.9368ZM43.1324 6.2253C44.1996 10.4051 45.2668 14.496 46.2451 18.587H46.334C47.4901 14.496 48.6462 10.4051 49.8024 6.2253C49.9802 6.13636 52.0257 6.13636 52.3814 6.2253C50.7806 11.2945 49.1798 16.3636 47.4901 21.3439H44.8221C43.7549 17.3419 42.6877 13.3399 41.7984 9.33794H41.7095C40.6423 13.3399 39.664 17.3419 38.6858 21.3439H35.9289C34.3281 16.2747 32.7273 11.2055 31.0376 6.2253H33.7945C34.9506 10.3162 36.1067 14.496 37.2628 18.587H37.3518C38.419 14.496 39.3972 10.4051 40.3755 6.2253C41.3538 6.2253 42.2431 6.2253 43.1324 6.2253ZM27.9249 19.4763C27.9249 19.5652 27.836 19.5652 27.836 19.6541C26.6798 20.8992 25.2569 21.5217 23.5672 21.7885C22.4111 21.8775 21.3439 21.8775 20.1878 21.5217C19.0316 21.166 18.1423 20.4545 17.7866 19.2984C17.3419 18.1423 17.4308 16.8972 17.7866 15.7411C18.0534 14.9407 18.6759 14.4071 19.2984 14.0514C20.0988 13.6067 20.8992 13.251 21.7885 13.1621C22.8557 12.9842 24.0119 12.8063 24.9901 12.6285C25.4348 12.5395 25.9684 12.4506 26.413 12.3617C26.5909 12.3617 26.7688 12.2727 26.9466 12.1838C27.4802 11.917 27.836 11.3834 27.836 10.7609C27.836 9.51581 27.1245 8.71542 26.0573 8.44862C25.3459 8.27075 24.7233 8.27075 24.0119 8.27075C23.5672 8.27075 22.9447 8.35968 22.5 8.53755C21.4328 8.89328 20.8992 9.60474 20.7213 10.7609C20.7213 10.8498 20.7213 11.0277 20.6324 11.1166H18.1423C18.1423 10.6719 18.2312 10.2273 18.3202 9.87154C18.6759 8.18182 19.832 7.11463 21.3439 6.4921C22.5 6.13637 23.6561 6.04743 24.9012 6.04743C25.7905 6.04743 26.502 6.13636 27.3913 6.31423C27.747 6.40316 28.1028 6.49209 28.4585 6.66996C29.6146 7.20356 30.1482 8.18182 30.3261 9.33794C30.3261 9.60474 30.415 10.0494 30.415 10.3162C30.415 13.0731 30.415 15.7411 30.415 18.498C30.415 18.6759 30.415 18.8538 30.504 19.2095C30.5929 19.4763 30.6818 19.6541 31.0376 19.6541C31.2154 19.6541 31.3933 19.6541 31.749 19.6541C31.838 19.6541 31.9269 19.6542 32.0158 19.5652C32.0158 19.6542 32.0158 19.6542 32.0158 19.7431V21.2549C32.0158 21.4328 31.9269 21.5217 31.8379 21.5217C31.0376 21.7885 30.3261 21.8775 29.4368 21.6996C28.7253 21.5217 28.3696 21.166 28.1917 20.4545C28.1028 20.1877 28.1028 20.0099 28.1028 19.6541C28.0138 19.6541 28.0138 19.5652 27.9249 19.4763ZM27.9249 13.6067C27.1245 14.0514 26.413 14.1403 25.6127 14.3182C24.7233 14.4071 24.0119 14.496 23.2115 14.6739C22.5 14.7628 21.9664 14.9407 21.4328 15.3854C20.9881 15.6522 20.5435 16.1858 20.4545 16.7194C20.1877 17.9644 20.5435 19.2095 22.0553 19.5652C22.9447 19.7431 23.6561 19.7431 24.5455 19.5652C25.4348 19.3874 26.1463 19.1206 26.8577 18.4091C27.5692 17.6976 27.9249 16.9862 27.9249 15.919C27.9249 15.2075 27.9249 14.585 27.9249 13.8735C27.9249 13.8735 27.9249 13.7846 27.9249 13.6067ZM55.6719 21.4328H53.1818V0.444664H55.6719C55.6719 0.889328 55.6719 1.33399 55.6719 1.77866V12.8063C55.8498 12.8063 55.8498 12.7174 55.9387 12.6285L61.5415 7.20356C61.8083 6.93676 62.0751 6.66996 62.4308 6.31423C62.5198 6.2253 62.6087 6.2253 62.6976 6.2253C63.6759 6.2253 64.7431 6.2253 65.6324 6.2253C65.6324 6.2253 65.7213 6.2253 65.8103 6.2253C63.7648 8.00395 61.8083 9.87155 59.7628 11.7391C61.9862 14.9407 64.0316 18.1423 66.2549 21.3439C66.0771 21.3439 66.0771 21.3439 65.9881 21.3439H63.4091C63.2312 21.3439 63.1423 21.2549 63.0534 21.166C61.4526 18.6759 59.8518 16.1858 58.1621 13.6957C58.0731 13.6067 58.0731 13.5178 57.9842 13.4289C57.8953 13.5178 57.8953 13.5178 57.8063 13.5178C57.0949 14.2293 56.4723 14.7628 55.7609 15.3854C55.6719 15.4743 55.583 15.6522 55.583 15.83V20.8992C55.6719 21.166 55.6719 21.2549 55.6719 21.4328ZM97.2036 10.583H94.7134C94.7134 10.4941 94.6245 10.4051 94.6245 10.2273C94.4467 9.33794 93.9131 8.80435 93.2905 8.44862C92.7569 8.18182 92.2233 8.09288 91.6008 8.09288C90.8004 8.09288 90.0889 8.09289 89.2886 8.35969C89.0218 8.44862 88.8439 8.53755 88.4881 8.71542C87.5988 9.24901 87.5988 10.4941 88.3992 11.2055C88.666 11.4723 88.9328 11.5613 89.3775 11.7391C90.1779 12.0059 90.8893 12.1838 91.7787 12.4506C92.8459 12.6285 93.9131 12.8953 94.8024 13.251C95.1581 13.3399 95.6028 13.5178 95.8696 13.6957C97.2925 14.585 97.915 15.83 97.7372 17.4308C97.5593 19.1206 96.67 20.2767 95.1581 20.9881C94.3577 21.3439 93.5573 21.5217 92.668 21.6996C91.4229 21.8775 90.0889 21.7885 88.8439 21.5217C88.3992 21.4328 87.8656 21.2549 87.421 21.0771C85.8202 20.2767 84.9308 18.9427 84.753 17.253C84.753 17.0751 84.753 16.8972 84.664 16.7194H87.1542C87.1542 16.8083 87.1542 16.8972 87.1542 16.8972C87.2431 17.8755 87.6878 18.587 88.666 19.1206C89.1107 19.3874 89.7332 19.4763 90.1779 19.5652C91.1561 19.6542 92.0455 19.6542 93.0237 19.3874C93.3795 19.2984 93.7352 19.1206 94.0909 18.9427C95.0692 18.2312 95.2471 16.6304 94.1799 15.919C93.7352 15.5632 93.2016 15.3854 92.668 15.2075C91.6897 14.9407 90.8004 14.7628 89.9111 14.4961C89.0218 14.2293 88.2213 14.1403 87.332 13.6957C86.8874 13.5178 86.3538 13.1621 85.998 12.7174C85.4644 12.1838 85.1087 11.4723 85.0198 10.583C84.9308 10.1383 85.0198 9.60475 85.1087 9.07115C85.3755 8.09289 85.9091 7.47036 86.7095 6.84783C87.5988 6.31423 88.3992 5.9585 89.3775 5.86956C90.8004 5.6917 92.2233 5.78063 93.6463 6.13636C94.6245 6.40316 95.336 6.93676 96.0474 7.64822C96.581 8.35968 96.8478 9.16008 96.9368 10.0494C97.1146 10.3162 97.1146 10.4051 97.2036 10.583ZM72.4802 44.6443V34.417C72.4802 33.9723 72.3913 33.4387 72.2134 32.9941C71.8577 32.1047 71.1463 31.5711 70.168 31.3933C69.1008 31.2154 68.0336 31.3044 67.1443 31.749C66.0771 32.2826 65.4545 33.1719 65.0988 34.3281C64.921 34.8617 64.921 35.4842 64.921 36.1067V44.5553H62.4308V29.4368H64.832V31.8379C64.832 31.8379 64.832 31.8379 64.921 31.8379L65.0099 31.749C66.0771 30.0593 67.5889 29.2589 69.5455 29.17C70.2569 29.17 70.8795 29.17 71.5909 29.3478C73.3696 29.7036 74.5257 30.8597 74.9704 32.7273C75.1482 33.4387 75.1482 34.0613 75.1482 34.7727V44.5553C75.1482 44.6443 75.1482 44.7332 75.1482 44.9111C74.081 44.6443 73.2806 44.6443 72.4802 44.6443ZM73.8142 21.4328H71.3241V6.31423H73.6364V8.71542C73.8142 8.62648 73.8142 8.53755 73.8142 8.44862C74.6146 7.20356 75.5929 6.40316 77.0158 6.13636C77.9051 5.9585 78.6166 5.9585 79.5059 6.04743C79.8617 6.04743 80.2174 6.13636 80.5731 6.2253C82.1739 6.58103 83.1522 7.64822 83.5968 9.24901C83.7747 10.0494 83.8636 10.6719 83.8636 11.4723V21.2549C83.8636 21.3439 83.8636 21.3439 83.8636 21.4328C83.6858 21.5217 81.7293 21.5217 81.3735 21.4328V11.2055C81.3735 10.7609 81.2846 10.2273 81.1067 9.78261C80.751 8.80435 79.9506 8.27075 78.8834 8.09288C77.9051 7.91502 77.0158 8.09289 76.1265 8.44862C74.8814 8.98221 74.2589 9.96047 73.9032 11.2055C73.8142 11.7391 73.7253 12.3617 73.7253 12.8953V20.8992C73.8142 21.166 73.8142 21.2549 73.8142 21.4328ZM20.3656 44.6443H17.8755V29.5257H20.1878C20.1878 29.8814 20.1878 30.2372 20.1878 30.5929V32.7273C20.2767 32.6383 20.3656 32.5494 20.3656 32.4605C20.7213 31.749 21.166 31.2154 21.6107 30.6818C22.5 29.7925 23.3893 29.4368 24.5455 29.2589C24.9012 29.2589 25.3459 29.17 25.7016 29.17V31.8379C25.3459 31.8379 24.9901 31.8379 24.7233 31.9269C23.9229 32.0158 23.3004 32.1937 22.5889 32.4605C21.5217 32.9941 20.9881 33.8834 20.5435 35.0395C20.2767 35.9289 20.1878 36.8182 20.1878 37.7964V44.7332H20.3656V44.6443ZM67.3221 6.2253H69.8123C69.9012 6.40316 69.9012 20.8992 69.8123 21.3439H67.3221V6.2253ZM69.8123 0.533595V3.55731H67.3221V0.622534C67.5 0.444668 69.2787 0.444663 69.8123 0.533595Z" fill="white"/>
</svg>
