<svg width="360" height="30" viewBox="0 0 360 30" fill="none" xmlns="http://www.w3.org/2000/svg">
<path fill-rule="evenodd" clip-rule="evenodd" d="M10.5556 14.5556H23.7778V5.33334C23.7778 1.55556 21.3333 1.11111 19 1.11111V0.333337H34.3333V1.11111H33.5556C30.4444 1.11111 29 2.33334 29 5.33334V24.5556C29 27.4445 30.5556 28.7778 33.5556 28.7778H34.3333V29.5556H19V28.8889C21.4444 28.8889 24 28.5556 24 24.6667V15.3333H10.6667V24.6667C10.6667 28.5556 13.3333 28.8889 15.6667 28.8889V29.6667H0V28.8889H0.88889C4 28.8889 5.55556 27.6667 5.55556 24.6667V5.44445C5.55556 2.55556 4 1.22222 0.88889 1.22222H0V0.444446H15.4444V1.22222C13.2222 1.22222 10.4444 1.33334 10.4444 5.44445V14.5556H10.5556ZM51.7778 25.6667C49.5556 28.6667 47.1111 30 44 30C38.7778 30 35.4444 25.2222 35.4444 20.6667C35.4444 15.5556 39.2222 11 44.4444 11C48.3333 11 51.6667 14.3333 52 18.6667H39.4444V21.1111C39.4444 26.3333 42 28.8889 45.1111 28.8889C47.6667 28.8889 49.6667 27.5556 51.2222 25.3333L51.7778 25.6667ZM47.6667 18.2222C48.1111 17.4444 48.2222 16.5556 48.2222 15.6667C48.2222 13.1111 46.1111 11.8889 44.3333 11.8889C41.7778 11.8889 39.3333 13.8889 39.2222 18.2222H47.6667ZM67 16.2222C67 13.3333 66.2222 11.8889 62.8889 11.8889C60.4444 11.8889 59.1111 12.6667 59.1111 13.6667C59.1111 14.8889 60.4444 15 60.4444 16.3333C60.4444 17.5556 59.4444 18.4444 58.3333 18.4444C57 18.4444 55.8889 17.2222 56.1111 15.8889C56.1111 13.8889 58.1111 11.1111 63.8889 11.1111C66.4444 11.1111 70.5556 12.1111 70.5556 16.6667V25.6667C70.5556 27 70.6667 28.3333 72.1111 28.3333C72.8889 28.3333 73.7778 27.4444 73.7778 24.8889V23.8889H74.5556V24.8889C74.5556 29.2222 71.8889 29.6667 70.6667 29.6667C68.8889 29.6667 67.5556 28.6667 67.3333 26.2222C66 28.2222 63.8889 29.6667 60.2222 29.6667C57.1111 29.6667 55.1111 27.6667 55.1111 25.5556C55.1111 24.5556 55.6667 23.3333 56.4444 22.6667C59 20.2222 62.5556 20.4444 67.1111 18.5556L67 16.2222ZM67 19.5556C64 20.7778 61.7778 20.5556 60.1111 22.2222C59.3333 23 58.8889 24.2222 58.8889 25.5556C58.8889 27.2222 59.6667 28.6667 61.5556 28.6667C63.5556 28.6667 66.7778 26.6667 66.7778 23.6667V19.4444H67V19.5556ZM75.2222 11.3333H79V4.55555L82.4444 3.22222V11.3333H88.7778V12.5556H82.4444V24C82.3333 26.8889 83.4444 28.6667 85.3333 28.6667C87.8889 28.6667 89.2222 25.7778 89.2222 23.2222H90V23.7778C90 27.2222 87.5556 29.7778 84.3333 29.7778C82.3333 29.7778 78.8889 28.7778 79.1111 24.1111V12.5556H75.3333V11.3333H75.2222ZM95.1111 4.22223C95.1111 2.44445 93.8889 1.33333 92.1111 1.33333V0.555556C94.2222 0.555556 96.4444 0.444443 98.5556 0.111109V15.3333C99.8889 12.6667 101.667 11 104.667 11C106.333 11 108 11.5556 109.222 12.7778C110.778 14.3333 111 15.7778 111 17.8889V27.1111C111 28.4444 111.444 28.7778 112.556 28.7778H113.889V29.5556H104.444V28.7778H106.111C107.111 28.7778 107.667 28.4444 107.667 27.1111V17.3333C107.667 14.2222 106.778 11.7778 103.778 11.7778C102 11.7778 98.5556 13.5556 98.5556 21.1111V27C98.5556 28.3333 99 28.6667 100.111 28.6667H101.667V29.4444H92.2222V28.6667H93.8889C94.8889 28.6667 95.4445 28.3333 95.4445 27C95.1111 26.8889 95.1111 4.22223 95.1111 4.22223ZM132.333 25.6667C130.111 28.6667 127.667 30 124.556 30C119.333 30 116 25.2222 116 20.6667C116 15.5556 119.778 11 125 11C128.889 11 132.222 14.3333 132.556 18.6667H120.111V21.1111C120.111 26.3333 122.667 28.8889 125.778 28.8889C128.333 28.8889 130.333 27.5556 131.889 25.3333L132.333 25.6667ZM128.333 18.2222C128.778 17.4444 128.889 16.5556 128.889 15.6667C128.889 13.1111 126.778 11.8889 125 11.8889C122.444 11.8889 120 13.8889 119.889 18.2222H128.333ZM141.889 15.4444C142.778 12.8889 144.556 10.8889 146.889 10.8889C148.556 10.8889 150.222 12.2222 150.222 14C150.222 15.3333 149.444 16.5556 148 16.5556C146.667 16.5556 146.222 15.3333 146.222 14.5556C146.222 14.2222 146.333 13.6667 146.333 13C146.333 12.5556 146.222 12 145.444 12C143.778 12 141.889 15.4444 141.889 20.4444V27.1111C141.889 28.4444 142.333 28.7778 143.444 28.7778H146V29.5556H135.111V28.8889H136.889C137.889 28.8889 138.444 28.5556 138.444 27.2222V16.1111C138.444 12.2222 136.889 12.2222 134.889 12.2222V11.4444L142 11.1111L141.889 15.4444ZM155.222 14.3333C154.667 13 154 12.1111 152.556 12.1111H152V11.3333H161.333V12.1111H160.556C159.556 12.1111 158.889 12.4444 158.889 13.3333C158.889 13.7778 159 14.2222 159.222 14.6667L163.111 24.8889L166.667 15.4444C165.667 12.3333 165.444 12.1111 163.667 12.1111V11.3333H172.222V12.1111C170.667 12.1111 169.778 12.4444 169.778 13.4444C169.778 14 169.889 14.4444 170.111 15L173.889 24.7778L176.778 17C177.111 16.2222 177.222 15.3333 177.222 14.5556C177.222 12 175.667 12 175 12V11.1111H181.889V11.8889H181.444C180.222 11.8889 178.778 13.6667 177.889 16.1111L172.889 30H172.444L167.333 16.4444L162.222 30H161.667L155.222 14.3333ZM190.111 11V27.2222C190.111 28.5556 190.556 28.8889 191.667 28.8889H193V29.6667H183.667V28.8889H185.222C186.222 28.8889 186.778 28.5556 186.778 27.2222V14.4444C186.778 12 185.111 12 183.444 12V11.2222L190.111 11ZM190.222 2.22222C190.222 3.44444 189.333 4.33334 188.111 4.33334C186.889 4.33334 186 3.44444 186 2.22222C186 1 186.889 0.111109 188.111 0.111109C189.333 0.111109 190.222 1.22222 190.222 2.22222ZM211.889 25.1111C211.111 26.7778 209.222 29.8889 204.333 29.8889C197.556 29.8889 195.333 24.2222 195.333 20.5556C195.222 15.3333 199.444 10.8889 204.667 10.8889H204.778C209 10.8889 211.556 13.4444 211.556 16C211.556 18 210.333 18.8889 209 18.8889C207.778 18.8889 207 18 207 16.6667C207 14.6667 208.667 14.4444 208.667 13.5556C208.667 12.2222 206.667 11.5556 205.556 11.5556C203.556 11.5556 199.444 12.7778 199.444 20.5556C199.444 26.8889 202.556 29 205.333 29C207.556 29 210.111 27.4444 211.333 24.6667L211.889 25.1111ZM217.333 3.44444C217.333 1.44444 216.333 1.22222 214.333 1.22222H213.778V0.444446C216.222 0.444446 218.444 0.333333 220.889 0V20.8889L227.556 15.4444C228.111 15 228.889 14.2222 228.889 13.4444C228.889 11.8889 227.556 11.8889 226.333 11.8889H225.111V11.1111H235.222V11.8889H234.444C233.444 11.8889 232 12.6667 229.778 14.4444L225.444 18.2222L233.111 27.1111C234.111 28.3333 234.444 28.6667 235.556 28.6667H236.778V29.4444H226.556V28.6667H228.222C228.778 28.6667 229.111 28.5556 229.111 28.2222C229.111 27.8889 229 27.4445 228.667 27.3333L222.778 20.5556L221 22.1111V27.2222C221 28.5556 221.444 28.8889 222.556 28.8889H223.889V29.6667H214.444V28.8889H216.111C217.111 28.8889 217.667 28.5556 217.667 27.2222L217.333 3.44444ZM249.111 23.3333C250.111 27.6667 252.889 29.2222 255.444 29.2222C258.111 29.2222 259.222 27.5556 259.222 26.1111C259.222 23.2222 255.667 22.5556 254.111 21.8889C252.111 21.1111 248.556 19.7778 248.556 16.2222C248.556 13.6667 250.556 11.1111 254.111 11.1111C256.333 11.1111 257.444 11.6667 259.111 13.2222C259.556 12.7778 259.889 11.6667 260.111 11.2222H260.556L260.667 16.8889H260.222C258.889 13.4444 257.111 11.7778 254.333 11.7778C252.667 11.7778 250.889 12.7778 250.889 14.6667C250.889 17.6667 255.222 18.5556 257.222 19.3333C259.667 20.3333 262 21.7778 262 24.8889C262 27.3333 260.222 30 255.667 30C253.556 30 251.556 29.2222 250.222 27.5556L249.333 30H248.778L248.444 23.3333H249.111ZM264.222 11.3333H268V4.55555L271.444 3.22222V11.3333H277.778V12.5556H271.444V24C271.333 26.8889 272.444 28.6667 274.333 28.6667C276.889 28.6667 278.222 25.7778 278.222 23.2222H279V23.7778C279 27.2222 276.556 29.7778 273.333 29.7778C271.333 29.7778 267.889 28.7778 268.111 24.1111V12.5556H264.333V11.3333H264.222ZM296.889 25.1111C295.222 28.4445 293.111 29.7778 289.778 29.7778C287.778 29.7778 284.333 29 284.333 24.3333V14.5556C284.333 12.1111 283 12.1111 281 12.1111V11.2222L287.778 10.8889V24C287.778 26.4445 288.222 28.7778 290.889 28.7778C293.556 28.7778 296.889 25.8889 296.889 19.7778V14.2222C296.889 11.7778 295.556 11.7778 293.444 11.7778V11.1111L300.222 10.7778V26.8889C300.222 28.2222 300.667 28.5556 301.778 28.5556H303.444V29.3333H296.778V25.1111H296.889ZM320.222 4.22223C320.222 2.44445 319 1.33333 317.222 1.33333H315.889V0.555556C318.111 0.555556 321.111 0.444443 323.556 0.111109V23.6667C323.556 28 324.444 28.6667 326 28.6667H327V29.4444L320.222 29.7778V26C318.222 29 316.333 29.8889 313.556 29.8889C309 29.8889 305.333 25.6667 305.333 20.6667C305.333 15 309.444 10.8889 314 10.8889C316.889 10.8889 319 12.5556 320.111 13.5556L320.222 4.22223ZM309.333 20.4444C309.333 28.1111 312.333 29.3333 314.333 29.3333C315.222 29.3333 316.556 29.2222 317.889 27.6667C319.222 26.3333 320 24.2222 320 20C320 13.6667 316.889 11.8889 314.333 11.8889C310.667 11.8889 309.333 15.8889 309.333 20.4444ZM335.667 11V27.2222C335.667 28.5556 336.111 28.8889 337.222 28.8889H338.556V29.6667H329.222V28.8889H330.778C331.778 28.8889 332.333 28.5556 332.333 27.2222V14.4444C332.333 12 330.667 12 329 12V11.2222L335.667 11ZM335.778 2.44444C335.778 3.66666 334.889 4.55555 333.667 4.55555C332.444 4.55555 331.556 3.66666 331.556 2.44444C331.556 1.22222 332.444 0.333337 333.667 0.333337C334.889 0.333337 335.778 1.22222 335.778 2.44444ZM359.889 20.5556C359.889 25.7778 355.667 30 350.444 30C345.222 30 341 25.7778 341 20.5556C341 15.3333 345.222 11.1111 350.444 11.1111C355.667 11.1111 359.889 15.3333 359.889 20.5556ZM345 20.1111C345 26.8889 346.778 29.1111 350.444 29.1111C355.222 29.1111 356 24.8889 356 20.2222C356 12.5556 352.889 11.6667 350.444 11.6667C346 11.7778 345 15.3333 345 20.1111Z" fill="white"/>
</svg>
