<svg width="100" height="30" viewBox="0 0 100 30" fill="none" xmlns="http://www.w3.org/2000/svg">
<path d="M82.6531 21.7347C81.7347 26.7347 78.1633 28.9796 73.6735 28.9796C68.5714 28.9796 63.6735 24.7959 63.6735 19.1837C63.6735 13.2653 67.6531 7.85714 73.5714 7.85714C78.6735 7.85714 82.6531 11.3265 82.6531 16.8367H68.3673V18.8776C68.3673 23.8776 68.9796 27.9592 74.4898 27.9592C77.6531 27.9592 80.9184 25.4082 81.5306 21.7347H82.6531ZM78.0612 15.5102V13.7755C78.0612 10.102 76.0204 8.97959 73.4694 8.97959C70.4082 8.97959 69.0816 11.8367 68.9796 12.1429C68.6735 13.0612 68.4694 14.1837 68.4694 15.5102H78.0612Z" fill="white"/>
<path d="M19.7959 13.0612V1.22449H16.4286V0H27.1429V1.22449H23.8776V27.2449H27.1429V28.4694H16.4286V27.2449H19.7959V14.3878H7.44898V27.2449H10.8163V28.4694H0V27.2449H3.36735V1.22449H0V0H10.8163V1.22449H7.44898V13.0612H19.7959Z" fill="white"/>
<path d="M29.0816 28.4694V27.2449H31.9388V9.69388H29.0816V8.46939H30.2041C32.1429 8.46939 33.9796 8.36735 35.8163 7.95919V27.2449H38.5714V28.3673L29.0816 28.4694Z" fill="white"/>
<path d="M43.4694 9.69388H40.6122V8.46939H41.7347C42.6531 8.46939 43.6735 8.46938 44.5918 8.36734C45.5102 8.2653 46.5306 8.16326 47.449 7.85714V13.2653H47.551C48.9796 10.102 50.9184 7.85714 54.6939 7.85714C56.4286 7.85714 60.7143 8.36735 60.7143 12.8571V27.1429H63.4694V28.2653H54.1837V27.0408H56.8367V13.3673C56.8367 9.69388 55.6122 9.08163 53.6735 9.08163C50.3061 9.08163 47.551 13.7755 47.551 17.6531V27.0408H50.3061V28.2653H40.9184V27.0408H43.7755V9.4898L43.4694 9.69388Z" fill="white"/>
<path d="M98.1633 8.46939V14.0816H97.0408C96.3265 11.1225 94.4898 9.08164 91.5306 8.97959C87.3469 8.87755 86.7347 12.0408 86.7347 12.6531C86.7347 14.1837 87.2449 14.7959 94.7959 16.3265C98.7755 17.0408 100 18.9796 100 22.1429C100 26.5306 96.7347 29.1837 92.7551 29.1837C90.7143 29.1837 88.3673 28.3674 86.9388 26.6327L85.8163 28.3673H84.6939V21.7347H85.9184C86.8367 25.4082 89.2857 28.0612 93.1633 28.0612C95.4082 28.0612 98.0612 26.3265 98.0612 23.6735C98.0612 21.7347 95.2041 20.8163 91.0204 19.6939C87.6531 18.9796 84.7959 18.4694 84.7959 14.0816C84.7959 12.0408 86.1225 7.85714 91.6327 7.85714C93.1633 7.85714 94.7959 8.46939 96.3265 9.79592L97.2449 8.46939C97.551 8.46939 98.1633 8.46939 98.1633 8.46939Z" fill="white"/>
<path d="M31.8367 0H35.8163V3.77551H31.8367V0Z" fill="white"/>
</svg>
