<svg width="100" height="43" viewBox="0 0 100 43" fill="none" xmlns="http://www.w3.org/2000/svg">
<path fill-rule="evenodd" clip-rule="evenodd" d="M98.7116 40.2379V39.9405H98.9098C99.0089 39.9405 99.108 39.9405 99.108 40.0396C99.108 40.2379 99.0089 40.2379 98.8107 40.2379H98.7116ZM99.2071 40.9316H99.4053L99.108 40.4361C99.3062 40.4361 99.4053 40.337 99.4053 40.1388C99.4053 39.9405 99.3062 39.8414 99.0089 39.8414H98.6125V40.9316H98.8107V40.4361H99.0089L99.2071 40.9316ZM99.0089 41.1298C98.6125 41.1298 98.3152 40.8325 98.3152 40.337C98.3152 39.9405 98.6125 39.5441 99.0089 39.5441C99.4053 39.5441 99.7027 39.8414 99.7027 40.337C99.7027 40.7334 99.4053 41.1298 99.0089 41.1298ZM98.0178 40.337C98.0178 40.4361 98.0178 40.6343 98.1169 40.7334C98.2161 40.8325 98.2161 40.9316 98.3152 41.0307C98.4143 41.1298 98.5134 41.2289 98.6125 41.2289C98.7116 41.2289 98.8107 41.328 99.0089 41.328C99.108 41.328 99.3062 41.328 99.4053 41.2289C99.5044 41.2289 99.6036 41.1298 99.7027 41.0307C99.8018 40.9316 99.9009 40.8325 99.9009 40.7334C99.9009 40.6343 100 40.5352 100 40.337C100 40.1387 99.9009 39.8414 99.7027 39.6432C99.5044 39.445 99.3062 39.3459 99.0089 39.3459C98.8107 39.3459 98.5134 39.445 98.3152 39.6432C98.1169 39.8414 98.0178 40.1387 98.0178 40.337ZM77.4034 31.8137C77.4034 31.6155 77.3043 31.5163 77.2051 31.4172L76.6105 31.0208L76.4123 30.9217C76.4123 30.9217 76.4123 30.8226 76.5114 30.8226H79.2864C79.4846 30.8226 79.4846 30.9217 79.5837 31.0208L81.9623 37.6611V31.8137C81.9623 31.6155 81.9623 31.5163 81.7641 31.4172L81.1695 31.0208L80.9713 30.9217C80.9713 30.9217 80.9712 30.8226 81.0704 30.8226H83.5481C83.6472 30.8226 83.6472 30.8226 83.6472 30.9217C83.6472 31.0208 83.5481 31.0208 83.449 31.0208L82.8543 31.4172C82.7552 31.5163 82.6561 31.6155 82.6561 31.8137V40.6343C82.6561 40.7334 82.557 40.7334 82.4579 40.7334H81.665C81.5659 40.7334 81.4668 40.7334 81.3677 40.6343C81.2686 40.5352 81.2686 40.5352 81.1695 40.4361L78.1962 32.2101V39.7423C78.1962 39.9405 78.2953 40.0396 78.3944 40.1388L78.9891 40.5352C79.0882 40.5352 79.1873 40.6343 79.1873 40.6343C79.1873 40.6343 79.1873 40.7334 79.0882 40.7334H76.6105C76.5114 40.7334 76.5114 40.7334 76.5114 40.6343C76.5114 40.5352 76.6105 40.5352 76.7096 40.5352L77.3043 40.1388C77.4034 40.0396 77.5025 39.9405 77.5025 39.7423V31.8137H77.4034ZM87.0168 34.9851H87.5124C87.6115 34.9851 87.7106 34.9851 87.7106 34.886L88.5035 33.7958C88.5035 33.6967 88.6026 33.6967 88.6026 33.6967C88.7017 33.6967 88.7017 33.6967 88.7017 33.7958V36.9673C88.7017 36.9673 88.7017 37.0664 88.6026 37.0664C88.5035 37.0664 88.5035 37.0664 88.4044 36.9673L87.6115 35.778C87.6115 35.6789 87.5124 35.6789 87.4133 35.6789H86.9177V40.0396H88.2061C88.5035 40.0396 88.7017 39.9405 88.8008 39.8414L89.9901 37.2646C89.9901 37.1655 90.0892 37.1655 90.1883 37.1655C90.2874 37.1655 90.2874 37.1655 90.2874 37.2646V40.6343C90.2874 40.7334 90.1883 40.7334 90.0892 40.7334H84.3409C84.2418 40.7334 84.2418 40.7334 84.2418 40.6343C84.2418 40.6343 84.3409 40.5352 84.44 40.5352L85.1338 40.1388C85.332 40.0396 85.332 39.9405 85.332 39.7423V31.7146C85.332 31.5164 85.332 31.4172 85.1338 31.3181L84.44 30.9217L84.2418 30.8226C84.2418 30.8226 84.2418 30.7235 84.3409 30.7235H89.891C89.9901 30.7235 90.0892 30.8226 90.0892 30.8226V33.6967C90.0892 33.7958 90.0892 33.7958 89.9901 33.7958C89.891 33.7958 89.7919 33.7958 89.7919 33.6967L88.6026 31.6155C88.5035 31.4172 88.3052 31.3181 88.0079 31.3181H87.0168V34.9851ZM58.9693 34.9851V31.7146C58.9693 31.5164 58.9693 31.4172 58.771 31.3181L58.0773 30.9217L57.8791 30.8226C57.8791 30.8226 57.8791 30.7235 57.9782 30.7235H61.447C61.5461 30.7235 61.5461 30.7235 61.5461 30.8226C61.5461 30.8226 61.447 30.9217 61.3479 30.9217L60.6541 31.3181C60.4559 31.4172 60.4559 31.5164 60.4559 31.7146V39.7423C60.4559 39.9405 60.4559 40.0396 60.6541 40.1388L61.3479 40.5352L61.5461 40.6343C61.5461 40.6343 61.5461 40.7334 61.447 40.7334H57.9782C57.8791 40.7334 57.8791 40.7334 57.8791 40.6343C57.8791 40.6343 57.9782 40.5352 58.0773 40.5352L58.771 40.1388C58.9693 40.0396 58.9693 39.9405 58.9693 39.7423V35.6789H56.6898V39.7423C56.6898 39.9405 56.6898 40.0396 56.888 40.1388L57.5818 40.5352L57.78 40.6343C57.78 40.6343 57.78 40.7334 57.6809 40.7334H54.2121C54.113 40.7334 54.113 40.7334 54.113 40.6343C54.113 40.6343 54.2121 40.5352 54.3112 40.5352L55.005 40.1388C55.2032 40.0396 55.2032 39.9405 55.2032 39.7423V31.7146C55.2032 31.5164 55.2032 31.4172 55.005 31.3181L54.3112 30.9217L54.113 30.8226C54.113 30.8226 54.113 30.7235 54.2121 30.7235H57.6809C57.78 30.7235 57.78 30.7235 57.78 30.8226C57.78 30.8226 57.6809 30.9217 57.5818 30.9217L56.888 31.3181C56.6898 31.4172 56.6898 31.5164 56.6898 31.7146V34.9851H58.9693ZM92.3687 31.8137C92.3687 31.6155 92.3687 31.5163 92.1705 31.4172L91.4767 31.0208L91.2785 30.9217C91.2785 30.9217 91.2785 30.8226 91.3776 30.8226H94.8464C94.9455 30.8226 94.9455 30.8226 94.9455 30.9217C94.9455 30.9217 94.8464 31.0208 94.7473 31.0208L94.0535 31.4172C93.8553 31.5163 93.8553 31.6155 93.8553 31.8137V40.1388H94.7473C95.0446 40.1388 95.2428 40.1388 95.3419 39.9405L96.7294 37.3637C96.7294 37.2646 96.7294 37.2646 96.8285 37.2646C96.9276 37.2646 96.9276 37.2646 96.9276 37.3637V40.6343C96.9276 40.7334 96.8285 40.8325 96.7294 40.8325H91.2785C91.1794 40.8325 91.1794 40.8325 91.1794 40.7334C91.1794 40.7334 91.2785 40.6343 91.3776 40.6343L92.0714 40.2379C92.2696 40.1387 92.2696 40.0396 92.2696 39.8414L92.3687 31.8137ZM65.5104 37.7601C65.6095 37.7601 65.6095 37.661 65.5104 37.7601L64.7175 33.5976L63.8256 37.6611C63.8256 37.7602 63.8256 37.7601 63.9247 37.7601H65.5104ZM65.8077 38.553C65.8077 38.4539 65.7086 38.4539 65.6095 38.4539H63.7264H63.6273C63.6273 38.4539 63.6273 38.4539 63.5282 38.553L63.2309 40.0396C63.2309 40.1387 63.2309 40.2379 63.33 40.2379L63.8256 40.5352C63.9247 40.6343 64.0238 40.6343 64.0238 40.7334C64.0238 40.7334 64.0238 40.8325 63.8256 40.8325H61.5461C61.447 40.8325 61.447 40.8325 61.447 40.7334C61.447 40.7334 61.5461 40.6343 61.6452 40.6343L62.2398 40.2379C62.3389 40.1387 62.4381 40.0396 62.4381 39.9405L64.5193 31.0208C64.5193 30.9217 64.6184 30.9217 64.7175 30.9217H65.5104C65.6095 30.9217 65.7086 31.0208 65.7086 31.0208L67.7899 39.9405C67.7899 40.0396 67.889 40.2379 67.9881 40.337L68.6818 40.6343C68.781 40.6343 68.781 40.7334 68.781 40.7334C68.781 40.7334 68.781 40.8325 68.5828 40.8325H65.4113C65.3122 40.8325 65.2131 40.8325 65.2131 40.7334C65.2131 40.7334 65.3122 40.6343 65.4113 40.6343L66.0059 40.2379C66.105 40.1387 66.1051 40.1388 66.1051 39.9405L65.8077 38.553ZM68.9792 16.8484H68.1863C68.0872 16.8484 68.0872 16.8484 68.0872 16.8484L67.9881 16.9475L66.7988 19.6234C66.7988 19.7225 66.6997 19.7225 66.6006 19.7225C66.5015 19.7225 66.5015 19.7225 66.5015 19.6234V16.2537C66.5015 16.2537 66.5015 16.1546 66.6006 16.1546H73.1417C73.2408 16.1546 73.2408 16.1546 73.2408 16.2537V19.6234C73.2408 19.7225 73.2408 19.7225 73.1417 19.7225C73.0426 19.7225 72.9435 19.7225 72.9435 19.6234L71.7542 17.0466C71.7542 16.9475 71.6551 16.9475 71.556 16.9475H70.7631V25.2725C70.7631 25.4708 70.7631 25.5699 70.9613 25.669L71.6551 26.0654C71.7542 26.0654 71.8533 26.1645 71.8533 26.1645C71.8533 26.1645 71.8533 26.2636 71.7542 26.2636H68.2854C68.1863 26.2636 68.1863 26.2636 68.1863 26.1645C68.1863 26.1645 68.2854 26.0654 68.3845 26.0654L69.0783 25.669C69.2765 25.5699 69.2765 25.4708 69.2765 25.2725L68.9792 16.8484ZM57.1853 17.2448C57.1853 17.0466 57.1853 16.9475 56.9871 16.8484L56.2933 16.4519L56.0951 16.3528C56.0951 16.3528 56.0951 16.2537 56.1942 16.2537H59.663C59.7621 16.2537 59.7621 16.2537 59.7621 16.3528C59.7621 16.3528 59.663 16.4519 59.5639 16.4519L58.8702 16.8484C58.6719 16.9475 58.6719 17.0466 58.6719 17.2448V25.2725C58.6719 25.4708 58.6719 25.5699 58.8702 25.669L59.5639 26.0654L59.7621 26.1645C59.7621 26.1645 59.7621 26.2636 59.663 26.2636H56.1942C56.0951 26.2636 56.0951 26.2636 56.0951 26.1645C56.0951 26.1645 56.1942 26.0654 56.2933 26.0654L56.9871 25.669C57.1853 25.5699 57.1853 25.4708 57.1853 25.2725V17.2448ZM50.0495 1.38751H49.1576C49.0585 1.38751 49.0585 1.38751 48.9594 1.38751L48.8603 1.48662L47.5718 4.45986C47.5718 4.55897 47.4727 4.55897 47.3736 4.55897C47.2745 4.55897 47.2745 4.55897 47.2745 4.45986V0.693753L47.3736 0.594646H54.7076C54.8067 0.594646 54.8067 0.594645 54.8067 0.693753V4.45986C54.8067 4.55897 54.8067 4.55897 54.7076 4.55897C54.6085 4.55897 54.5094 4.55897 54.5094 4.45986L53.221 1.48662C53.221 1.38751 53.1219 1.38751 53.1219 1.38751C53.1219 1.38751 53.0228 1.38751 52.9237 1.38751H52.0317V10.7037C52.0317 10.9019 52.0317 11.001 52.2299 11.1001L53.0228 11.4965C53.1219 11.4965 53.221 11.5956 53.221 11.5956C53.221 11.5956 53.221 11.6947 53.0228 11.6947H49.1576C49.0585 11.6947 48.9594 11.6947 48.9594 11.5956C48.9594 11.5956 49.0585 11.4965 49.1576 11.4965L49.9504 11.1001C50.1487 11.001 50.1487 10.9019 50.1487 10.7037V1.38751H50.0495ZM69.5738 31.8137C69.5738 31.6155 69.4747 31.5163 69.3756 31.4172L68.781 31.0208L68.5828 30.9217C68.5828 30.9217 68.5827 30.8226 68.6818 30.8226H71.4569C71.6551 30.8226 71.6551 30.9217 71.7542 31.0208L74.1328 37.6611V31.8137C74.1328 31.6155 74.1328 31.5163 73.9346 31.4172L73.3399 31.0208L73.1417 30.9217C73.1417 30.9217 73.1417 30.8226 73.2408 30.8226H75.7185C75.8176 30.8226 75.8176 30.8226 75.8176 30.9217C75.8176 31.0208 75.7185 31.0208 75.6194 31.0208L75.0248 31.4172C74.9257 31.5163 74.8266 31.6155 74.8266 31.8137V40.6343C74.8266 40.7334 74.7274 40.7334 74.6283 40.7334H73.5382C73.439 40.7334 73.3399 40.7334 73.2408 40.6343C73.1417 40.5352 73.1417 40.5352 73.0426 40.4361L70.0694 32.2101V39.7423C70.0694 39.9405 70.1685 40.0396 70.2676 40.1388L70.8622 40.5352C70.9613 40.5352 71.0605 40.6343 71.0605 40.6343C71.0605 40.6343 71.0604 40.7334 70.9613 40.7334H68.781C68.6819 40.7334 68.6818 40.7334 68.6818 40.6343C68.6818 40.5352 68.781 40.5352 68.8801 40.5352L69.4747 40.1388C69.5738 40.0396 69.6729 39.9405 69.6729 39.7423L69.5738 31.8137ZM89.9901 22.1011L88.3052 17.2448C88.3052 17.1457 88.2061 17.0466 88.107 16.9475L87.5124 16.4519L87.4133 16.3528C87.4133 16.3528 87.5124 16.2537 87.6115 16.2537H90.7829C90.8821 16.2537 90.9812 16.2537 90.9812 16.3528C90.9812 16.3528 90.8821 16.4519 90.7829 16.4519L90.0892 16.8484C89.9901 16.9475 89.9901 16.9475 89.9901 17.1457L91.2785 20.7136L92.4678 17.1457C92.4678 17.0466 92.4678 16.9475 92.3687 16.8484L91.6749 16.4519C91.5758 16.4519 91.4767 16.3528 91.4767 16.3528C91.4767 16.2537 91.5758 16.2537 91.6749 16.2537H94.2517C94.3508 16.2537 94.4499 16.2537 94.4499 16.3528C94.4499 16.4519 94.3508 16.4519 94.2517 16.4519L93.558 16.9475C93.4589 17.0466 93.3598 17.1457 93.3598 17.2448L91.774 21.7047V25.2725C91.774 25.4708 91.774 25.5699 91.9722 25.669L92.666 26.0654L92.8642 26.1645C92.8642 26.1645 92.8642 26.2636 92.7651 26.2636H89.2963C89.1972 26.2636 89.1972 26.2636 89.1972 26.1645C89.1972 26.1645 89.2963 26.0654 89.3954 26.0654L90.0892 25.669C90.2874 25.5699 90.2874 25.4708 90.2874 25.2725L89.9901 22.1011ZM83.449 20.7136H83.7463C84.8365 20.7136 85.332 20.3171 85.332 18.7314C85.332 17.3439 84.8365 16.9475 83.7463 16.9475H83.449V20.7136ZM83.5481 25.2725C83.5481 25.4708 83.5481 25.5699 83.7463 25.669L84.44 26.0654L84.6382 26.1645C84.6382 26.1645 84.6382 26.2636 84.5391 26.2636H81.0704C80.9712 26.2636 80.9713 26.2636 80.9713 26.1645C80.9713 26.1645 81.0704 26.0654 81.1695 26.0654L81.8632 25.669C82.0614 25.5699 82.0614 25.4708 82.0614 25.2725V17.2448C82.0614 17.0466 82.0614 16.9475 81.8632 16.8484L81.1695 16.4519L80.9713 16.3528C80.9713 16.3528 80.9712 16.2537 81.0704 16.2537H83.8454C86.1249 16.2537 87.4133 16.9475 87.4133 18.7314C87.4133 20.218 86.5213 20.7136 85.7284 21.0109C86.5213 21.2091 86.9177 21.7047 87.0168 22.4975L87.4133 25.3716C87.5124 25.7681 88.3052 26.0654 88.3052 26.0654C88.4044 26.0654 88.5035 26.1645 88.5035 26.2636C88.5035 26.2636 88.4044 26.2636 88.3052 26.2636H86.5213C86.0258 26.2636 85.9267 26.0654 85.7284 25.669L85.332 22.3984C85.2329 21.8038 84.8365 21.4073 84.0436 21.4073H83.6472L83.5481 25.2725ZM80.1784 21.0109C80.1784 23.4886 79.9802 26.4618 77.0069 26.4618C74.0337 26.4618 73.8355 23.5877 73.8355 21.0109C73.8355 19.1278 74.0337 16.1546 77.0069 16.1546C79.9802 16.0555 80.1784 19.0287 80.1784 21.0109ZM75.6194 21.0109C75.6194 24.4797 76.115 25.7681 77.0069 25.7681C77.8989 25.7681 78.3944 24.4797 78.3944 21.0109C78.3944 18.0377 77.8989 16.7493 77.0069 16.7493C76.115 16.7493 75.6194 18.0377 75.6194 21.0109ZM52.6264 19.6234V16.0555C52.6264 15.8573 52.5272 15.7582 52.4281 15.6591L51.6353 15.2626C51.5362 15.2626 51.4371 15.1635 51.4371 15.1635C51.4371 15.1635 51.5362 15.0644 51.6353 15.0644H55.5996C55.6987 15.0644 55.7978 15.0644 55.7978 15.1635C55.7978 15.1635 55.6987 15.2626 55.5996 15.2626L54.8067 15.6591C54.6085 15.7582 54.6085 15.8573 54.6085 16.0555V25.0743C54.6085 25.2726 54.7076 25.3717 54.8067 25.4708L55.5996 25.8672C55.6987 25.8672 55.7978 25.9663 55.7978 25.9663C55.7978 25.9663 55.6987 26.0654 55.5996 26.0654H51.6353C51.5362 26.0654 51.4371 26.0654 51.4371 25.9663C51.4371 25.9663 51.5362 25.8672 51.6353 25.8672L52.4281 25.4708C52.6264 25.3717 52.6264 25.2726 52.6264 25.0743V20.4163H49.8513V25.0743C49.8513 25.2726 49.9504 25.3717 50.0495 25.4708L50.8424 25.8672C50.9415 25.8672 51.0406 25.9663 51.0406 25.9663C51.0406 25.9663 50.9415 26.0654 50.8424 26.0654H46.8781C46.779 26.0654 46.6799 26.0654 46.6799 25.9663C46.6799 25.9663 46.779 25.8672 46.8781 25.8672L47.671 25.4708C47.8692 25.3717 47.8692 25.2726 47.8692 25.0743V16.0555C47.8692 15.8573 47.7701 15.7582 47.671 15.6591L46.8781 15.2626C46.779 15.2626 46.6799 15.1635 46.6799 15.1635C46.6799 15.1635 46.779 15.0644 46.8781 15.0644H50.8424C50.9415 15.0644 51.0406 15.0644 51.0406 15.1635C51.0406 15.1635 50.9415 15.2626 50.8424 15.2626L50.0495 15.6591C49.8513 15.7582 49.8513 15.8573 49.8513 16.0555V19.6234H52.6264ZM66.6006 6.14469H67.0961C67.1952 6.14469 67.2943 6.1447 67.3935 6.04559L68.1863 4.9554C68.1863 4.85629 68.2854 4.85629 68.2854 4.85629C68.3845 4.85629 68.3845 4.85629 68.3845 4.9554V8.12686C68.3845 8.12686 68.3845 8.22596 68.2854 8.22596C68.1863 8.22596 68.1863 8.22596 68.0872 8.12686L67.2943 6.93756C67.2943 6.83845 67.1952 6.83845 66.997 6.83845H66.5015V11.1992H67.7899C68.0872 11.1992 68.2854 11.1001 68.3845 11.001L69.5738 8.42418C69.5738 8.32507 69.6729 8.32507 69.772 8.32507C69.8712 8.32507 69.8712 8.32507 69.8712 8.42418V11.7938C69.8712 11.893 69.772 11.893 69.6729 11.893H63.9247C63.8256 11.893 63.8256 11.893 63.8256 11.7938C63.8256 11.7938 63.9247 11.6947 64.0238 11.6947L64.7175 11.2983C64.9157 11.1992 64.9158 11.1001 64.9158 10.9019V2.87413C64.9158 2.67591 64.9157 2.57681 64.7175 2.4777L64.0238 2.08127L63.8256 1.98216C63.8256 1.98216 63.8256 1.88305 63.9247 1.88305H69.4747C69.5738 1.88305 69.6729 1.98216 69.6729 1.98216V4.85629C69.6729 4.9554 69.6729 4.9554 69.5738 4.9554C69.4747 4.9554 69.3756 4.9554 69.3756 4.85629L68.1863 2.77502C68.0872 2.5768 67.889 2.4777 67.5917 2.4777H66.6006V6.14469ZM60.4559 6.14469V2.87413C60.4559 2.67591 60.4559 2.57681 60.2577 2.4777L59.5639 2.08127L59.3657 1.98216C59.3657 1.98216 59.3657 1.88305 59.4648 1.88305H62.9336C63.0327 1.88305 63.0327 1.88305 63.0327 1.98216C63.0327 1.98216 62.9336 2.08127 62.8345 2.08127L62.1407 2.4777C61.9425 2.57681 61.9425 2.67591 61.9425 2.87413V10.9019C61.9425 11.1001 61.9425 11.1992 62.1407 11.2983L62.8345 11.6947L63.0327 11.7938C63.0327 11.7938 63.0327 11.893 62.9336 11.893H59.4648C59.3657 11.893 59.3657 11.893 59.3657 11.7938C59.3657 11.7938 59.4648 11.6947 59.5639 11.6947L60.2577 11.2983C60.4559 11.1992 60.4559 11.1001 60.4559 10.9019V6.83845H58.1764V10.9019C58.1764 11.1001 58.1764 11.1992 58.3746 11.2983L59.0684 11.6947L59.2666 11.7938C59.2666 11.7938 59.2666 11.893 59.1675 11.893H55.6987C55.5996 11.893 55.5996 11.893 55.5996 11.7938C55.5996 11.7938 55.6987 11.6947 55.7978 11.6947L56.4916 11.2983C56.6898 11.1992 56.6898 11.1001 56.6898 10.9019V2.87413C56.6898 2.67591 56.6898 2.57681 56.4916 2.4777L55.7978 2.08127L55.5996 1.98216C55.5996 1.98216 55.5996 1.88305 55.6987 1.88305H59.1675C59.2666 1.88305 59.2666 1.88305 59.2666 1.98216C59.2666 1.98216 59.1675 2.08127 59.0684 2.08127L58.3746 2.4777C58.1764 2.57681 58.1764 2.67591 58.1764 2.87413V6.14469H60.4559ZM65.7086 19.3261C65.7086 19.3261 65.7086 19.4252 65.6095 19.4252C65.5104 19.4252 65.5104 19.4252 65.5104 19.3261C65.114 18.0377 64.4202 16.6501 63.1318 16.7493C62.5372 16.7493 62.3389 17.443 62.3389 17.7403C62.3389 18.335 62.8345 19.0287 64.4202 20.9118C65.9068 22.5966 66.0059 22.894 66.1051 23.9841C66.2042 25.669 64.5193 26.4618 63.7264 26.4618C63.1318 26.4618 62.8345 26.2636 62.5372 26.1645C62.3389 26.0654 62.1407 26.0654 62.0416 26.0654C61.9425 26.0654 61.6452 26.1645 61.1496 26.3627C61.0505 26.3627 60.9514 26.4618 60.8523 26.4618C60.7532 26.4618 60.7532 26.4618 60.7532 26.3627V22.9931C60.7532 22.9931 60.7532 22.894 60.8523 22.894C60.9514 22.894 60.9514 22.9931 60.9514 22.9931C61.3479 24.1824 61.9425 25.7681 63.2309 25.8672C63.9247 25.8672 64.4202 25.1734 64.4202 24.777C64.4202 23.7859 63.8256 23.0922 62.4381 21.6055C61.2488 20.4162 60.7532 19.3261 60.7532 18.4341C60.7532 17.1457 61.8434 16.3528 63.0327 16.3528C63.4291 16.3528 63.8256 16.551 64.222 16.7493C64.3211 16.7493 64.5193 16.8484 64.5193 16.8484C64.6184 16.8484 64.8166 16.8484 65.0149 16.7493C65.2131 16.6501 65.3122 16.551 65.5104 16.551C65.6095 16.551 65.7086 16.6501 65.7086 16.6501V19.3261ZM53.5183 29.8315C53.5183 29.6333 53.5183 29.5342 53.3201 29.5342C53.221 29.5342 52.9237 29.6333 52.8246 29.7324C52.6264 29.8315 52.4281 29.9306 52.329 29.9306C52.2299 29.9306 52.0317 29.9306 51.8335 29.8315C51.4371 29.6333 50.9415 29.5342 50.5451 29.5342C47.1754 29.5342 47.0763 33.1021 47.0763 34.886C47.0763 37.4628 47.4727 40.9316 50.5451 40.9316C52.9237 40.9316 53.5183 39.5441 53.5183 37.2646C53.5183 37.1655 53.4192 37.1655 53.3201 37.1655C53.221 37.1655 53.1219 37.1655 53.1219 37.2646C53.1219 37.3637 52.5272 40.2379 51.0406 40.2379C49.8513 40.2379 49.2567 39.5441 49.2567 34.9851C49.2567 31.8137 49.4549 30.327 50.6442 30.327C52.0317 30.327 52.8246 32.111 53.1219 33.3994C53.1219 33.4985 53.221 33.5976 53.3201 33.5976C53.4192 33.5976 53.5183 33.4985 53.5183 33.4985V29.8315Z" fill="white"/>
<path fill-rule="evenodd" clip-rule="evenodd" d="M0.891968 42.0218L2.08126 40.8325H41.1298L42.3191 42.0218H0.891968Z" fill="#BFBFBF"/>
<path fill-rule="evenodd" clip-rule="evenodd" d="M0.0991211 0L2.08128 1.98216H41.1298L43.112 0H0.0991211Z" fill="#EAEAEA"/>
<path fill-rule="evenodd" clip-rule="evenodd" d="M0 42.0218V0H0.0991065L2.08127 1.98216V40.8325L0.891974 42.0218H0Z" fill="#D3D3D3"/>
<path fill-rule="evenodd" clip-rule="evenodd" d="M43.2111 42.0218V0H43.112L41.1298 1.98216V40.8325L42.3191 42.0218H43.2111Z" fill="#D3D3D3"/>
<path fill-rule="evenodd" clip-rule="evenodd" d="M2.08127 1.98216V40.8325H41.1298V1.98216H2.08127ZM39.1477 37.3637H22.894L27.2547 33.7958V22.3984H16.0555V33.7958L20.3171 37.2646H4.16254L8.22597 33.8949V8.52329L4.55897 5.55005L4.06343 5.15362H20.218L15.9564 8.7215V14.9653H27.1556V8.7215L22.894 5.25272H39.1477L35.0842 8.6224V33.8949L39.1477 37.3637Z" fill="white"/>
</svg>
