<svg width="100" height="71" viewBox="0 0 100 71" fill="none" xmlns="http://www.w3.org/2000/svg">
<path d="M72.084 0.231673C72.084 17.3751 72.084 34.6344 72.084 52.7045C77.1807 48.6503 81.5824 45.0594 86.0999 41.4686C85.4049 40.3102 84.7099 40.7736 84.0149 40.6577C83.0882 40.5419 82.2774 40.5419 82.2774 39.3836C82.2774 38.1094 83.2041 38.1094 84.0149 38.1094C87.7216 38.1094 91.3125 38.1094 95.0191 38.1094C95.9458 38.1094 96.7567 38.2252 96.7567 39.3836C96.7567 40.6577 95.83 40.6577 95.0191 40.6577C91.3125 40.3102 88.5324 42.1636 85.8682 44.2486C84.3624 45.4069 84.0149 46.3336 85.1733 47.9553C88.9958 53.9787 92.7025 60.1179 96.4092 66.1412C97.22 67.5312 98.1467 68.9212 100 67.4154C100 68.5737 100 69.6162 100 70.7746C95.3667 70.7746 90.7333 70.7746 86.0999 70.5429C84.8258 70.5429 82.7407 71.3537 82.5091 69.5004C82.2774 66.9521 84.9416 68.6896 86.4474 67.4154C83.5516 62.6662 80.5399 57.8012 77.644 53.052C77.2965 52.4728 76.7174 51.7778 76.0224 52.357C74.6323 53.6311 72.1998 54.2103 72.084 56.4112C71.8523 59.6545 72.084 62.8979 71.9682 66.0254C71.9682 67.8787 73.1265 67.9946 74.5165 67.9946C75.3274 67.9946 76.3699 67.8787 76.3699 69.1529C76.3699 70.5429 75.2115 70.5429 74.2848 70.5429C69.7673 70.5429 65.2498 70.5429 60.7323 70.5429C59.9214 70.5429 58.8789 70.4271 58.7631 69.3846C58.6473 68.2262 59.5739 67.9946 60.3848 67.9946C62.9331 68.2262 62.9331 66.6046 62.9331 64.7512C62.9331 45.0594 62.9331 25.2518 62.9331 5.56004C62.9331 3.70669 62.9331 2.20085 60.3848 2.54835C58.4156 2.78002 58.6473 1.15834 58.5314 0C63.049 0.231668 67.5665 0.231673 72.084 0.231673Z" fill="white"/>
<path d="M12.777 0.231674C12.8928 13.5526 13.0086 26.8735 13.1245 40.1944C13.1245 41.7002 13.1245 43.2061 13.1245 45.2911C17.4103 42.7428 20.7695 40.3102 24.9396 39.4994C32.8163 37.7619 37.1021 41.1211 37.218 49.2295C37.218 54.442 37.218 59.6545 37.218 64.7512C37.218 66.9521 37.218 68.8054 40.2296 68.3421C40.9246 68.2262 41.6196 68.5737 41.6196 69.5004C41.6196 70.4271 40.8088 70.5429 40.1138 70.5429C35.4804 70.5429 30.8471 70.5429 26.0979 70.5429C25.4029 70.5429 24.5921 70.3113 24.4762 69.6162C24.3604 68.4579 25.4029 68.3421 26.2137 68.3421C28.4146 68.4579 28.2987 67.0679 28.2987 65.5621C28.2987 59.6545 28.4146 53.747 28.1829 47.9553C28.0671 44.0169 25.8662 42.5111 22.0437 43.2061C16.0203 44.3644 13.1245 47.8394 13.1245 53.8628C13.1245 57.3378 13.1245 60.9287 13.1245 64.4037C13.1245 66.6046 12.8928 68.8054 16.252 68.3421C16.947 68.2262 17.7578 68.4579 17.7578 69.3846C17.7578 70.3113 17.0628 70.5429 16.252 70.5429C11.2711 70.5429 6.40611 70.5429 1.42525 70.5429C0.846079 70.5429 0.266911 70.3113 0.151077 69.6162C0.0352429 68.6896 0.614413 68.2262 1.30942 68.3421C4.3211 68.6896 4.3211 66.8362 4.3211 64.7512C4.3211 45.2911 4.3211 25.831 4.3211 6.25504C4.3211 4.17003 4.43694 2.43252 1.30942 2.78002C-0.543927 3.01169 0.151079 1.27418 0.0352447 0.347506C4.3211 0.231672 8.49113 0.231674 12.777 0.231674Z" fill="white"/>
<path d="M38.0288 2.66418C50.3072 2.66418 58.7631 12.8576 55.1722 23.2826C52.0447 32.3177 40.9247 36.7194 30.8471 33.0127C22.2754 29.7693 17.9895 21.0818 21.2329 13.0892C23.6654 6.83421 30.2679 2.78002 38.0288 2.66418ZM29.4571 18.3018C29.6887 20.966 29.6887 23.6301 30.3838 26.1785C31.6579 30.4644 33.9746 32.2019 38.3763 31.9702C42.4305 31.8544 44.863 29.6535 45.6738 25.7152C46.6005 21.1976 46.7164 16.5643 45.7897 12.0467C44.7472 7.06588 42.778 5.21253 38.3763 5.0967C33.3954 4.98086 31.3104 6.60254 30.1521 11.5834C29.8046 13.9001 29.8046 16.1009 29.4571 18.3018Z" fill="white"/>
<path d="M50.0755 44.7119C51.9289 44.8278 51.6972 46.1019 51.5814 47.1444C51.118 50.7353 52.2764 52.7045 56.3306 52.0095C57.4889 51.7778 59.1106 51.7778 58.8789 53.747C58.6473 55.4845 57.1414 55.0212 56.2147 54.7895C52.0447 54.0945 51.118 56.0637 51.5814 59.6545C51.6972 60.697 51.9289 62.087 50.1914 62.2029C48.2222 62.3187 48.338 60.697 48.4538 59.5387C49.033 55.832 47.643 54.2103 43.7047 54.7895C42.778 54.9053 41.2721 55.3687 41.1563 53.5153C41.1563 51.5461 42.778 51.7778 43.8205 51.8936C47.643 52.4728 48.9172 50.8511 48.338 47.2603C48.338 46.3336 48.1063 44.7119 50.0755 44.7119Z" fill="white"/>
</svg>
