<svg width="102" height="30" viewBox="0 0 102 30" fill="none" xmlns="http://www.w3.org/2000/svg">
<path d="M0 0.0931663H6.33541V11.2733H13.7888V0.0931663H20.0311V30H13.7888V16.9565H6.33541V30H0V0.0931663ZM56.0869 0.0931663H62.3292V10.7143L72.1118 0.0931663H80.1242L68.2919 12.5776L80.4037 30H72.8571L63.913 17.0497L62.3292 18.7267V30H56.0869V0.0931663ZM81.9876 0.0931663H86.9255L95.9627 18.8199V0.0931663H101.366V30H96.4286L87.4845 11.2733V30H82.0807L81.9876 0.0931663ZM47.0497 0L44.3478 18.8199L40.4348 0H35.5901L31.677 18.8199L28.9752 0H22.8261L27.9503 30H33.7267L37.9193 11.3665L42.1118 30H47.8882L53.0124 0H47.0497Z" fill="white"/>
</svg>
