<svg width="128" height="30" viewBox="0 0 128 30" fill="none" xmlns="http://www.w3.org/2000/svg">
<path d="M74.0484 26.6465C74.0484 26.9184 74.139 27.0091 74.2296 27.0091C74.3203 27.0091 74.4109 26.9184 74.5015 26.9184L114.109 1.17824C114.743 0.725072 115.559 0.453172 116.375 0.453172H125.076C126.435 0.453172 127.341 1.35952 127.341 2.71903V19.3051C127.341 21.2991 126.888 22.4773 125.076 23.565L114.471 29.9094C114.381 30 114.199 30 114.109 30C114.018 30 113.837 29.9094 113.837 29.5468V10.1511C113.837 9.87915 113.746 9.78852 113.656 9.78852C113.565 9.78852 113.474 9.87915 113.384 9.87915L84.4713 28.7311C83.8369 29.1843 83.0212 29.4562 82.2055 29.3656H62.991C61.6314 29.3656 60.7251 28.4592 60.7251 27.0997V3.17221C60.7251 2.99094 60.6345 2.80967 60.4532 2.80967C60.3626 2.80967 60.2719 2.9003 60.1813 2.9003L41.0574 14.3202C40.8761 14.4109 40.7855 14.5015 40.7855 14.5921C40.7855 14.6828 40.7855 14.7734 40.9668 14.864L54.6526 28.4592C54.8339 28.6405 54.9245 28.8218 54.9245 28.9124C54.9245 29.003 54.7432 29.1843 54.4713 29.1843H42.145C41.148 29.1843 40.423 29.003 39.8792 28.5499L31.6314 20.3021C31.5408 20.2115 31.4502 20.2115 31.3595 20.2115C31.2689 20.2115 31.1783 20.2115 31.0876 20.3021L17.2205 28.6405C16.4048 29.1843 15.7704 29.2749 14.9547 29.2749H2.26586C0.906345 29.2749 0 28.3686 0 27.0091V10.6949C0 8.7009 0.453172 7.52266 2.26586 6.43505L12.8701 0.0906331C12.9607 -1.38432e-06 13.0514 0 13.142 0C13.3233 0 13.4139 0.181268 13.4139 0.543805V22.3867C13.4139 22.6586 13.5045 22.7492 13.5952 22.7492C13.6858 22.7492 13.7764 22.6586 13.9577 22.6586L49.849 1.08761C50.574 0.634438 51.3897 0.362538 52.2055 0.453172H71.5106C72.8701 0.453172 73.7764 1.35952 73.7764 2.71903L74.0484 26.6465Z" fill="white"/>
</svg>
