<svg width="81" height="30" viewBox="0 0 81 30" fill="none" xmlns="http://www.w3.org/2000/svg">
<path d="M47.0898 13.2817C46.4396 14.3034 44.8607 14.6749 42.5387 14.6749H40.4954V1.30031H42.5387C44.7678 1.30031 46.3468 1.7647 47.0898 2.41486C47.8328 3.15789 48.2972 5.01548 48.2972 7.70897C48.2972 10.4025 48.0186 12.2601 47.0898 13.2817ZM50.1548 0.743029C48.5759 0.278633 46.4396 0.0928774 44.0248 0.0928774H30.2786V1.20743H33.6223V28.7926H28.7926L16.4396 11.0526L25.356 1.30031H28.5139V0.185755H19.5047V1.30031H23.3127L10.6811 15.1393L20.4334 28.8855H17.1827V30H43.9319V28.8855H40.5882V15.8824H43.4675C51.6409 15.8824 55.8205 13.1889 55.8205 7.80186C55.8205 6.03715 55.2632 4.4582 54.1486 3.25077C53.127 2.13622 51.8266 1.39319 50.2477 1.02167" fill="white"/>
<path d="M10.4025 1.20743H13.839V0.0928774H0V1.20743H3.34365V28.7926H0V29.9071H13.839V28.7926H10.4954L10.4025 1.20743Z" fill="white"/>
<path d="M80.1548 0H57.1208V1.11455H60.4644V28.6997H57.1208V29.8142H70.9598V28.6997H67.6161V15.3251H69.8452C71.7957 15.3251 73.096 15.7895 73.7461 16.7183C74.3963 17.5542 74.6749 19.0403 74.6749 21.2694H75.6966V8.73065H74.6749C74.6749 10.774 74.3963 12.1672 73.7461 13.0031C73.096 13.839 71.7028 14.3963 69.8452 14.3963H67.6161V1.39319H70.4025C73.6533 1.39319 75.8824 2.04335 77.3684 3.62229C78.2972 4.64397 79.0403 6.31579 79.8762 8.91641H80.8979L80.1548 0Z" fill="white"/>
</svg>
