<svg width="102" height="102" viewBox="0 0 102 102" fill="none" xmlns="http://www.w3.org/2000/svg">
<path d="M86.3075 86.3618C105.898 66.7718 105.898 35.1375 86.3075 15.6925C66.7174 -3.89751 35.0831 -3.89751 15.6382 15.6925C-3.80677 35.2826 -3.95188 66.9169 15.6382 86.3618C35.0831 105.807 66.7174 105.807 86.3075 86.3618Z" stroke="white" stroke-width="0.271" stroke-miterlimit="10"/>
<path d="M50.61 50.9546L14.0419 48.1975C13.8968 48.1975 13.7517 48.1975 13.6066 48.1975C11.1397 48.1975 9.10814 49.5035 9.10814 50.9546C9.10814 52.5509 11.1397 53.7118 13.7517 53.7118C13.8968 53.7118 14.0419 53.7118 14.187 53.7118L50.61 50.9546Z" fill="white"/>
<path d="M50.6101 50.9546L14.0419 55.308C13.8968 55.308 13.7517 55.308 13.6066 55.4531C11.1397 55.8884 9.39838 57.6298 9.6886 59.0809C9.97882 60.532 12.3006 61.4027 14.7675 60.8222C14.9126 60.8222 15.0577 60.8222 15.2028 60.6771L50.6101 50.9546Z" fill="white"/>
<path d="M50.61 50.9546L15.6381 62.4184C15.493 62.4184 15.3479 62.5636 15.2028 62.5636C12.881 63.5793 11.4299 65.4658 12.1555 66.9169C12.7359 68.368 15.2028 68.6582 17.5246 67.6425C17.6697 67.6425 17.8148 67.4973 17.9599 67.4973L50.61 50.9546Z" fill="white"/>
<path d="M50.6101 51.0997L18.6855 69.0936C18.5404 69.2387 18.3953 69.2387 18.2502 69.3838C16.2186 70.8349 15.2028 73.0116 16.0735 74.1725C16.9442 75.4785 19.4111 75.3334 21.4426 73.8822C21.5877 73.7371 21.7329 73.7371 21.878 73.592L50.6101 51.0997Z" fill="white"/>
<path d="M50.7552 51.0997L22.8938 74.898C22.7487 75.0431 22.6035 75.0431 22.6035 75.1882C20.8622 76.9296 20.2818 79.2514 21.4426 80.4123C22.6035 81.428 24.9253 80.8476 26.6667 79.1062C26.8118 78.9611 26.9569 78.816 26.9569 78.816L50.7552 51.0997Z" fill="white"/>
<path d="M50.7552 51.0997L28.1178 79.8318C27.9727 79.9769 27.9727 80.122 27.8276 80.2671C26.3764 82.2987 26.3764 84.7656 27.6824 85.6363C28.9885 86.5069 31.1651 85.4912 32.4711 83.3145C32.6162 83.1694 32.6162 83.0243 32.7614 82.8791L50.7552 51.0997Z" fill="white"/>
<path d="M50.7551 51.0997L34.2124 83.7498C34.2124 83.8949 34.0673 84.04 34.0673 84.1851C33.0515 86.5069 33.4869 88.8287 34.938 89.4092C36.3891 89.9896 38.2756 88.5385 39.2913 86.2167C39.2913 86.0716 39.4364 85.9265 39.4364 85.7814L50.7551 51.0997Z" fill="white"/>
<path d="M50.9003 51.0997L41.0327 86.2167C41.0327 86.3618 40.8876 86.5069 40.8876 86.6521C40.4522 89.119 41.1778 91.2956 42.774 91.5858C44.2251 91.8761 45.8214 90.1347 46.4018 87.6678C46.4018 87.5227 46.4018 87.3776 46.5469 87.2325L50.9003 51.0997Z" fill="white"/>
<path d="M53.3672 87.6679L50.9003 51.2449L47.853 87.813V88.2483C47.853 90.7152 49.159 92.7468 50.6101 92.7468C52.2063 92.7468 53.3672 90.7152 53.3672 88.1032C53.3672 87.9581 53.3672 87.813 53.3672 87.6679Z" fill="white"/>
<path d="M60.6227 86.9423C60.6227 86.7972 60.6227 86.6521 60.4776 86.507L50.9002 51.2449L55.1085 87.6679C55.1085 87.813 55.1085 87.9581 55.2536 88.1032C55.6889 90.5701 57.4303 92.3114 58.8814 92.0212C60.3325 91.5859 61.2031 89.4092 60.6227 86.9423Z" fill="white"/>
<path d="M67.4429 84.1851C67.4429 84.04 67.2978 83.8949 67.2978 83.7498L51.0453 51.0997L62.2189 85.9265C62.2189 86.0716 62.364 86.2167 62.364 86.3618C63.3798 88.6836 65.2663 90.1347 66.7174 89.4092C68.0234 88.8287 68.3136 86.5069 67.4429 84.1851Z" fill="white"/>
<path d="M73.5376 80.1221C73.3925 79.9769 73.3925 79.8318 73.2474 79.6867L51.0453 50.9546L68.749 82.734C68.8941 82.8792 68.8941 83.0243 69.0392 83.1694C70.4903 85.2009 72.667 86.2167 73.8279 85.3461C75.1339 84.6205 74.9888 82.2987 73.5376 80.1221Z" fill="white"/>
<path d="M78.9068 75.1882C78.7617 75.0431 78.6166 74.898 78.6166 74.898L51.1905 51.0997L74.8437 78.816C74.9888 78.9611 74.9888 79.1062 75.1339 79.1062C76.8752 80.8476 79.197 81.428 80.3579 80.2671C81.2286 79.2514 80.6481 76.9296 78.9068 75.1882Z" fill="white"/>
<path d="M82.9699 69.2387C82.8248 69.0936 82.6797 69.0935 82.5346 68.9484L51.0453 51.0997L79.4872 73.592C79.6323 73.7371 79.7774 73.7371 79.9225 73.8822C81.9541 75.3334 84.421 75.3333 85.2917 74.0273C86.1623 72.7213 85.1466 70.5447 82.9699 69.2387Z" fill="white"/>
<path d="M86.0172 62.5635C85.8721 62.5635 85.727 62.4184 85.5819 62.4184L51.1905 51.0997L83.5504 67.6424C83.6955 67.6424 83.8406 67.7876 83.9857 67.7876C86.3075 68.8033 88.6293 68.368 89.2097 66.9169C89.7901 65.3207 88.339 63.4342 86.0172 62.5635Z" fill="white"/>
<path d="M87.4684 55.308C87.3233 55.308 87.1781 55.308 87.033 55.1629L51.1905 50.8095L86.1624 60.6771C86.3075 60.6771 86.4526 60.8222 86.5977 60.8222C89.0646 61.2576 91.2413 60.532 91.5315 58.9358C91.8217 57.3395 90.0804 55.8884 87.4684 55.308Z" fill="white"/>
<path d="M88.1939 48.1975C88.0488 48.1975 87.9037 48.1975 87.7586 48.1975L51.1905 50.9546L87.7586 53.7118C87.9037 53.7118 88.0488 53.7118 88.1939 53.7118C90.6608 53.7118 92.6924 52.4057 92.6924 50.9546C92.8375 49.3584 90.6608 48.1975 88.1939 48.1975Z" fill="white"/>
<path d="M92.1119 42.6833C91.8217 41.2322 89.4999 40.3615 87.033 40.9419C86.8879 40.9419 86.7428 40.9419 86.5977 41.0871L51.1905 50.8095L87.7586 46.4562C87.9037 46.4562 88.0488 46.4562 88.1939 46.3111C90.6608 45.8757 92.4021 44.2795 92.1119 42.6833Z" fill="white"/>
<path d="M89.645 34.9924C89.0646 33.5412 86.5977 33.251 84.2759 34.2668C84.1308 34.2668 83.9857 34.4119 83.8406 34.4119L51.1905 50.8095L86.1624 39.4908C86.3075 39.4908 86.4526 39.3457 86.5977 39.3457C88.7744 38.3299 90.2255 36.2984 89.645 34.9924Z" fill="white"/>
<path d="M85.727 27.7368C84.8564 26.4308 82.3895 26.5759 80.3579 28.027C80.2128 28.1721 80.0677 28.1721 79.9226 28.3173L51.1905 50.8095L83.115 32.9608C83.2601 32.8157 83.4052 32.8157 83.5504 32.6706C85.5819 31.2195 86.5977 29.0428 85.727 27.7368Z" fill="white"/>
<path d="M80.503 21.3519C79.3421 20.3361 77.0203 20.9165 75.279 22.6579C75.1339 22.803 74.9888 22.9481 74.9888 22.9481L51.0453 50.6644L78.9068 26.8661C79.0519 26.721 79.197 26.721 79.197 26.5759C81.0834 24.6894 81.6639 22.3677 80.503 21.3519Z" fill="white"/>
<path d="M74.1181 16.273C72.8121 15.4023 70.6354 16.4181 69.3294 18.5948C69.1843 18.7399 69.1843 18.885 69.0392 19.0301L51.0453 50.6644L73.6827 22.0775C73.8279 21.9323 73.8278 21.7872 73.973 21.6421C75.4241 19.4655 75.4241 17.1437 74.1181 16.273Z" fill="white"/>
<path d="M67.0076 12.355C65.5565 11.7745 63.6701 13.2256 62.6543 15.5474C62.6543 15.6925 62.5092 15.8376 62.5092 15.9828L51.0453 50.6644L67.5881 18.1594C67.5881 18.0143 67.7332 17.8692 67.7332 17.7241C68.749 15.2572 68.3136 12.9354 67.0076 12.355Z" fill="white"/>
<path d="M59.0265 10.0332C57.5754 9.74298 55.9792 11.4843 55.3988 13.9512C55.3988 14.0963 55.3988 14.2414 55.2536 14.3866L50.7552 50.5193L60.6228 15.4023C60.6228 15.2572 60.7679 15.1121 60.7679 14.967C61.4934 12.5001 60.6228 10.3234 59.0265 10.0332Z" fill="white"/>
<path d="M53.5122 13.661C53.5122 11.1941 52.2062 9.16252 50.7551 9.16252C49.1589 9.16252 47.998 11.1941 47.998 13.8061C47.998 13.9512 47.998 14.0963 47.998 14.2414L51.0453 50.6644L53.6573 14.0963C53.5122 13.9512 53.5122 13.8061 53.5122 13.661Z" fill="white"/>
<path d="M50.9003 50.6644L46.2567 14.2414C46.2567 14.0963 46.2567 13.9512 46.1116 13.8061C45.6762 11.3392 43.9349 9.59787 42.4838 9.88809C41.0327 10.1783 40.162 12.5001 40.7425 14.967C40.7425 15.1121 40.7425 15.2572 40.8876 15.4023L50.9003 50.6644Z" fill="white"/>
<path d="M50.7552 50.6644L39.1462 15.8377C39.1462 15.6926 39.0011 15.5474 39.0011 15.4023C37.9853 13.0805 36.0989 11.6294 34.6478 12.355C33.1967 12.9354 32.9064 15.4023 33.9222 17.7241C33.9222 17.8692 34.0673 18.0143 34.0673 18.1595L50.7552 50.6644Z" fill="white"/>
<path d="M50.7551 50.6644L32.6162 18.885C32.4711 18.7399 32.4711 18.5948 32.3259 18.4497C30.8748 16.4181 28.6982 15.4023 27.5373 16.273C26.2313 17.1437 26.3764 19.6106 27.8275 21.6421C27.9726 21.7872 27.9726 21.9323 28.1177 22.0774L50.7551 50.6644Z" fill="white"/>
<path d="M50.7552 50.6644L26.6667 22.9481C26.5215 22.803 26.5215 22.6579 26.3764 22.6579C24.6351 20.9166 22.3133 20.3361 21.1524 21.497C20.1366 22.6579 20.7171 24.9797 22.4584 26.721C22.6035 26.8661 22.7486 27.0112 22.7486 27.0112L50.7552 50.6644Z" fill="white"/>
<path d="M50.6101 50.6644L21.7329 28.1721C21.5878 28.027 21.4426 28.027 21.2975 27.8819C19.266 26.4308 16.7991 26.4308 15.9284 27.7368C15.0577 29.0428 16.0735 31.2195 18.2502 32.5255C18.3953 32.6706 18.5404 32.6706 18.6855 32.8157L50.6101 50.6644Z" fill="white"/>
<path d="M50.61 50.8095L17.8148 34.2668C17.6697 34.2668 17.5246 34.1217 17.3795 34.1217C15.0577 33.1059 12.7359 33.5413 12.1555 34.9924C11.575 36.4435 13.0262 38.3299 15.3479 39.3457C15.493 39.3457 15.6382 39.4908 15.7833 39.4908L50.61 50.8095Z" fill="white"/>
<path d="M50.6101 50.8095L15.2028 40.9419C15.0577 40.9419 14.9126 40.7968 14.7675 40.7968C12.3006 40.3615 10.1239 41.0871 9.83371 42.6833C9.54349 44.1344 11.2848 45.7306 13.7517 46.3111C13.8968 46.3111 14.0419 46.3111 14.1871 46.4562L50.6101 50.8095Z" fill="white"/>
<path d="M65.2663 54.8726C67.443 47.0366 62.7994 38.9104 54.8183 36.7337C46.8372 34.557 38.7109 39.2006 36.5342 47.0366C34.3576 54.8727 39.0011 62.9989 46.9823 65.1756C54.9634 67.3522 63.0896 62.7087 65.2663 54.8726Z" fill="white"/>
<path d="M63.3799 49.9389H63.2348L51.0454 50.8095L63.2348 51.6802H63.3799C64.2506 51.6802 64.831 51.2449 64.9761 50.8095C64.831 50.3742 64.1055 49.9389 63.3799 49.9389Z" fill="black"/>
<path d="M63.2348 52.4058H63.0897L50.9003 50.9546L62.6543 54.2922H62.7994C63.6701 54.4373 64.3957 54.1471 64.5408 53.7118C64.6859 53.1313 64.1054 52.5509 63.2348 52.4058Z" fill="black"/>
<path d="M62.6543 54.7275H62.5092L50.9003 50.9546L61.7837 56.4689H61.9288C62.6543 56.7591 63.525 56.614 63.6701 56.1787C63.9603 55.7433 63.525 55.1629 62.6543 54.7275Z" fill="black"/>
<path d="M61.6385 57.0493L50.9003 50.9546L60.4777 58.5004C60.4777 58.5004 60.6228 58.5004 60.6228 58.6455C61.3483 59.0809 62.0739 59.226 62.3641 58.7906C62.6543 58.2102 62.3641 57.4846 61.6385 57.0493Z" fill="black"/>
<path d="M60.3325 59.0809L50.9003 50.9546L58.8814 60.2418C58.8814 60.2418 58.8814 60.3869 59.0266 60.3869C59.607 60.9673 60.3326 61.1124 60.7679 60.8222C61.0581 60.3869 60.913 59.6613 60.3325 59.0809Z" fill="black"/>
<path d="M58.5912 60.6771L50.9003 50.9546L56.8499 61.5478L56.995 61.6929C57.4303 62.4184 58.1559 62.7087 58.5912 62.4184C59.0265 62.2733 59.0265 61.4027 58.5912 60.6771Z" fill="black"/>
<path d="M56.5596 62.1282V61.9831L50.9003 50.9546L54.6732 62.5636V62.7087C54.9634 63.4342 55.689 64.0147 56.1243 63.7245C56.7048 63.5793 56.8499 62.8538 56.5596 62.1282Z" fill="black"/>
<path d="M54.2379 62.9989V62.8538L50.9003 50.9546L52.3514 63.144V63.2891C52.4965 64.1598 53.077 64.7402 53.5123 64.5951C54.0928 64.45 54.383 63.7245 54.2379 62.9989Z" fill="black"/>
<path d="M51.916 63.2891L50.9003 50.9546L50.0296 63.144V63.2891C50.0296 64.1598 50.4649 64.8853 50.9003 64.8853C51.4807 64.8853 51.7709 64.1598 51.7709 63.4342C51.916 63.2891 51.916 63.2891 51.916 63.2891Z" fill="black"/>
<path d="M50.9003 50.9546L47.7079 62.8538V62.9989C47.5627 63.8696 47.853 64.5951 48.2883 64.7402C48.7236 64.8853 49.3041 64.3049 49.4492 63.4342V63.2891L50.9003 50.9546Z" fill="black"/>
<path d="M50.9003 50.9546L45.5312 61.838V61.9831C45.241 62.7087 45.3861 63.5793 45.8214 63.7245C46.2567 63.8696 46.9823 63.4342 47.2725 62.7087V62.5636L50.9003 50.9546Z" fill="black"/>
<path d="M50.9003 50.9546L43.4996 60.532C43.4996 60.532 43.4996 60.6771 43.3545 60.6771C42.9192 61.4027 42.9192 62.1282 43.2094 62.4184C43.6447 62.7087 44.3703 62.4184 44.8056 61.6929L44.9507 61.5478L50.9003 50.9546Z" fill="black"/>
<path d="M50.9002 50.9546L41.7582 58.9358L41.6131 59.0809C41.0326 59.6613 40.8875 60.3869 41.1778 60.8222C41.468 61.2576 42.3387 60.9673 42.9191 60.3869L43.0642 60.2418L50.9002 50.9546Z" fill="black"/>
<path d="M50.7552 50.9546L40.3071 56.9042C40.3071 56.9042 40.162 56.9042 40.162 57.0493C39.4365 57.4846 39.1462 58.2102 39.4365 58.6455C39.7267 59.0809 40.4523 59.0809 41.1778 58.6455L41.3229 58.5004L50.7552 50.9546Z" fill="black"/>
<path d="M50.7552 50.9546L39.2914 54.7275H39.1462C38.4207 55.0178 37.8402 55.7433 38.1305 56.1787C38.2756 56.614 39.1462 56.7591 39.8718 56.4689H40.0169L50.7552 50.9546Z" fill="black"/>
<path d="M50.7551 50.9546L38.856 52.4058H38.7109C37.8402 52.5509 37.2598 53.1313 37.4049 53.5666C37.55 54.1471 38.2756 54.2922 39.0011 54.1471H39.1462L50.7551 50.9546Z" fill="black"/>
<path d="M50.7551 50.8095L38.5658 49.9389H38.4207C37.55 49.9389 36.9695 50.3742 36.8244 50.8095C36.8244 51.39 37.55 51.6802 38.2755 51.6802H38.4207L50.7551 50.8095Z" fill="black"/>
<path d="M50.7552 50.8095L39.0011 47.472H38.856C37.9854 47.3269 37.2598 47.6171 37.1147 48.0524C36.9696 48.4877 37.55 49.0682 38.4207 49.2133H38.5658L50.7552 50.8095Z" fill="black"/>
<path d="M50.7552 50.8095L39.8718 45.2953H39.7267C39.0012 45.0051 38.1305 45.1502 37.9854 45.5855C37.8403 46.0209 38.2756 46.7464 39.0012 47.0367H39.1463L50.7552 50.8095Z" fill="black"/>
<path d="M50.7552 50.8095L41.1778 43.2637L41.0327 43.1186C40.3071 42.6833 39.5816 42.5382 39.2914 42.9735C39.0011 43.4088 39.2914 44.1344 40.0169 44.5697C40.0169 44.5697 40.162 44.5697 40.162 44.7148L50.7552 50.8095Z" fill="black"/>
<path d="M50.9003 50.8095L42.9191 41.5224C42.9191 41.5224 42.9192 41.3773 42.774 41.3773C42.1936 40.7968 41.468 40.6517 41.0327 40.942C40.5974 41.2322 40.8876 42.1029 41.468 42.6833L41.6131 42.8284L50.9003 50.8095Z" fill="black"/>
<path d="M50.9003 50.8095L44.9507 40.2164C44.9507 40.2164 44.9507 40.0713 44.8056 40.0713C44.3703 39.3457 43.6447 39.0555 43.2094 39.3457C42.774 39.6359 42.774 40.3615 43.2094 41.087C43.2094 41.087 43.2094 41.2322 43.3545 41.2322L50.9003 50.8095Z" fill="black"/>
<path d="M50.9003 50.8095L47.1274 39.2006V39.0555C46.8372 38.3299 46.1116 37.7495 45.6763 38.0397C45.2409 38.1848 45.0958 39.0555 45.386 39.7811V39.9262L50.9003 50.8095Z" fill="black"/>
<path d="M50.9003 50.8095L49.4492 38.6202V38.4751C49.3041 37.6044 48.7236 37.0239 48.2883 37.1691C47.853 37.3142 47.5627 38.0397 47.7079 38.9104V39.0555L50.9003 50.8095Z" fill="black"/>
<path d="M51.916 38.3299C51.916 37.4593 51.4807 36.7337 51.0454 36.7337C50.4649 36.7337 50.1747 37.4593 50.1747 38.1848V38.3299L51.0454 50.6644L52.0612 38.475C51.9161 38.475 51.916 38.4751 51.916 38.3299Z" fill="black"/>
<path d="M53.6574 37.0239C53.2221 36.8788 52.6416 37.4593 52.4965 38.3299V38.475L50.9003 50.6644L54.2379 38.7653V38.6202C54.383 37.8946 54.2379 37.169 53.6574 37.0239Z" fill="black"/>
<path d="M56.2694 37.8946C55.8341 37.7495 55.1085 38.1848 54.8183 38.9104V39.0555L51.0454 50.6644L56.5596 39.7811V39.636C56.8499 38.9104 56.7048 38.0397 56.2694 37.8946Z" fill="black"/>
<path d="M58.7363 39.2006C58.301 38.9104 57.5754 39.2006 57.1401 39.9262L56.995 40.0713L51.0454 50.8096L58.5912 41.2322C58.5912 41.2322 58.5912 41.0871 58.7363 41.0871C59.0265 40.3615 59.0265 39.4909 58.7363 39.2006Z" fill="black"/>
<path d="M60.7679 40.9419C60.4777 40.5066 59.607 40.7968 59.0266 41.3773L58.8814 41.5224L50.9003 50.8095L60.1874 42.8284C60.1874 42.8284 60.3325 42.8284 60.3325 42.6833C60.913 42.1028 61.2032 41.3773 60.7679 40.9419Z" fill="black"/>
<path d="M62.5092 43.1186C62.219 42.6833 61.4934 42.6833 60.7679 43.1186L60.6228 43.2637L51.0454 50.8095L61.6385 44.86L61.7837 44.7149C62.3641 44.2795 62.7994 43.554 62.5092 43.1186Z" fill="black"/>
<path d="M63.8152 45.5855C63.6701 45.1502 62.7994 45.0051 62.0739 45.2953H61.9288L51.0454 50.8095L62.6543 47.0367H62.7994C63.525 46.6013 63.9603 46.0209 63.8152 45.5855Z" fill="black"/>
<path d="M64.5408 48.1975C64.3957 47.7622 63.6701 47.472 62.9446 47.6171H62.7994L51.0454 50.9546L63.0897 49.5035H63.2348C64.1054 49.2133 64.6859 48.6328 64.5408 48.1975Z" fill="black"/>
<path d="M93.2728 42.6833H8.52771V59.226H93.1277V42.6833H93.2728Z" fill="white"/>
<path d="M9.97881 56.7591V56.1787H11.575V45.2953H9.97881V44.7148H16.3637V45.2953H14.6224V56.1787H15.7833C17.2344 56.1787 17.5246 56.0336 18.2502 55.4531C18.9757 54.7275 19.411 54.002 19.8464 52.696H20.4268L20.2817 56.7591H9.97881Z" fill="black"/>
<path d="M26.3764 56.1787H27.9726V56.7591H21.878V56.1787H23.4742V45.2953H21.878V44.7148H27.9726V45.2953H26.3764V56.1787Z" fill="black"/>
<path d="M34.0673 50.8095H34.938C36.6793 50.8095 37.2598 51.39 37.2598 53.2764C37.2598 54.7275 37.1147 55.308 36.6793 55.7433C36.3891 56.0335 35.8087 56.1787 34.6478 56.1787H33.9222V50.8095H34.0673ZM34.0673 50.2291V45.4404H35.0831C36.6793 45.4404 37.1147 45.8757 37.1147 48.0524C37.1147 49.9389 36.6793 50.2291 34.938 50.2291H34.0673ZM36.6793 50.5193C37.6951 50.3742 37.9853 50.2291 38.5658 49.9389C38.856 49.7937 39.2914 49.5035 39.4365 49.2133C39.7267 48.9231 39.8718 48.4877 39.8718 48.1975C39.8718 47.7622 39.8718 47.472 39.7267 47.0366C39.5816 46.6013 39.4365 46.3111 39.1462 46.0208C38.4207 45.2953 37.4049 44.86 35.8087 44.86H29.4238V45.4404H30.8749V56.3238H29.4238V56.9042H35.5185C38.5658 56.9042 40.3071 55.7433 40.3071 53.5666C40.3071 52.9862 40.0169 52.2606 39.5816 51.8253C39.1462 51.0997 38.5658 50.8095 36.6793 50.5193Z" fill="black"/>
<path d="M46.9823 50.3742H47.4176C48.5785 50.3742 49.4492 49.6486 49.5943 48.1975H50.1747V53.1313H49.4492C49.3041 51.5351 48.7236 50.9546 47.2725 50.9546H46.8372V56.1787H48.8687C50.0296 56.1787 50.6101 55.8884 51.3356 55.1629C51.9161 54.4373 52.3514 53.7118 52.4965 52.8411H53.077L52.7867 56.7591H42.3387V56.1787H43.7898V45.2953H42.3387V44.7148H52.3514L52.4965 48.0524H51.9161C51.4807 46.8915 51.1905 46.3111 50.465 45.7306C49.8845 45.2953 49.4492 45.2953 48.2883 45.2953H46.6921L46.9823 50.3742Z" fill="black"/>
<path d="M59.4618 50.084V45.2953H60.7678C62.3641 45.2953 62.6543 45.7306 62.6543 47.6171C62.6543 49.5035 62.2189 49.9389 60.6227 49.9389H59.4618V50.084ZM59.4618 50.6644H60.0423C61.6385 50.6644 61.9287 51.2449 62.0738 53.5667C62.0738 55.0178 62.3641 55.7433 62.9445 56.1787C63.3798 56.614 64.2505 56.7591 65.1212 56.7591C65.8467 56.7591 66.4272 56.614 67.0076 56.3238V55.5982C66.7174 55.7433 66.4272 55.8884 65.9918 55.8884C65.4114 55.8884 65.2663 55.5982 65.2663 54.7275C65.2663 53.1313 65.2663 52.8411 64.831 52.2606C64.3956 51.39 63.3798 50.8095 61.9287 50.3742C64.3956 50.084 65.8467 49.0682 65.8467 47.472C65.8467 46.3111 64.9761 45.2953 63.5249 45.0051C62.6543 44.86 61.7836 44.7148 60.9129 44.7148H54.9634V45.2953H56.4145V56.1787H54.9634V56.7591H60.9129V56.1787H59.3167L59.4618 50.6644Z" fill="black"/>
<path d="M78.9068 44.86V48.778H78.3264C78.0361 47.1817 77.4557 46.0208 76.585 45.5855C76.2948 45.4404 75.8595 45.4404 75.5692 45.4404H75.4241V56.3238H77.3106V56.9042H70.7806V56.3238H72.5219V45.4404H72.2317C70.7806 45.4404 70.055 46.3111 69.4746 48.778H68.8941V44.86H78.9068Z" fill="black"/>
<path d="M86.1624 44.86V45.4404H84.8564L87.4684 50.5193L89.4999 46.4562L89.645 46.0208C89.645 45.8757 89.7902 45.8757 89.7902 45.7306C89.7902 45.5855 89.645 45.4404 89.2097 45.4404H88.7744V44.86H91.8217V45.4404C90.8059 45.4404 90.6608 45.5855 90.2255 46.4562L87.6135 51.2449V56.1787H89.4999V56.7591H82.8248V56.1787H84.7113V51.2449L81.2286 45.2953H80.3579V44.7148L86.1624 44.86Z" fill="black"/>
<path d="M49.7394 4.80917H51.0454L51.4807 3.64828L51.9161 4.95429L53.2221 5.0994L52.2063 5.82496L52.4965 7.13096L51.4807 6.40541L50.3198 7.13096L50.7552 5.82496L49.7394 4.80917Z" fill="white"/>
<path d="M86.4526 21.0617L87.3233 22.0775L88.6293 21.6421L87.9037 22.803L88.6293 23.8188L87.3233 23.3835L86.5977 24.3992V23.0933L85.2917 22.6579L86.5977 22.2226L86.4526 21.0617Z" fill="white"/>
<path d="M97.1909 61.838L95.8849 61.9831L95.5946 63.2891L95.0142 62.1282L93.7082 62.2733L94.724 61.4027L94.2886 60.2418L95.4495 60.9673L96.4653 60.0967L96.1751 61.4027L97.1909 61.838Z" fill="white"/>
<path d="M69.6197 91.4407L70.9257 91.5859L71.5061 90.425L71.7963 91.731L73.1023 91.8761L71.9415 92.6016L72.2317 93.9076L71.2159 93.037L70.055 93.7625L70.4903 92.6016L69.6197 91.4407Z" fill="white"/>
<path d="M29.714 92.3114L31.02 92.1663L31.3102 90.8603L31.8907 92.0212H33.1967L32.1809 92.8918L32.6162 94.1979L31.4553 93.4723L30.4395 94.343L30.7298 93.037L29.714 92.3114Z" fill="white"/>
<path d="M4.60971 61.5478L5.77061 60.9673L5.6255 59.6613L6.49616 60.532L7.65705 59.9515L7.07661 61.1124L7.94728 62.1282L6.64127 61.9831L6.06083 63.144L5.91572 61.838L4.60971 61.5478Z" fill="white"/>
<path d="M13.8968 21.3519L15.2028 21.7872L16.0735 20.7715V22.0775L17.3795 22.5128L16.0735 22.9481V24.2541L15.348 23.2384L14.0419 23.6737L14.7675 22.6579L13.8968 21.3519Z" fill="white"/>
<path fill-rule="evenodd" clip-rule="evenodd" d="M67.1527 93.7625C67.443 94.343 67.0076 95.0685 66.4272 95.3588C62.3641 96.955 56.7047 97.6805 51.1905 97.8256C45.6762 97.9708 40.3071 97.2452 36.6793 95.7941C36.0989 95.5038 35.6635 94.7783 35.9538 94.1979C36.244 93.6174 36.9696 93.1821 37.55 93.4723C40.5973 94.7783 45.6762 95.3587 51.0454 95.2136C56.4145 95.0685 61.7836 94.343 65.4114 93.037C66.137 92.7467 66.8625 93.1821 67.1527 93.7625Z" fill="white"/>
<path fill-rule="evenodd" clip-rule="evenodd" d="M7.94726 65.756C8.67282 65.6109 9.25326 65.9011 9.54349 66.6267C10.4142 69.8191 13.0262 74.1725 16.3637 78.3807C19.7013 82.5889 23.4742 86.3619 26.8118 88.3934C27.3922 88.8288 27.5373 89.5543 27.2471 90.1348C26.8118 90.7152 26.0862 90.8603 25.5058 90.5701C21.878 88.2483 17.6697 84.3303 14.3322 79.9769C10.9946 75.7687 8.09237 70.98 7.07659 67.3523C6.78637 66.6267 7.2217 65.9011 7.94726 65.756Z" fill="white"/>
<path fill-rule="evenodd" clip-rule="evenodd" d="M12.8811 25.9954C13.4615 26.4308 13.6066 27.1563 13.1713 27.7368C11.1397 30.3488 9.39839 35.1375 8.09239 40.3615C6.78638 45.5855 6.20594 50.9546 6.64127 54.8726C6.78638 55.5982 6.20593 56.1786 5.48038 56.3237C4.75482 56.4688 4.17437 55.8884 4.02926 55.1629C3.59393 50.8095 4.17437 45.1502 5.48038 39.781C6.78638 34.4119 8.67283 29.333 10.9946 26.2857C11.5751 25.7052 12.3006 25.7052 12.8811 25.9954Z" fill="white"/>
<path fill-rule="evenodd" clip-rule="evenodd" d="M46.9823 5.97009C46.9823 6.69564 46.5469 7.27609 45.8214 7.27609C41.9034 7.56631 36.8245 9.30765 31.8907 11.4843C27.102 13.8061 22.7486 16.5632 20.572 19.0301C20.1366 19.6106 19.266 19.6106 18.8306 19.1752C18.2502 18.7399 18.2502 17.8692 18.6855 17.4339C21.2975 14.5317 25.9411 11.6294 30.8749 9.30765C35.8087 6.98587 41.3229 5.24452 45.5312 4.80919C46.2567 4.66408 46.8372 5.24453 46.9823 5.97009Z" fill="white"/>
<path fill-rule="evenodd" clip-rule="evenodd" d="M55.689 5.97009C55.689 5.24453 56.2694 4.80919 56.995 4.80919C60.7679 5.09941 65.9919 6.84075 70.9257 9.16253C75.8595 11.6294 80.6481 14.6768 83.6955 17.8692C84.1308 18.3046 84.1308 19.1752 83.6955 19.6106C83.2602 20.0459 82.3895 20.0459 81.9541 19.6106C79.197 16.8534 74.6986 13.8061 69.9099 11.4843C65.1212 9.16254 60.3325 7.56631 56.995 7.4212C56.1243 7.27609 55.689 6.69564 55.689 5.97009Z" fill="white"/>
<path fill-rule="evenodd" clip-rule="evenodd" d="M89.2097 26.5759C89.7902 26.1406 90.5157 26.2857 90.9511 26.8661C93.1277 29.9135 95.0142 35.1375 96.3202 40.5066C97.4811 45.8757 98.0615 51.5351 97.6262 55.8884C97.4811 56.614 96.9006 57.0493 96.1751 56.9042C95.4495 56.7591 95.0142 56.1786 95.1593 55.4531C95.5946 51.5351 95.1593 46.1659 93.9984 40.9419C92.8375 35.7179 90.9511 30.9292 89.0646 28.3172C88.6293 27.7368 88.6293 27.0112 89.2097 26.5759Z" fill="white"/>
<path fill-rule="evenodd" clip-rule="evenodd" d="M93.9984 65.4658C94.7239 65.6109 95.0142 66.3365 94.8691 67.062C93.8533 70.6898 91.0961 75.4785 87.7586 79.8318C84.421 84.1852 80.3579 88.2483 76.7301 90.5701C76.1497 91.0054 75.4241 90.7152 74.9888 90.1347C74.5535 89.5543 74.8437 88.8287 75.4241 88.3934C78.7617 86.3619 82.5346 82.4438 85.8721 78.2356C89.2097 74.0274 91.6766 69.674 92.5473 66.3365C92.5473 65.756 93.2728 65.3207 93.9984 65.4658Z" fill="white"/>
</svg>
