<svg width="100" height="85" viewBox="0 0 100 85" fill="none" xmlns="http://www.w3.org/2000/svg">
<path d="M22.7891 69.4704V69.8105C22.6757 69.8105 21.0884 69.8105 21.0884 71.6246V79.9012C21.0884 81.1484 21.6553 83.5294 24.7165 83.5294C27.3243 83.5294 28.1179 80.9217 28.1179 79.3344V71.5112C28.1179 69.8105 26.5306 69.6972 26.3039 69.6972V69.4704H31.0658V69.8105C30.839 69.8105 29.1383 70.0373 29.1383 71.6246V78.8808C29.1383 80.4681 29.0249 84.5498 24.0363 84.5498C19.0476 84.5498 18.4807 81.2618 18.4807 80.128V71.6246C18.4807 69.8105 16.8934 69.8105 16.78 69.8105V69.4704H22.7891ZM8.5034 66.2958C10.9977 66.1824 12.3583 67.3162 13.1519 67.3162C13.4921 67.3162 13.8322 67.2028 14.059 66.9761H14.2857V71.738H13.8322C13.8322 71.738 13.6054 69.8106 12.1315 68.45C10.6576 67.2028 8.84354 67.2028 8.39002 67.3162C7.70975 67.4296 3.40136 67.7697 3.40136 75.4795C3.40136 83.0759 7.14286 83.416 8.39002 83.416C9.63719 83.416 10.8844 83.0759 12.0181 82.509V81.9421C12.0181 81.8287 12.0181 81.8287 12.0181 81.7153V77.8604C12.0181 76.1597 10.6576 76.0464 10.3175 76.0464V75.7062H16.4399V76.0464C16.2132 76.0464 14.7392 76.1597 14.7392 77.8604V84.0963C13.8322 83.6427 12.8118 83.7561 12.0181 83.8695C11.678 83.9829 11.3379 83.9829 10.9977 84.0963H10.8844C10.5442 84.2096 10.3175 84.2096 10.0907 84.2096C9.52381 84.323 8.95692 84.323 8.39002 84.323C4.19501 84.323 0 81.1484 0 75.7062C0 70.1507 3.51474 66.4092 8.5034 66.2958ZM95.0113 68.9035C97.2789 68.9035 97.5057 69.6972 98.2993 69.6972C98.5261 69.6972 98.7528 69.5838 98.9796 69.4704H99.2063V72.8718H98.9796C98.7528 72.1915 98.5261 71.6246 98.0725 71.0577C97.3923 70.1507 96.2585 69.6972 95.1247 69.6972C93.7642 69.6972 92.2902 70.6042 92.2902 72.1915C92.2902 74.3457 95.0113 74.7992 96.0317 75.1393C97.2789 75.5929 100 76.6133 100 79.6745C100 82.6223 97.619 84.0963 95.5782 84.0963C93.7642 84.0963 92.7438 83.3026 91.8367 83.3026C91.4966 83.3026 91.1565 83.5294 91.0431 83.8695H90.8163V78.9942H91.1565C91.3832 79.9012 91.7234 80.8083 92.2902 81.4886C93.1973 82.509 94.1043 83.0759 95.5782 83.0759C97.1655 83.0759 98.2993 82.1688 98.2993 80.5815C98.2993 78.9942 96.712 78.2006 94.6712 77.5203C92.8571 76.84 90.5896 75.7062 90.5896 73.3253C90.5896 70.9443 92.7438 68.9035 95.0113 68.9035ZM84.4671 68.9035C86.7347 68.9035 86.9614 69.6972 87.7551 69.6972C87.9819 69.6972 88.2086 69.5838 88.4354 69.4704H88.6621V72.8718H88.4354C88.2086 72.1915 87.9819 71.6246 87.5283 71.0577C86.8481 70.1507 85.7143 69.6972 84.5805 69.6972C83.3333 69.6972 81.746 70.6042 81.746 72.1915C81.746 74.3457 84.4671 74.7992 85.4875 75.1393C86.7347 75.5929 89.4558 76.6133 89.4558 79.6745C89.4558 82.6223 87.0748 84.0963 85.034 84.0963C83.2199 84.0963 82.1995 83.3026 81.2925 83.3026C80.9524 83.3026 80.6122 83.5294 80.4989 83.8695H80.1587V78.9942H80.4989C80.7256 79.9012 81.0657 80.8083 81.6326 81.4886C82.5397 82.509 83.4467 83.0759 84.9206 83.0759C86.5079 83.0759 87.6417 82.1688 87.6417 80.5815C87.6417 78.9942 86.0544 78.2006 84.0136 77.5203C82.1995 76.84 79.932 75.7062 79.932 73.3253C80.1587 70.9443 82.3129 68.9035 84.4671 68.9035ZM53.0612 69.4704V69.8105C53.0612 69.8105 51.2472 70.0373 51.2472 71.6246V84.0963H50.3401C50 83.6427 41.4966 71.8514 41.3832 71.738C40.2494 70.0373 38.8889 69.9239 38.8889 69.9239V69.4704H43.424L50.2267 78.9942V71.6246C50.2267 69.9239 48.2993 69.8105 48.2993 69.8105V69.4704H53.0612ZM67.8004 69.4704V69.8105C67.8004 69.8105 65.9864 70.0373 65.9864 71.6246V84.0963H65.0794C65.0794 84.0963 56.2358 71.8514 56.1224 71.738C54.9887 70.0373 53.6281 69.9239 53.6281 69.9239V69.4704H58.1633L64.966 78.9942V71.6246C64.966 69.9239 63.0385 69.8105 63.0385 69.8105V69.4704H67.8004ZM78.2313 69.4704V72.3049H78.0045C78.0045 72.3049 78.0045 71.5112 77.0975 70.9443C76.5306 70.4908 75.2834 70.4908 74.4898 70.4908H74.263C74.1496 70.4908 74.0363 70.4908 73.9229 70.4908H72.449V75.7062H73.6961C74.263 75.7062 75.5102 75.7062 75.9637 75.3661C76.4172 75.026 76.644 74.5725 76.644 74.1189H76.8707V78.4273H76.644C76.5306 77.9738 76.3038 77.5203 75.9637 77.1802C75.5102 76.84 74.1496 76.84 73.6961 76.84H72.5623V83.0759H74.9433C76.1905 83.0759 77.0975 82.6223 77.6644 81.9421C78.0045 81.4885 78.3447 80.9217 78.4581 80.2414H78.7982L78.1179 83.9829H68.7075V83.6427C68.9342 83.6427 70.1814 83.5294 70.1814 81.8287V71.3978C70.1814 69.6972 68.9342 69.5838 68.7075 69.5838V69.4704H78.2313ZM37.6417 69.4704V69.8105C37.5283 69.8105 36.0544 69.8105 36.0544 71.6246V82.0554C36.0544 83.7561 37.3016 83.8695 37.5283 83.8695V84.2096H31.9728V83.8695C32.1995 83.8695 33.4467 83.7561 33.4467 82.0554V71.6246C33.4467 69.8105 31.9728 69.8105 31.8594 69.8105V69.4704H37.6417ZM40.9297 71.8514L41.9501 73.3253V81.9421C41.9501 83.5294 43.8775 83.7561 43.8775 83.7561V84.0963H39.1156V83.7561C39.1156 83.7561 40.9297 83.5294 40.9297 81.9421V71.8514ZM55.5555 71.8514L56.576 73.3253V81.9421C56.576 83.5294 58.5034 83.7561 58.5034 83.7561V84.0963H53.7415V83.7561C53.7415 83.7561 55.5555 83.5294 55.5555 81.9421V71.8514Z" fill="white"/>
<path d="M25.1701 7.9058C25.1701 4.84457 29.025 -3.54545 43.6508 1.66997C58.39 6.88539 66.8934 3.59741 70.5216 0.0826731C70.5216 0.0826731 73.0159 3.14389 74.8299 8.47269C73.5828 9.71985 72.3356 10.6269 70.9751 11.4205C73.9229 33.6428 64.2857 45.6609 59.8639 51.67C56.3492 56.3185 56.0091 58.3593 57.2562 60.4001C52.6077 62.4409 48.4127 61.3072 46.8254 60.967C46.2585 60.06 45.6916 59.0396 45.3515 58.0192C44.3311 58.8128 43.6508 59.2663 43.3107 59.4931C43.3107 59.4931 43.1973 59.6065 43.0839 59.4931C42.9705 59.4931 42.9705 59.3797 42.9705 59.3797C38.6621 49.5158 35.4875 32.3956 31.0658 15.0487C30.6123 13.348 30.0454 13.2346 29.5918 13.2346C29.5918 13.2346 29.5918 13.2346 29.7052 13.2346C25.6236 13.0078 25.1701 9.4931 25.1701 7.9058ZM64.8526 13.5747L52.7211 41.1258C53.8549 42.9398 55.2154 44.6405 56.576 45.3208C66.3265 31.2618 64.966 15.162 64.8526 13.5747ZM64.059 13.5747C63.3787 13.5747 62.8118 13.5747 62.1315 13.5747L51.2472 38.518C51.5873 39.0849 51.9274 39.7652 52.2676 40.4455L64.059 13.5747ZM59.7506 13.348L50 35.797C50.2268 36.2505 50.5669 36.9307 51.0204 37.8378L61.5646 13.5747C60.8844 13.4614 60.3175 13.4614 59.7506 13.348ZM57.3696 12.8945L48.6395 32.9625C48.9796 33.7561 49.3197 34.5498 49.6599 35.0033L59.1837 13.2346C58.5034 13.1212 57.9365 13.0078 57.3696 12.8945ZM55.102 12.2142L47.2789 30.128C47.6191 30.9217 47.9592 31.6019 48.1859 32.2822L56.6893 12.7811C56.1224 12.5543 55.6689 12.3276 55.102 12.2142ZM52.8345 11.4205L45.9184 27.1802C46.2585 27.8604 46.5986 28.6541 46.8254 29.3344L54.4218 11.9874C53.9683 11.7607 53.4014 11.5339 52.8345 11.4205ZM50.6803 10.4001L44.6712 24.2323C45.0113 24.9126 45.3515 25.7063 45.5782 26.3865L52.2676 11.0804C51.7007 10.8536 51.2472 10.6269 50.6803 10.4001ZM48.5261 9.4931L43.3107 21.3979C43.5374 21.9648 43.7642 22.4183 43.9909 22.9852L44.2177 23.5521L50 10.2868C49.5465 9.94662 48.9796 9.71986 48.5261 9.4931ZM46.3719 8.47269L42.0635 18.45C42.4036 19.1303 42.7438 19.8106 42.9705 20.6042L47.9592 9.26634C47.3923 8.92621 46.9388 8.69945 46.3719 8.47269ZM44.2177 7.45229L40.703 15.5022C41.0431 16.1824 41.2698 16.8627 41.61 17.6564L45.6916 8.24593C45.2381 7.9058 44.7846 7.67904 44.2177 7.45229ZM42.0635 6.54525L39.4558 12.5543C39.7959 13.2346 40.0227 13.9149 40.3628 14.7085L43.6508 7.22553C43.0839 6.99877 42.6304 6.77201 42.0635 6.54525ZM34.6939 4.7312H34.4671C35.1474 5.07133 36.2812 5.52485 37.7551 8.81283C37.7551 8.81283 37.9819 9.26634 38.322 10.1734L38.4354 10.5135C38.5488 10.8536 38.7755 11.3072 39.0023 11.874L41.3832 6.3185C38.8889 5.29809 37.6417 4.95795 36.2812 4.84457H36.1678C35.8277 4.7312 35.2608 4.7312 34.6939 4.7312ZM30.7256 6.77201C30.6123 6.77201 30.4989 6.77201 30.4989 6.77201C30.0454 6.77201 29.7052 6.99877 29.3651 7.3389C29.025 7.67904 28.9116 8.13256 28.9116 8.58607C28.9116 9.60648 29.7052 10.4001 30.7256 10.4001C31.746 10.4001 32.5397 9.60648 32.5397 8.58607C32.5397 7.67904 31.746 6.77201 30.7256 6.77201Z" fill="white"/>
<path d="M50.5669 59.9466C50.4535 60.06 50.3401 60.1734 50.2268 60.2867C49.6599 60.5135 49.093 60.6269 48.4127 60.6269C48.7528 60.5135 49.093 60.4001 49.4331 60.2867C49.8866 60.06 50.2268 59.9466 50.5669 59.9466ZM51.0204 59.0396L50.907 59.2663C50.7937 59.4931 50.6803 59.6065 50.5669 59.8332C50.1134 59.9466 49.7733 59.9466 49.3197 60.1734C48.8662 60.2867 48.5261 60.5135 48.0726 60.6269C47.6191 60.6269 47.2789 60.5135 46.8254 60.4001L46.712 60.2867C47.0522 60.1734 47.3923 60.06 47.7324 59.8332C48.186 59.7198 48.6395 59.4931 49.2064 59.2663C50 59.153 50.4535 59.0396 51.0204 59.0396ZM51.4739 58.1325C51.3606 58.3593 51.2472 58.5861 51.1338 58.9262H51.0204C50.4535 58.9262 50 59.0396 49.4331 59.2663C48.9796 59.3797 48.4127 59.6065 47.9592 59.8332C47.6191 59.9466 47.2789 60.1734 46.8254 60.2867C46.712 60.06 46.4853 59.8332 46.3719 59.6065C46.9388 59.4931 47.3923 59.2663 47.8458 59.0396C48.2993 58.9262 48.7528 58.6994 49.3197 58.4727C49.7733 58.2459 50.3402 58.1325 50.907 58.1325C51.1338 58.1325 51.3606 58.1325 51.4739 58.1325ZM31.0658 4.95795C32.0862 4.73119 35.034 4.1643 36.9615 8.35931L38.8889 12.5543L38.5488 13.348L38.8889 14.1416L39.6826 12.3276L40.1361 12.1008L40.703 13.1212L39.4558 13.9149L40.2494 15.6155L39.9093 16.4092L40.2494 17.2028L41.0431 15.2754L41.4966 15.0486L42.0635 16.0691L40.8163 16.8627L41.61 18.5634L41.2699 19.4704L41.61 20.2641L42.517 18.2233L42.9705 17.9965L43.6508 19.0169L42.2903 19.8105C42.517 20.3774 42.7438 20.831 42.9705 21.5112L42.517 22.4183L42.8572 23.2119L43.7642 21.0577L44.1043 20.831L44.7846 21.9647L43.424 22.7584C43.6508 23.3253 43.8776 23.7788 44.1043 24.3457L43.6508 25.2527L43.9909 26.0464L45.0113 23.7788L45.3515 23.552L46.0318 24.7992L44.6712 25.7062C44.898 26.2731 45.1247 26.7267 45.3515 27.2935L44.898 28.3139L45.2381 29.1076L46.2585 26.7267L46.5987 26.4999L47.3923 27.7471L45.9184 28.6541C46.1451 29.221 46.3719 29.6745 46.5987 30.2414L46.2585 31.2618L46.5987 32.0554L47.6191 29.6745L47.9592 29.4477L48.7528 30.6949L47.2789 31.6019C47.6191 32.2822 47.7324 32.509 47.9592 33.0759L47.5057 34.0963L47.8458 34.8899L48.8662 32.3956L49.2064 32.1688L50 33.5294L48.5261 34.4364C48.8662 35.1167 48.9796 35.3434 49.2064 35.9103L48.7528 36.9307L49.093 37.7244L50.1134 35.3434L50.4535 35.1167L51.2472 36.4772L49.7733 37.3842C49.8866 37.611 49.7733 37.4976 49.8866 37.611C50.1134 37.9511 50.2268 38.4047 50.4535 38.7448L50 39.7652C50.1134 39.992 50.2268 40.2187 50.3402 40.4455L51.3606 38.1779L51.7007 37.9511L52.4943 39.1983L51.1338 39.992C51.4739 40.5588 51.5873 40.7856 51.9274 41.2391L51.4739 42.2595C51.5873 42.3729 51.7007 42.5997 51.8141 42.8264H51.9274L52.7211 41.0124L53.0612 40.7856L53.6281 41.806L52.6077 42.3729C53.8549 44.0736 55.2154 45.4341 56.4626 45.4341H56.3492C56.6894 44.9806 56.9161 44.6405 56.9161 44.6405C55.5556 47.2482 56.0091 48.6087 54.195 50.9897C67.0068 38.9715 69.9547 27.6337 70.7483 16.5226C70.8617 19.1303 70.7483 21.738 70.5216 24.3457H70.4082L70.2948 24.5725H70.4082C70.4082 24.7992 70.4082 25.026 70.2948 25.2527L70.068 25.3661L69.9547 25.5929L70.1814 25.4795C70.1814 25.7062 70.068 25.933 70.068 26.1598L69.7279 26.2731L69.6145 26.4999L69.9547 26.3865L69.8413 27.0668L69.5011 27.1802L69.3878 27.4069L69.8413 27.2935C69.8413 27.5203 69.7279 27.7471 69.7279 27.9738C69.6145 27.9738 69.3878 28.0872 69.2744 28.0872L69.161 28.3139C69.3878 28.3139 69.5011 28.314 69.7279 28.2006C69.7279 28.4273 69.6145 28.6541 69.6145 28.8808C69.3878 28.8808 69.2744 28.9942 69.0476 28.9942L68.9342 29.221C69.161 29.221 69.3878 29.221 69.5011 29.1076C69.5011 29.3344 69.3878 29.5611 69.3878 29.7879C69.161 29.7879 68.9343 29.7879 68.7075 29.9013L68.5941 30.128H68.7075C68.9343 30.128 69.0476 30.128 69.2744 30.128C69.2744 30.3548 69.161 30.5815 69.161 30.8083C69.0476 30.8083 68.8209 30.8083 68.7075 30.8083H68.3674L68.254 31.035C68.3674 31.035 68.4807 31.035 68.5941 31.035H68.9342C68.9342 31.2618 68.8209 31.4886 68.7075 31.7153H68.4807C68.254 31.7153 68.0272 31.7153 67.9138 31.7153L67.8005 31.9421C68.0272 31.9421 68.254 32.0554 68.4807 32.0554H68.5941C68.4807 32.2822 68.4807 32.509 68.3674 32.7357C68.0272 32.7357 67.8005 32.7357 67.4603 32.6223L67.347 32.8491C67.6871 32.9625 67.9139 32.9625 68.254 32.9625C68.1406 33.1892 68.1406 33.416 68.0272 33.5294C67.6871 33.5294 67.4603 33.416 67.1202 33.3026L67.0068 33.5294C67.347 33.6428 67.5737 33.6428 67.9138 33.7561L67.6871 34.323C67.347 34.323 67.1202 34.2096 66.7801 34.0963L66.6667 34.323H66.7801C67.1202 34.4364 67.347 34.5498 67.6871 34.5498L67.4603 35.1167C67.2336 35.1167 67.0068 35.0033 66.8934 34.8899L66.5533 34.7765L66.4399 35.0033L66.7801 35.1167C67.0068 35.23 67.2336 35.2301 67.347 35.3434L67.1202 35.9103L66.7801 35.7969C66.5533 35.6836 66.3265 35.6836 66.0998 35.5702L65.9864 35.7969C66.2132 35.9103 66.4399 36.0237 66.6667 36.1371L67.0068 36.2505L66.7801 36.8173L66.5533 36.704C66.3265 36.5906 65.9864 36.4772 65.7596 36.3638L65.6463 36.5906C65.9864 36.704 66.3265 36.9307 66.6667 37.0441L66.4399 37.611C66.0998 37.4976 65.7596 37.2709 65.3061 37.1575L65.1927 37.3842C65.5329 37.4976 65.873 37.7244 66.3265 37.8378L66.0998 38.4047L65.3061 38.0645L64.966 37.9511L64.8526 38.1779L65.1927 38.2913C65.5329 38.4047 65.7597 38.518 65.9864 38.6314L65.7596 39.1983L65.3061 38.9715L64.6259 38.6314L64.5125 38.8582L65.1927 39.1983L65.6463 39.3117L65.4195 39.8786H65.3061C64.966 39.7652 64.6259 39.5384 64.1723 39.4251L64.059 39.6518C64.3991 39.7652 64.8526 39.992 65.1927 40.1053H65.3061L65.0794 40.6722C64.6259 40.4455 64.2857 40.3321 63.8322 40.2187L63.7188 40.4455H63.8322C64.2857 40.5589 64.6259 40.7856 65.0794 40.899L64.8526 41.4659C64.6259 41.3525 64.2857 41.2391 63.9456 41.1257C63.8322 41.1257 63.6054 41.0124 63.4921 41.0124L63.3787 41.2391C63.6055 41.2391 63.7188 41.3525 63.9456 41.3525C64.2857 41.4659 64.5125 41.5793 64.7392 41.6926L64.3991 42.2595C64.2857 42.2595 64.059 42.1462 63.9456 42.1462C63.6055 42.0328 63.2653 41.9194 62.9252 41.9194L62.8118 42.1462C63.1519 42.1462 63.4921 42.2595 63.8322 42.3729L64.2857 42.4863L63.9456 43.0532C63.4921 42.9398 62.9252 42.8264 62.3583 42.8264L62.2449 43.0532H62.3583C62.8118 43.0532 63.3787 43.0532 63.8322 43.2799L63.4921 43.8468C63.1519 43.7335 62.6984 43.7335 62.3583 43.7335C62.1315 43.7335 61.9048 43.7335 61.7914 43.8468L61.678 44.0736C61.9048 43.9602 62.2449 43.9602 62.4717 43.9602C62.8118 43.9602 63.1519 43.9602 63.4921 44.0736L63.1519 44.6405C62.9252 44.6405 62.6984 44.6405 62.4717 44.6405C62.0182 44.6405 61.5646 44.7539 61.1111 44.9806L60.8844 45.2074C61.3379 44.9806 61.9048 44.9806 62.3583 44.8672C62.585 44.8672 62.6984 44.8672 62.9252 44.8672L62.4717 45.5475H62.3583C61.7914 45.5475 61.3379 45.6609 60.771 45.8876C60.5442 46.001 60.3175 46.001 60.0907 46.1144L59.864 46.3412C60.2041 46.2278 60.5442 46.1144 60.8844 46.001C61.3379 45.8877 61.7914 45.7743 62.3583 45.6609C62.2449 45.8876 62.0181 46.1144 61.7914 46.4545C61.4513 46.5679 61.1111 46.5679 60.8844 46.6813C60.4309 46.7947 59.864 47.0214 59.4104 47.2482L59.1837 47.3616L58.9569 47.5883L59.5238 47.3616C59.9773 47.2482 60.5442 47.0214 60.9977 46.7947C61.2245 46.6813 61.4513 46.6813 61.678 46.5679C61.4513 46.9081 61.2245 47.1348 60.9977 47.3616H60.8844C60.4309 47.4749 59.864 47.7017 59.4104 47.9285C58.9569 48.1552 58.5034 48.2686 58.0499 48.382L57.8231 48.6087H57.9365C58.5034 48.4954 58.9569 48.2686 59.4104 48.0418C59.864 47.8151 60.3175 47.7017 60.771 47.5883C60.5442 47.9285 60.2041 48.2686 59.9773 48.4954L59.4104 48.7221C58.9569 48.9489 58.5034 49.0622 57.9365 49.289C57.5964 49.4024 57.3696 49.4024 57.0295 49.5158L56.8027 49.7425C57.1429 49.7425 57.5964 49.6291 57.9365 49.5158C58.5034 49.4024 58.9569 49.1756 59.4104 48.9489L59.7506 48.8355C59.4105 49.1756 59.1837 49.5158 58.8436 49.8559C58.5034 49.9693 58.1633 50.0827 57.9365 50.196C57.483 50.3094 56.9161 50.4228 56.3492 50.4228H56.8027L56.6893 50.5362C56.8027 50.5362 56.9161 50.5362 57.0295 50.5362C57.5964 50.5362 58.0499 50.4228 58.6168 50.3094C58.8436 50.196 59.0703 50.196 59.2971 50.0827C58.9569 50.4228 58.7302 50.7629 58.39 51.1031C57.9365 51.2164 57.483 51.3298 57.0295 51.3298C56.6894 51.3298 56.3492 51.3298 56.0091 51.2164L55.8957 51.3298C56.2358 51.4432 56.576 51.4432 57.0295 51.4432C57.3696 51.4432 57.8231 51.4432 58.1633 51.3298L57.3696 52.2369H57.0295C56.4626 52.2369 56.0091 52.1235 55.5556 51.8967H55.4422L55.3288 52.0101L55.5556 52.1235C56.0091 52.3502 56.576 52.4636 57.1429 52.4636H57.2562L56.576 53.1439C56.2358 53.1439 55.8957 53.0305 55.5556 52.9171C55.3288 52.8037 54.9887 52.6904 54.7619 52.577L54.6485 52.6904C54.8753 52.8037 55.2154 52.9171 55.5556 53.0305C55.8957 53.1439 56.2358 53.2573 56.4626 53.2573L55.8957 53.8242L55.5556 53.7108C55.102 53.5974 54.6485 53.3706 54.0817 53.1439L53.9683 53.2573L54.195 53.3706C54.5352 53.5974 54.9887 53.7108 55.4422 53.8242L55.7823 53.9375L55.3288 54.5044C54.8753 54.3911 54.5352 54.1643 54.0817 53.9375L53.5148 53.7108V53.8242L54.195 54.1643C54.5352 54.2777 54.9887 54.5044 55.3288 54.6178L54.8753 55.1847L54.195 54.9579C53.7415 54.7312 53.4014 54.6178 52.9479 54.391L52.8345 54.5044C53.288 54.6178 53.7415 54.8446 54.195 55.0713L54.7619 55.2981L54.3084 55.865H54.195C53.7415 55.6382 53.1746 55.4115 52.7211 55.2981C52.4943 55.2981 52.381 55.1847 52.1542 55.1847L52.0408 55.2981C52.2676 55.2981 52.4943 55.4115 52.6077 55.4115C53.0612 55.6382 53.6281 55.7516 54.0817 55.9784L53.6281 56.5452C53.288 56.4319 52.9479 56.3185 52.6077 56.2051C52.1542 56.0917 51.7007 55.9784 51.1338 55.9784V54.7312C51.7007 54.7312 52.1542 54.7312 52.6077 54.9579C52.9479 55.0713 53.288 55.1847 53.6281 55.2981L53.1746 55.865C53.0612 55.7516 52.8345 55.7516 52.7211 55.6382C52.2676 55.4115 51.7007 55.4115 51.1338 55.4115C50.7937 55.4115 50.4535 55.5248 50.1134 55.6382L49.8866 55.7516C50.3402 55.6382 50.6803 55.5248 51.1338 55.5248C51.7007 55.5248 52.1542 55.5248 52.7211 55.7516C52.8345 55.7516 53.0612 55.865 53.1746 55.865C53.0612 56.0917 52.8345 56.2051 52.7211 56.4319C52.2676 56.3185 51.7007 56.2051 51.1338 56.2051C50.5669 56.2051 50.1134 56.3185 49.5465 56.5452C49.093 56.6586 48.7528 56.8854 48.4127 56.9988L48.186 57.2255C48.6395 56.9988 49.093 56.8854 49.6599 56.6586C50.1134 56.4319 50.6803 56.3185 51.2472 56.3185C51.7007 56.3185 52.2676 56.3185 52.7211 56.5452C52.6077 56.772 52.381 56.9988 52.2676 57.1121C51.9275 56.9988 51.5873 56.9988 51.2472 56.9988C50.6803 56.9988 50.2268 57.1121 49.6599 57.3389C49.2064 57.4523 48.6395 57.679 48.186 57.9058C47.7324 58.1325 47.2789 58.2459 46.712 58.4727L46.5987 58.5861H46.712C47.2789 58.4727 47.7324 58.2459 48.186 58.0192C48.6395 57.9058 49.093 57.679 49.6599 57.4523C50.1134 57.2255 50.6803 57.1121 51.2472 57.1121C51.5873 57.1121 51.8141 57.1121 52.1542 57.2255C52.0408 57.4523 51.8141 57.679 51.7007 57.9058C51.4739 57.9058 51.3606 57.9058 51.1338 57.9058C50.5669 57.9058 50.1134 58.0192 49.5465 58.2459C49.093 58.3593 48.5261 58.5861 48.0726 58.8128C47.6191 59.0396 47.1655 59.153 46.5987 59.3797L46.4853 59.4931C46.2585 59.1529 46.2585 59.0396 46.1451 58.9262C46.0318 58.8128 45.9184 59.0396 45.805 59.0396L45.2381 57.9058C46.712 57.2255 48.7528 55.1847 50.6803 52.9171C48.186 49.1756 44.898 40.5589 41.61 31.8287L41.2699 30.8083C41.0431 30.3548 40.9297 29.7879 40.703 29.3344L40.3628 28.3139C37.9819 21.738 35.7143 15.3888 33.9002 10.967C33.9002 10.8536 33.7869 10.7403 33.6735 10.7403C33.5601 10.7403 33.4467 10.7403 33.3334 10.7403C32.8798 11.0804 32.3129 11.1938 31.746 11.3071C33.1066 10.7403 33.7869 9.15296 33.3334 7.79241L33.5601 8.35931C34.127 9.60647 34.5805 10.8536 35.034 12.1008L35.8277 11.7607L36.5079 11.5339L36.9615 11.4205H37.0748C36.3946 9.83323 35.9411 8.69945 35.7143 8.13255C34.5805 5.07133 32.5397 4.73119 31.0658 4.95795ZM40.0227 48.2686C40.5896 49.289 42.2903 54.0509 43.5374 56.5452C43.8776 57.2255 44.2177 57.679 45.1247 57.2255L46.2585 56.6586C45.805 57.1121 45.2381 57.5657 44.6712 57.9058C44.1043 58.2459 43.5374 57.9058 43.0839 56.8854C42.2903 55.5248 40.703 50.6496 40.0227 48.2686ZM45.2381 50.5362C45.5782 50.4228 45.9184 50.4228 46.2585 50.5362C46.5986 50.6496 46.8254 50.9897 46.9388 51.3298C47.0522 51.67 47.0522 52.0101 46.8254 52.3502C46.712 52.6904 46.3719 52.9171 46.0318 53.0305C45.5782 53.2573 45.1247 53.2573 44.6712 53.1439C43.9909 52.9171 43.4241 52.4636 42.9705 51.8967C42.9705 51.8967 42.9705 51.7833 42.8572 51.7833V51.67L42.9705 51.5566L43.1973 51.3298C43.1973 51.3298 43.1973 51.3298 43.3107 51.3298C43.3107 51.3298 43.3107 51.3298 43.424 51.4432V51.5566C43.6508 51.8967 43.8776 52.1235 44.2177 52.3502C44.4445 52.4636 44.6712 52.577 44.7846 52.577C44.5578 52.4636 44.4445 52.3502 44.4445 52.1235C44.2177 51.4432 44.5578 50.7629 45.2381 50.5362ZM45.9184 51.2164C45.805 51.1031 45.5782 51.1031 45.4649 51.2164C45.2381 51.2164 45.1247 51.3298 45.0113 51.5566C44.898 51.67 44.898 51.8967 45.0113 52.1235C45.1247 52.4636 45.5782 52.577 45.805 52.4636C45.9184 52.4636 46.1451 52.3502 46.1451 52.2369C46.2585 52.1235 46.2585 51.8967 46.2585 51.7833C46.2585 51.4432 46.1451 51.2164 45.9184 51.2164ZM51.5873 51.2164H51.4739C51.5873 51.3298 51.7007 51.4432 51.7007 51.5566C51.8141 51.4432 51.9274 51.3298 51.9274 51.2164C51.8141 51.2164 51.7007 51.2164 51.5873 51.2164ZM50.907 50.4228C51.0204 50.6495 51.2472 50.8763 51.3606 51.2164H51.2472C51.5873 51.2164 51.8141 51.2164 52.0408 51.2164C52.1542 50.9897 52.381 50.7629 52.4943 50.6495C52.0408 50.4228 51.4739 50.3094 50.907 50.4228ZM50.5669 49.6291H50.3402C50.4535 49.8559 50.6803 50.0827 50.7937 50.3094H50.6803C51.3606 50.196 52.0408 50.3094 52.6077 50.5362C52.7211 50.3094 52.9479 50.196 53.0612 49.9693C52.1542 49.5158 51.3606 49.4024 50.5669 49.6291ZM45.2381 47.0214L45.3515 47.1348L45.9184 48.8355V48.9489C45.9184 48.9489 45.9184 48.9489 45.805 48.9489H45.3515C45.2381 48.9489 45.2381 48.9489 45.2381 48.8355L44.898 47.7017H44.7846L44.1043 47.9285C44.3311 48.0418 44.4445 48.2686 44.4445 48.4954C44.6712 49.0622 44.3311 49.7425 43.6508 49.9693C43.3107 50.0827 42.9705 50.0827 42.6304 49.9693C42.2903 49.8559 42.0635 49.6291 41.9501 49.289C41.7234 48.9489 41.7234 48.382 41.9501 48.0418C41.9501 48.0418 41.9501 48.0418 41.9501 47.9285C41.9501 47.9285 41.9501 47.9285 42.0635 47.9285H42.1769L42.6304 48.0418C42.6304 48.0418 42.6304 48.0418 42.6304 48.1552C42.517 48.382 42.4036 48.6087 42.517 48.8355C42.6304 49.0623 42.7438 49.1756 42.8572 49.1756C43.0839 49.289 43.1973 49.289 43.424 49.1756C43.7642 49.0623 43.8776 48.7221 43.7642 48.4954C43.7642 48.2686 43.5374 48.1552 43.424 48.1552H43.3107C43.3107 48.1552 43.3107 48.1552 43.1973 48.1552L43.0839 47.9285L42.9705 47.7017C42.9705 47.7017 42.9705 47.7017 42.9705 47.5883C42.9705 47.5883 42.9705 47.5883 43.0839 47.5883L45.2381 47.0214ZM50.1134 48.8355L49.8866 48.9489C50 49.1756 50.1134 49.4024 50.2268 49.6291H50.3402C51.1338 49.5158 51.9274 49.5158 53.0612 49.9693C53.1746 49.7425 53.4014 49.6291 53.5148 49.4024C52.1542 48.6087 51.0204 48.4954 50.1134 48.8355ZM49.5465 48.1552C49.6599 48.382 49.7733 48.6087 49.8866 48.8355H50C50 48.8355 50 48.8355 50.1134 48.8355C51.1338 48.4954 52.2676 48.6087 53.7415 49.289C53.8549 49.0622 53.9683 48.9489 54.195 48.7221L53.8549 48.4954L53.5148 48.382L53.4014 48.2686C52.0408 47.7017 50.907 47.7017 49.5465 48.1552ZM49.093 47.475C49.2064 47.7017 49.3197 47.9285 49.4331 48.0418H49.3197C50.7937 47.475 51.9275 47.5883 53.288 48.0418L53.4014 48.1552L53.8549 48.382L54.195 48.4954C54.3084 48.2686 54.5352 48.1552 54.6485 47.9285H54.5352L53.6281 47.475C52.1542 46.7947 50.7937 46.6813 49.093 47.475ZM54.7619 47.2482L54.5352 47.1348L53.8549 46.7947C52.0408 45.8876 50.6803 45.7743 48.7528 46.6813C48.8662 46.908 48.9796 47.1348 49.093 47.3616L48.9796 47.475C50.6803 46.5679 52.0408 46.6813 53.5148 47.3616L53.7415 47.475L54.4218 47.8151C54.5352 47.8151 54.5352 47.9285 54.6485 47.9285C54.7619 47.7017 54.8753 47.5883 55.1021 47.3616C54.9887 47.3616 54.8753 47.2482 54.7619 47.2482ZM48.4127 46.001C48.4127 46.2278 48.5261 46.4545 48.6395 46.6813L48.5261 46.7947C50.5669 45.7743 52.0408 45.8876 53.7415 46.6813L54.6485 47.1348C54.7619 47.2482 54.9887 47.2482 55.1021 47.3616C55.2154 47.1348 55.4422 46.908 55.5556 46.6813C55.3288 46.5679 54.9887 46.5679 54.6485 46.3412L54.3084 46.2278L53.8549 46.001C52.0408 44.9806 50.6803 44.8672 48.4127 46.001ZM50.5669 44.4137C50.1134 44.5271 49.5465 44.6405 49.093 44.8672C48.7528 44.9806 48.5261 45.094 48.186 45.2074L47.9592 45.3208C48.0726 45.5475 48.186 45.7743 48.2993 46.001H48.186C50.5669 44.8672 51.9274 44.9806 53.8549 45.8876L54.5352 46.2278H54.6485C55.1021 46.4545 55.3288 46.5679 55.6689 46.5679C55.7823 46.3412 56.0091 46.1144 56.1225 46.001L56.3492 46.1144C56.0091 46.001 55.669 45.8877 55.2154 45.7743C53.9683 45.8877 52.9479 45.3208 52.0408 44.5271C51.7007 44.3003 51.1338 44.3003 50.5669 44.4137ZM44.1043 43.7335L44.7846 45.6609C44.7846 45.6609 44.7846 45.6609 44.7846 45.7743C44.7846 45.7743 44.7846 45.7743 44.7846 45.8876L44.2177 46.1144C44.2177 46.1144 43.7642 46.001 43.1973 45.8876H42.9705C42.8572 45.8876 42.7438 45.8877 42.6304 45.7743C42.0635 45.6609 41.4966 45.6609 40.9297 45.8876C40.9297 45.8876 40.9297 45.8876 40.8163 45.8876L40.5896 45.2074C40.5896 45.2074 40.5896 45.2074 40.5896 45.094C40.5896 45.094 40.5896 45.094 40.703 45.094C41.2699 44.9806 41.9501 44.9806 42.517 45.2074C42.9705 45.3208 43.424 45.4341 43.8776 45.5475H43.9909L43.5374 44.187V44.0736L43.8776 43.9602C43.9909 43.6201 44.1043 43.7335 44.1043 43.7335ZM56.4626 45.3208C56.1225 45.4341 55.7823 45.5475 55.4422 45.5475C55.669 45.6609 55.8957 45.6609 56.0091 45.7743H56.1225C56.2358 45.6609 56.3492 45.5475 56.4626 45.3208ZM51.2472 43.5067C50.907 43.5067 50.3401 43.6201 49.6599 43.8468C49.4331 43.9602 49.2064 43.9602 48.9796 44.0736C48.7528 44.187 48.6395 44.187 48.4127 44.3003L48.0726 44.4137L47.7324 44.5271C47.8458 44.7539 47.9592 44.9806 48.0726 45.2074L48.2993 45.094C48.5261 44.9806 48.8662 44.8672 49.2064 44.7539C49.7733 44.5271 50.2268 44.4137 50.6803 44.3003C51.2472 44.187 51.7007 44.187 52.0408 44.3003C51.7007 44.0736 51.4739 43.7335 51.2472 43.5067ZM50.6803 42.713C50.5669 42.713 50.4535 42.713 50.3402 42.713H50.1134L49.8866 42.8264L49.6599 42.9398L49.4331 43.0532L49.2064 43.1666L48.8662 43.2799L48.7528 43.3933C48.6395 43.3933 48.4127 43.5067 48.2993 43.5067L47.3923 43.8468C47.5057 44.0736 47.6191 44.3003 47.7324 44.5271L48.0726 44.4137H48.186C48.5261 44.3003 48.7528 44.187 49.093 44.0736C49.3197 43.9602 49.5465 43.9602 49.7733 43.8468H49.8866L50.2268 43.7335C50.6803 43.6201 51.0204 43.5067 51.3606 43.5067C51.0204 43.1666 50.7937 42.9398 50.6803 42.713ZM50.2268 41.9194C50.1134 41.9194 50.1134 41.9194 50.2268 41.9194L50 42.0328H49.7733L49.5465 42.1462L49.2064 42.2595L48.9796 42.3729L48.7528 42.4863L48.4127 42.5997L47.8458 42.8264L47.0522 43.1666H46.9388C47.0522 43.3933 47.1655 43.6201 47.2789 43.8468L47.7324 43.6201C47.8458 43.5067 48.0726 43.5067 48.186 43.3933L48.6395 43.2799L48.9796 43.1666L49.3197 43.0532L49.5465 42.9398L49.7733 42.8264L50 42.713H50.2268H50.4535C50.5669 42.713 50.5669 42.713 50.6803 42.713C50.4535 42.3729 50.3401 42.1461 50.2268 41.9194ZM43.1973 41.4659L43.5374 41.9194C43.5374 41.9194 43.5374 42.0328 43.424 42.0328L40.1361 43.2799H40.0227C40.0227 43.2799 40.0227 43.2799 39.9093 43.1666L39.7959 42.713C39.7959 42.713 39.7959 42.713 39.7959 42.5997C39.7959 42.5997 39.7959 42.5997 39.9093 42.5997L43.0839 41.4659H43.1973ZM49.7733 41.2391L49.5465 41.3525L49.093 41.4659L47.0522 42.2595L46.712 42.3729C46.8254 42.5997 46.9388 42.8264 47.0522 43.0532L47.2789 42.9398L47.8458 42.713L48.4127 42.4863L48.7528 42.3729L49.2064 42.2595L49.4331 42.1462L49.7733 42.0328H50H50.1134H50.2268H50.3402C50.2268 41.9194 50.2268 41.806 50.1134 41.5793L49.7733 41.2391ZM49.3197 40.4455L49.093 40.5588L47.6191 41.1257L47.0522 41.3525L46.712 41.4659L46.4853 41.5793H46.3719C46.3719 41.5793 46.3719 41.5793 46.2585 41.5793H46.1451C46.2585 41.806 46.3719 42.0328 46.4853 42.2595H46.5987L47.5057 41.9194L48.7528 41.4659L49.2064 41.3525L49.4331 41.2391H49.5465L49.4331 41.0124L49.3197 40.899C49.4331 40.6722 49.4331 40.5589 49.3197 40.4455ZM48.9796 39.7652L47.5057 40.3321L47.0522 40.4455L46.8254 40.5588L46.5987 40.6722L46.3719 40.7856H46.1451H46.0318H45.9184C46.0318 41.0124 46.1451 41.2391 46.2585 41.4659H46.3719H46.4853L46.712 41.3525L46.9388 41.2391L47.1655 41.1257L47.5057 41.0124L48.8662 40.4455L49.093 40.3321C49.2064 40.2187 49.093 39.992 48.9796 39.7652ZM48.6395 38.9715L47.5057 39.4251L47.1655 39.5384H47.0522C46.4853 39.7652 46.0318 39.8786 45.6916 39.8786C45.805 40.1053 45.9184 40.3321 46.0318 40.5588C46.1451 40.5588 46.1451 40.5589 46.2585 40.4455H46.4853L46.712 40.3321L46.9388 40.2187L47.1655 40.1053L47.6191 39.992L49.093 39.4251C48.8662 39.4251 48.7529 39.1983 48.6395 38.9715ZM42.0635 38.0645C42.1769 38.0645 42.1769 38.0645 42.0635 38.0645L42.4036 38.7448C42.517 39.1983 42.2903 39.6518 41.8368 39.8786C41.3832 40.1053 40.9297 39.8786 40.703 39.5384L40.4762 38.7448L42.0635 38.0645ZM48.2993 38.2913L47.7324 38.518L47.5057 38.6314L47.2789 38.7448C47.0522 38.8582 46.8254 38.8582 46.5987 38.9715C46.0318 39.0849 45.5782 39.1983 45.3515 39.1983C45.4649 39.4251 45.5782 39.7652 45.6916 39.992H45.5782C45.805 39.992 46.0318 39.8786 46.3719 39.7652L46.5987 39.6518L46.9388 39.5384L47.2789 39.4251L47.7324 39.1983L48.6395 38.8582C48.5261 38.7448 48.4127 38.518 48.2993 38.2913ZM40.1361 39.1983C40.2494 39.1983 40.2494 39.3117 40.2494 39.4251C40.2494 39.5384 40.1361 39.6518 40.0227 39.6518C39.9093 39.6518 39.6826 39.6518 39.6826 39.5384C39.6826 39.4251 39.6826 39.3117 39.7959 39.1983C39.9093 39.1983 40.0227 39.1983 40.1361 39.1983ZM41.9501 38.518L40.8163 38.9715L40.9297 39.3117C41.0431 39.5384 41.3832 39.5384 41.61 39.4251C41.8367 39.4251 42.0635 39.0849 42.0635 38.8582L41.9501 38.518ZM47.9592 37.4976L47.7324 37.611L47.1655 37.8378L46.9388 37.9511C46.5987 38.0645 46.3719 38.1779 46.0318 38.1779C45.5782 38.2913 45.2381 38.2913 44.898 38.2913C45.0114 38.518 45.1247 38.7448 45.2381 39.0849C45.5782 39.0849 46.0318 38.9715 46.4853 38.8582C46.5987 38.8582 46.712 38.7448 46.9388 38.7448L47.1655 38.6314L47.5057 38.518L48.186 38.2913C48.186 37.9511 48.0726 37.7244 47.9592 37.4976ZM47.6191 36.8173L47.5057 36.9307C47.3923 36.9307 47.3923 36.9307 47.2789 37.0441C47.0522 37.1575 46.8254 37.2709 46.4853 37.2709C45.805 37.4976 45.2381 37.4976 44.6712 37.4976H44.5578C44.6712 37.7244 44.7846 37.9511 44.898 38.2913C45.2381 38.2913 45.5782 38.2913 46.1451 38.1779C46.3719 38.0645 46.712 38.0645 47.0522 37.9511L47.3923 37.8378L48.0726 37.611C47.8458 37.2709 47.7324 37.0441 47.6191 36.8173ZM41.2699 35.6836L41.7234 37.0441V37.1575L41.4966 37.2709C41.4966 37.2709 41.4966 37.2709 41.3832 37.2709L41.1565 36.704L39.229 37.3842L39.1157 37.0441L41.0431 36.3638L40.9297 36.1371L40.8163 35.7969L41.2699 35.6836C41.2699 35.5702 41.2699 35.5702 41.2699 35.6836ZM47.3923 36.0237L47.0522 36.1371L46.712 36.2505C46.1451 36.3638 45.6916 36.4772 45.1247 36.4772C44.898 36.4772 44.5578 36.4772 44.3311 36.4772C44.4445 36.704 44.5578 37.0441 44.6712 37.2709C45.2381 37.3842 45.9184 37.2709 46.5987 37.0441C46.8254 36.9307 47.1655 36.9307 47.3923 36.8173L47.6191 36.704L47.7324 36.5906C47.5057 36.4772 47.3923 36.2505 47.3923 36.0237ZM47.0522 35.3434C46.1451 35.7969 45.1247 35.9103 43.9909 35.6836H43.8776C43.9909 36.0237 44.1043 36.2505 44.2177 36.5906C44.4445 36.704 44.7846 36.704 45.1247 36.704C45.5782 36.704 46.1451 36.5906 46.5987 36.4772L46.9388 36.3638L47.3923 36.2505C47.1655 35.7969 47.0522 35.5702 47.0522 35.3434ZM46.712 34.5498C45.805 35.0033 44.6712 35.0033 43.5374 34.6632C43.6508 35.0033 43.7642 35.2301 43.8776 35.5702C44.898 35.7969 45.9184 35.7969 46.9388 35.3434H47.0522C46.8254 35.0033 46.8254 34.7765 46.712 34.5498ZM40.4762 33.5294C40.703 33.6428 40.8163 33.8695 40.8163 34.0963C40.9297 34.323 40.9297 34.5498 40.8163 34.7765V34.8899C40.8163 34.8899 40.8163 34.8899 40.703 34.8899L40.3628 34.7765C40.3628 34.7765 40.3628 34.7765 40.2494 34.7765C40.3628 34.6632 40.3628 34.5498 40.3628 34.4364C40.3628 34.323 40.2494 34.323 40.2494 34.2096C40.1361 34.2096 40.0227 34.0963 40.0227 34.2096C39.9093 34.323 39.7959 34.4364 39.7959 34.6632V34.8899C39.7959 35.2301 39.5692 35.5702 39.229 35.6836C39.0023 35.7969 38.7755 35.7969 38.5488 35.6836C38.322 35.5702 38.2086 35.3434 38.0953 35.1167C37.8685 34.7765 37.9819 34.4364 38.2086 34.2096H38.322L38.6621 34.323C38.5488 34.4364 38.5488 34.6632 38.5488 34.8899C38.5488 35.0033 38.6621 35.1167 38.7755 35.1167C38.8889 35.1167 39.0023 35.1167 39.1157 35.1167C39.3424 35.0033 39.3424 34.8899 39.3424 34.5498V34.4364C39.229 34.0963 39.4558 33.7561 39.9093 33.6428C40.1361 33.3026 40.3628 33.416 40.4762 33.5294ZM43.1973 33.6428C43.3107 33.9829 43.4241 34.2096 43.5374 34.5498H43.424C44.4445 35.0033 45.5782 35.0033 46.5987 34.5498H46.712C46.5987 34.323 46.4853 34.0963 46.3719 33.8695H46.4853C45.3515 34.0963 44.2177 34.0963 43.1973 33.6428ZM42.7438 32.6223C42.8572 32.9625 42.9705 33.1892 43.0839 33.5294C44.1043 33.9829 45.1247 33.9829 46.2585 33.7561H46.3719C46.2585 33.5294 46.1451 33.3026 46.0318 33.0759H46.1451C45.3515 33.416 44.4445 33.3026 43.424 32.9625L43.1973 32.8491L42.7438 32.6223ZM42.4036 31.6019C42.517 31.9421 42.6304 32.1688 42.7438 32.509L43.1973 32.6223H43.3107C44.3311 32.9625 45.1247 33.0759 45.9184 32.8491H46.0318C45.9184 32.6223 45.805 32.3956 45.6916 32.1688H45.805C45.6916 32.1688 45.4649 32.1688 45.3515 32.2822C44.6712 32.2822 43.9909 32.1688 43.1973 31.9421L42.9705 31.8287L42.4036 31.6019ZM39.6826 30.8083L40.1361 32.0554C40.1361 32.0554 40.1361 32.0554 40.0227 32.0554H39.7959C39.7959 32.0554 39.6826 32.0555 39.6826 31.9421L39.4558 31.2618L38.8889 31.4886L39.1157 32.1688L38.8889 32.2822L38.6621 31.6019L37.9819 31.8287L38.322 32.6223C38.322 32.6223 38.322 32.6223 38.322 32.7357L38.0953 32.8491C38.0953 32.8491 38.0953 32.8491 37.9819 32.8491L37.415 31.6019C37.415 31.6019 37.415 31.6019 37.415 31.4886C37.415 31.4886 37.415 31.4886 37.5284 31.4886L39.6826 30.8083ZM42.0635 30.5815C42.1769 30.9217 42.2903 31.2618 42.4036 31.4886L42.9705 31.7153L43.1973 31.8287C43.9909 32.1688 44.6712 32.2822 45.3515 32.1688C45.4649 32.1688 45.5782 32.1688 45.6916 32.1688H45.805C45.6916 31.9421 45.5782 31.7153 45.4649 31.3752H45.5782C45.2381 31.3752 45.0114 31.3752 44.6712 31.3752C44.2177 31.2618 43.6508 31.1484 43.0839 30.9217L42.8572 30.8083C42.8572 30.8083 42.7438 30.8083 42.7438 30.6949L42.0635 30.5815ZM41.61 29.5611C41.7234 29.9013 41.8367 30.128 41.9501 30.4681L42.2903 30.5815C42.4036 30.5815 42.517 30.6949 42.6304 30.6949L42.8572 30.8083C43.424 31.035 43.9909 31.1484 44.4445 31.2618C44.6712 31.2618 45.0114 31.2618 45.2381 31.2618C45.1247 31.035 45.0114 30.6949 44.898 30.4681H45.0113C44.6712 30.4681 44.2177 30.4681 43.7642 30.3548C43.424 30.2414 43.0839 30.128 42.7438 30.0146L42.4036 29.9013L41.61 29.5611ZM41.2699 28.5407C41.3832 28.8808 41.4966 29.1076 41.61 29.4477L42.4036 29.7879L42.6304 29.9013C43.0839 30.128 43.424 30.2414 43.8776 30.3548C44.3311 30.4681 44.6712 30.4681 45.0113 30.4681C44.898 30.2414 44.7846 29.9013 44.6712 29.6745C44.4445 29.6745 43.9909 29.5611 43.424 29.4477L43.1973 29.3344L42.9705 29.221L42.7438 29.1076L42.4036 28.9942L41.2699 28.5407ZM40.9297 27.5203C41.0431 27.8604 41.1565 28.0872 41.2699 28.4273L42.4036 28.8808L42.6304 28.9942L42.8572 29.1076L43.0839 29.221L43.3107 29.3344L43.5374 29.4477C43.9909 29.5611 44.2177 29.6745 44.4445 29.6745C44.3311 29.4477 44.2177 29.1076 44.1043 28.8808C44.1043 28.8808 43.9909 28.8808 43.8776 28.8808H43.7642H43.5374H43.424L43.1973 28.7675L42.9705 28.6541H42.8572L42.4036 28.5407L41.9501 28.3139L40.9297 27.5203ZM40.4762 26.4999C40.5896 26.84 40.703 27.0668 40.8163 27.4069L41.1565 27.5203L42.2903 27.9738L42.7438 28.0872L43.1973 28.2006H43.3107L43.5374 28.3139L43.7642 28.4273L43.9909 28.5407C44.1043 28.5407 44.3311 28.6541 44.3311 28.6541C44.2177 28.314 44.1043 28.0872 43.9909 27.7471H43.8776H43.7642L43.5374 27.6337L43.3107 27.5203L42.9705 27.4069L42.517 27.1802L41.7234 26.84L41.3832 26.7267L41.1565 26.6133L41.0431 26.4999H40.9297H40.8163H40.4762ZM40.1361 25.5929C40.2494 25.933 40.3628 26.1598 40.4762 26.4999H40.5896H40.703L40.9297 26.6133L41.1565 26.7267L41.61 26.84L42.8572 27.4069L43.1973 27.5203L43.424 27.6337H43.5374H43.6508H43.7642C43.6508 27.2935 43.5374 27.0668 43.424 26.7267L43.1973 26.6133L42.9705 26.4999L42.6304 26.3865L42.1769 26.1598L41.3832 25.8196L41.0431 25.7062L40.8163 25.5929L40.703 25.4795H40.5896H40.4762H40.3628L40.1361 25.5929ZM39.7959 24.5725C39.9093 24.9126 40.0227 25.1393 40.1361 25.4795H40.2494H40.3628H40.4762L40.703 25.5929L40.9297 25.7062L41.3832 25.8196L42.6304 26.3865L42.9705 26.4999L43.1973 26.6133H43.3107C43.1973 26.2731 43.0839 25.933 42.9705 25.7062L42.8572 25.5929L42.517 25.4795L41.4966 25.026L41.1565 24.9126C40.4762 24.7992 40.1361 24.6858 39.7959 24.5725ZM39.4558 23.6654C39.5692 23.8922 39.6826 24.2323 39.7959 24.4591H39.6826C39.9093 24.4591 40.3628 24.5725 40.8163 24.6858L41.0431 24.7992C41.0431 24.7992 41.1565 24.7992 41.1565 24.9126L41.4966 25.026L42.6304 25.4795L42.8572 25.5929C42.7438 25.2527 42.6304 24.9126 42.517 24.6858H42.4036L41.8368 24.4591L40.9297 24.1189L40.703 24.0056C40.1361 23.7788 39.7959 23.6654 39.4558 23.6654ZM39.1157 22.8718C39.229 23.0985 39.3424 23.4387 39.3424 23.6654C39.6826 23.6654 40.1361 23.7788 40.703 24.0056L41.0431 24.1189L42.1769 24.5725L42.4036 24.6858C42.2903 24.3457 42.1769 24.0056 42.0635 23.7788H41.9501L41.8368 23.6654L41.2699 23.4387L41.1565 23.3253L40.8163 23.2119C40.703 23.2119 40.5896 23.0985 40.4762 23.0985C39.9093 22.8718 39.4558 22.7584 39.1157 22.8718ZM38.8889 22.0781C38.8889 22.3049 39.0023 22.5316 39.1157 22.8718C39.4558 22.7584 39.9093 22.8718 40.5896 23.0985C40.703 23.0985 40.9297 23.2119 41.0431 23.2119L41.4966 23.4387L41.9501 23.6654L42.1769 23.7788C42.0635 23.4387 41.9501 23.0985 41.7234 22.7584H41.8368C40.5896 22.0781 39.5692 21.9647 38.8889 22.0781ZM70.7483 0.989693C70.8617 1.10307 70.9751 1.32983 71.2018 1.66996H71.0885V1.89673L71.3152 1.78335C71.4286 1.89673 71.542 2.12348 71.6553 2.23686C71.4286 2.35023 71.2018 2.35024 70.9751 2.46362C70.9751 2.577 70.9751 2.69037 70.8617 2.80375L71.2018 2.69037C71.4286 2.57699 71.542 2.577 71.7687 2.46362L71.9955 2.91714C71.6553 3.03051 71.2018 3.25726 70.7483 3.37064H70.5216L70.4082 3.59741L70.7483 3.48403C71.2018 3.37065 71.542 3.14389 71.9955 3.03051L72.2222 3.48403H72.1089C71.6553 3.71079 71.0884 3.82416 70.6349 4.05092C70.4082 4.1643 70.1814 4.1643 70.068 4.1643L69.9547 4.39105C70.1814 4.39105 70.5216 4.27768 70.7483 4.1643C71.3152 4.05092 71.7687 3.82416 72.2222 3.59741H72.3356L72.5624 4.05092L72.1089 4.27768C71.6553 4.50443 71.0884 4.61781 70.6349 4.84457C70.2948 4.95795 69.8413 5.07132 69.5011 5.07132L69.2744 5.29809C69.7279 5.29809 70.1814 5.1847 70.6349 5.07132C71.2018 4.95794 71.6553 4.73119 72.1089 4.50443L72.5624 4.27768L72.7891 4.73119L71.9955 5.07132C71.542 5.29808 70.9751 5.41146 70.5216 5.63822C70.068 5.7516 69.5011 5.86498 69.0476 5.86498H68.7075L68.4807 6.09173C68.5941 6.09173 68.8209 6.09173 68.9342 6.09173C69.5011 6.09173 69.9547 5.97836 70.5216 5.86498C71.0885 5.7516 71.542 5.52484 71.9955 5.29809L72.7891 4.95795L73.0159 5.52484C72.6758 5.63822 72.3356 5.7516 71.8821 5.97836C71.4286 6.20511 70.8617 6.31849 70.4082 6.54525C69.9547 6.65863 69.3878 6.772 68.9342 6.772C68.5941 6.772 68.254 6.772 67.9138 6.65863L67.6871 6.88539C68.0272 6.99877 68.4807 7.11214 68.9342 7.11214C69.5011 7.11214 69.9547 6.99877 70.5216 6.88539C71.0885 6.77201 71.542 6.54525 71.9955 6.3185C72.3356 6.20512 72.6757 5.97836 73.1293 5.86498L73.356 6.43187C72.9025 6.54525 72.449 6.77201 71.9955 6.99877C71.542 7.22552 70.9751 7.3389 70.5216 7.56566C70.068 7.67904 69.5011 7.79241 69.0476 7.79241C68.4807 7.79241 68.0272 7.67904 67.5737 7.56566L67.347 7.45228L67.1202 7.56566L67.4603 7.67904C67.9138 7.90579 68.4807 8.01918 69.0476 8.01918C69.6145 8.01918 70.068 7.90579 70.6349 7.79241C71.2018 7.67903 71.6553 7.45228 72.1089 7.22552C72.5624 6.99876 73.0159 6.88538 73.4694 6.65863L73.6961 7.22552L73.4694 7.3389C72.9025 7.45228 72.449 7.67903 71.9955 7.90579C71.542 8.13255 70.9751 8.24593 70.5216 8.47268C70.068 8.58606 69.5011 8.69945 69.0476 8.69945C68.4807 8.69945 68.0272 8.58606 67.5737 8.47268C67.2336 8.3593 66.8934 8.24593 66.5533 8.01918L66.3265 8.13255C66.6667 8.35931 67.1202 8.47269 67.4603 8.58607C67.9138 8.81283 68.4807 8.9262 69.0476 8.9262C69.6145 8.9262 70.068 8.81282 70.6349 8.69945C71.2018 8.58607 71.6553 8.35931 72.1089 8.13255C72.5624 8.01917 73.1293 7.79242 73.5828 7.56566L73.8095 7.45228L74.0363 8.01918L73.5828 8.13255C73.0159 8.24593 72.5624 8.47269 72.1089 8.69945C71.6553 8.9262 71.0884 9.03958 70.6349 9.26634C70.1814 9.37972 69.6145 9.49309 69.161 9.49309C68.5941 9.49309 68.1406 9.37972 67.6871 9.26634C67.2336 9.15296 66.6667 8.9262 66.2132 8.69945L65.7596 8.47268L65.5329 8.58607L66.0998 8.81282C66.5533 9.03958 67.0068 9.26634 67.5737 9.37972C68.0272 9.60647 68.5941 9.71986 69.161 9.71986C69.7279 9.71986 70.1814 9.60647 70.7483 9.49309C71.3152 9.37971 71.7687 9.15296 72.2222 8.9262C72.6758 8.81282 73.2426 8.58606 73.6961 8.35931L74.1497 8.24593C74.1497 8.24593 73.9229 8.58606 73.4694 9.03958C73.0159 9.15296 72.5624 9.37971 72.1089 9.60647C71.6553 9.83323 71.0884 9.94661 70.6349 10.1734C70.1814 10.2867 69.6145 10.4001 69.161 10.4001C68.5941 10.4001 68.1406 10.2867 67.6871 10.1734C67.2336 10.06 66.6667 9.83323 66.2132 9.60647C65.7597 9.37971 65.1928 9.15296 64.7392 9.03958L64.8526 8.9262L64.5125 9.03958L64.7392 9.37972C65.1928 9.60647 65.7597 9.71985 66.2132 9.94661C66.6667 10.1734 67.1202 10.4001 67.6871 10.5135C68.1406 10.7403 68.7075 10.8536 69.2744 10.8536C69.8413 10.8536 70.2948 10.7403 70.8617 10.6269C71.4286 10.5135 71.8821 10.2867 72.3356 10.06L73.1293 9.71986C72.7891 10.06 72.449 10.4001 71.9955 10.7403C71.542 10.967 71.0884 11.0804 70.6349 11.1938H70.5216L70.9751 11.0804V11.3071L71.2018 11.1938L71.4286 11.0804C71.3152 11.1938 71.0884 11.3072 70.9751 11.4205V11.6473C70.8617 11.7607 70.7483 11.7607 70.6349 11.874C70.7483 14.7085 70.2948 14.7085 67.9138 15.5022L67.6871 15.6155C64.966 16.5226 65.1928 15.8423 64.3991 22.7584V14.3684C56.8027 14.3684 50.4535 11.3072 45.1247 8.58607L44.5578 8.24593C40.703 6.31849 37.3016 4.61782 34.3538 4.61782C31.9728 3.48403 29.2517 4.39105 28.0045 6.65863C28.0045 6.65863 30.0454 0.309424 42.0635 4.73119C48.2993 7.3389 68.5941 14.9353 70.7483 0.989693ZM38.5488 21.1711C38.6621 21.3979 38.7755 21.6246 38.7755 21.9647H38.8889C39.5692 21.8514 40.4762 21.9647 41.61 22.5316C41.4966 22.1915 41.3832 21.8514 41.2699 21.6246H41.3832C40.4762 21.1711 39.4558 21.0577 38.5488 21.1711ZM38.322 20.3774C38.322 20.6042 38.4354 20.831 38.5488 21.1711H38.4354C39.3424 20.9443 40.3628 21.0577 41.2699 21.5112C41.1565 21.1711 41.0431 20.9443 40.9297 20.6042H41.0431C40.1361 20.2641 39.229 20.1507 38.322 20.3774ZM37.9819 19.5838C37.9819 19.8106 38.0952 20.1507 38.2086 20.3774H38.0953C39.0023 20.1507 39.9093 20.1507 40.8163 20.4908C40.703 20.1507 40.5896 19.9239 40.4762 19.5838H40.5896C39.6825 19.357 38.7755 19.357 37.9819 19.5838ZM37.7551 18.7901H37.6417C37.7551 19.0169 37.7551 19.2437 37.8685 19.4704H37.7551C38.5488 19.1303 39.4558 19.1303 40.2494 19.357C40.1361 19.0169 40.0227 18.7901 39.9093 18.45H40.0227C39.3424 18.5634 38.5488 18.5634 37.7551 18.7901ZM33.22 11.5339C33.22 11.5339 33.22 11.4205 33.3334 11.5339C33.6735 12.2142 34.0136 13.0078 34.127 13.8015C34.127 13.8015 34.0136 14.255 32.9932 14.8219C31.4059 15.6155 32.6531 17.0895 32.5397 19.357C31.9728 18.3366 31.746 13.9149 30.2721 13.4613C31.5193 13.2346 32.5397 12.5543 33.22 11.5339ZM37.5284 17.9965H37.415C37.5284 18.2233 37.6417 18.45 37.6417 18.7901C38.4354 18.5634 39.229 18.45 40.0227 18.5634H40.1361C40.0227 18.2233 39.9093 17.9965 39.7959 17.6564C39.0023 17.6564 38.2086 17.7697 37.5284 17.9965ZM39.3424 16.8627C38.6621 16.8627 37.9819 16.9761 37.3016 17.3162L37.1882 17.4296C37.3016 17.6564 37.415 17.8831 37.415 18.1099C38.0953 17.7697 38.8889 17.6564 39.6826 17.7697H39.7959C39.5692 17.4296 39.4558 17.0895 39.3424 16.8627ZM39.0023 15.9557H39.1157C38.4354 16.0691 37.6417 16.1824 36.9615 16.4092L36.7347 16.5226C36.8481 16.7493 36.9615 16.9761 36.9615 17.2028H36.8481C37.5284 16.8627 38.322 16.7493 39.0023 16.7493H39.1157C39.229 16.5226 39.1157 16.1824 39.0023 15.9557ZM38.6621 15.162C38.0953 15.2754 37.415 15.5022 36.7347 15.7289L36.5079 15.8423C36.6213 16.0691 36.7347 16.2958 36.7347 16.5226H36.6213C37.3016 16.2958 37.9819 16.0691 38.7755 15.9557H38.8889C38.8889 15.6155 38.7755 15.3888 38.6621 15.162ZM38.322 14.3684C37.7551 14.4818 37.0748 14.7085 36.5079 14.9353L36.2812 15.0486C36.3946 15.2754 36.5079 15.5022 36.5079 15.7289H36.3946C37.0748 15.5022 37.7551 15.2754 38.4354 15.162H38.6621C38.5488 14.8219 38.4354 14.5951 38.322 14.3684ZM37.9819 13.5747C37.415 13.6881 36.8481 13.9149 36.1678 14.1416L35.9411 14.255C36.0544 14.4818 36.1678 14.7085 36.1678 14.9353H36.0544C36.7347 14.7085 37.3016 14.4818 37.9819 14.255H38.2086C38.2086 14.0282 38.0953 13.8015 37.9819 13.5747ZM37.6417 12.7811C37.0748 12.8945 36.5079 13.1212 35.9411 13.348L35.6009 13.4613C35.7143 13.6881 35.8277 13.9149 35.8277 14.1416H35.7143C36.2812 13.9149 36.9615 13.6881 37.5284 13.4613L37.8685 13.348C37.8685 13.2346 37.7551 13.0078 37.6417 12.7811ZM64.6259 13.4613C64.1723 13.348 63.6055 13.2346 63.0386 13.2346C62.585 13.2346 62.2449 13.348 61.7914 13.4613H62.4717C62.6984 13.4613 62.8118 13.348 63.0386 13.348C63.3787 13.348 63.7188 13.348 64.059 13.348L64.6259 13.4613ZM37.415 12.1008L37.0748 12.2142L36.5079 12.4409L35.9411 12.6677L35.3742 12.8945C35.4875 13.1212 35.6009 13.348 35.6009 13.5747H35.4875C36.0544 13.348 36.7347 13.1212 37.3016 12.8945L37.5284 12.7811C37.5284 12.5543 37.415 12.3276 37.415 12.1008ZM63.2653 12.5543H63.0386C62.4717 12.5543 62.0182 12.6677 61.4513 12.8945C60.9978 13.0078 60.4309 13.2346 59.9773 13.4613H60.2041H60.4308C60.771 13.348 61.2245 13.1212 61.5646 13.0078C62.0181 12.7811 62.585 12.7811 63.0386 12.6677C63.6055 12.6677 64.059 12.6677 64.5125 12.8945L64.7392 12.7811L64.5125 12.6677C64.1724 12.5543 63.7188 12.5543 63.2653 12.5543ZM63.2653 11.6473H63.0386C62.4717 11.6473 62.0182 11.7607 61.4513 11.9874C60.9978 12.1008 60.4309 12.3276 59.9773 12.5543C59.5238 12.7811 59.0703 12.8945 58.5034 13.1212H58.39L58.7302 13.2346C59.1837 13.1212 59.5238 12.8945 59.9773 12.7811C60.4309 12.6677 60.9978 12.4409 61.4513 12.2142C61.9048 11.9874 62.4717 11.9874 62.9252 11.874C63.4921 11.874 63.9456 11.874 64.3991 12.1008C64.8526 12.3276 65.4195 12.4409 65.873 12.6677L65.6463 12.5543L65.9864 12.4409C65.6463 12.2142 65.1928 12.1008 64.8526 11.9874L64.5125 11.874C64.059 11.6473 63.4921 11.6473 62.9252 11.6473H63.2653ZM37.0748 11.3071L36.8481 11.4205L36.1678 11.6473L35.034 12.1008C35.1474 12.3276 35.2608 12.5543 35.2608 12.7811L35.8277 12.5543L36.5079 12.3276L37.0748 12.1008L37.3016 11.9874C37.3016 11.7607 37.1882 11.5339 37.0748 11.3071ZM63.2653 10.7403H63.0386C62.4717 10.7403 62.0182 10.8536 61.4513 11.0804C60.9978 11.1938 60.4309 11.4205 59.9773 11.6473C59.5238 11.874 59.0703 11.9874 58.5034 12.2142C58.0499 12.3276 57.483 12.4409 56.9161 12.4409C56.3492 12.4409 55.8957 12.3276 55.4422 12.1008C54.9887 11.9874 54.4218 11.7607 53.9683 11.5339C53.5148 11.3072 52.9479 11.0804 52.4943 10.967C52.1542 10.8536 51.7007 10.7403 51.3606 10.7403L51.8141 10.8536C52.0408 10.8536 52.2676 10.967 52.4943 11.0804C52.9479 11.3072 53.5148 11.4205 53.9683 11.6473L54.6485 11.874C54.8753 11.9874 55.2154 12.1008 55.4422 12.2142C55.7823 12.3276 56.1225 12.4409 56.4626 12.4409C56.6894 12.4409 56.8027 12.4409 57.0295 12.4409C57.5964 12.4409 58.0499 12.3276 58.6168 12.2142C59.0703 12.1008 59.6372 11.874 60.0907 11.6473C60.5442 11.5339 61.1111 11.3072 61.5646 11.0804C62.0181 10.8536 62.585 10.8536 63.0386 10.7403C63.6055 10.7403 64.059 10.7403 64.5125 10.967C64.966 11.1938 65.5329 11.3072 65.9864 11.5339C66.3265 11.6473 66.6667 11.874 67.0068 11.9874L67.347 11.874C66.8934 11.7607 66.4399 11.5339 65.9864 11.3071C65.5329 11.0804 64.966 10.8536 64.5125 10.7403C64.059 10.5135 63.4921 10.5135 62.9252 10.5135L63.2653 10.7403ZM63.3787 9.83323H63.1519C62.5851 9.83323 62.1315 9.94661 61.5646 10.1734C61.1111 10.2867 60.5442 10.5135 60.0907 10.7403C59.6372 10.967 59.1837 11.0804 58.6168 11.3071C58.1633 11.4205 57.5964 11.5339 57.0295 11.5339C56.4626 11.5339 56.0091 11.4205 55.5556 11.1938C55.102 11.0804 54.5352 10.8536 54.0817 10.6269C53.6281 10.4001 53.0612 10.1734 52.6077 10.06C52.1542 9.83323 51.5873 9.83323 51.0204 9.83323C50.6803 9.83323 50.3401 9.94661 50 9.94661L50.1134 10.06C50.3401 9.94661 50.6803 9.94661 50.907 9.94661C51.4739 9.94661 51.9274 9.94661 52.4943 10.1734C52.9479 10.4001 53.5148 10.5135 53.9683 10.7403C54.4218 10.967 54.8753 11.1938 55.4422 11.3071C55.8957 11.5339 56.4626 11.6473 57.0295 11.6473C57.5964 11.6473 58.0499 11.5339 58.6168 11.4205C59.0703 11.3072 59.6372 11.0804 60.0907 10.8536C60.5442 10.7403 61.1111 10.5135 61.5646 10.2867C62.0181 10.06 62.585 10.06 63.0386 9.94661C63.6055 9.94661 64.059 9.94661 64.5125 10.1734C64.966 10.4001 65.5329 10.5135 65.9864 10.7403C66.4399 10.967 66.8934 11.1938 67.4603 11.3071C67.8005 11.4205 68.254 11.5339 68.7075 11.5339L70.068 11.1938C69.7279 11.3072 69.3878 11.3071 69.0476 11.3071C68.4807 11.3071 68.0272 11.1938 67.5737 11.0804C67.1202 10.967 66.5533 10.7403 66.0998 10.5135C65.6463 10.2867 65.0794 10.06 64.6259 9.94661C64.1723 9.71985 63.6055 9.71986 63.0386 9.71986L63.3787 9.83323ZM51.1338 9.15296H50.907C50.3402 9.15296 49.8866 9.26634 49.3197 9.49309L48.7528 9.71986L48.8662 9.83323L49.3197 9.71986C49.7733 9.4931 50.3402 9.49309 50.907 9.37972C51.4739 9.37972 51.9274 9.37971 52.4943 9.60647C52.9479 9.83323 53.5148 9.94661 53.9683 10.1734C54.4218 10.4001 54.8753 10.6269 55.4422 10.7403C55.8957 10.967 56.4626 11.0804 57.0295 11.0804C57.5964 11.0804 58.0499 10.967 58.6168 10.8536C59.0703 10.7403 59.6372 10.5135 60.0907 10.2867L60.6576 10.06H60.2041H60.0907C59.6372 10.2867 59.1837 10.4001 58.6168 10.6269C58.1633 10.7403 57.5964 10.8536 57.0295 10.8536C56.4626 10.8536 56.0091 10.7403 55.5556 10.5135C55.102 10.4001 54.5352 10.1734 54.0817 9.94661C53.6281 9.71985 53.0612 9.49309 52.6077 9.37972C52.1542 9.15296 51.5873 9.15296 51.0204 9.15296H51.1338ZM54.8753 9.60647C55.1021 9.71985 55.2154 9.71985 55.4422 9.83323C55.8957 10.06 56.4626 10.1734 57.0295 10.1734C57.483 10.1734 57.9365 10.06 58.39 9.94661H57.8231C57.5964 9.94661 57.3696 10.06 57.1429 10.06C56.576 10.06 56.1225 9.94661 55.6689 9.71986L54.8753 9.60647ZM49.7733 8.47268L49.4331 8.58607C48.9796 8.69945 48.5261 8.9262 48.0726 9.15296H47.9592L48.0726 9.26634H48.186C48.6395 9.03958 49.093 8.9262 49.5465 8.81282C49.7733 8.69944 49.8866 8.69945 50.1134 8.69945L49.7733 8.47268ZM48.5261 8.01918L47.9592 8.24593C47.6191 8.35931 47.2789 8.47269 46.9388 8.69945H47.0522L47.2789 8.58607C47.5057 8.47269 47.7324 8.35931 47.9592 8.35931H48.0726L48.5261 8.01918ZM47.5057 7.67904H47.3923L47.1655 7.79241C46.9388 7.90579 46.712 7.9058 46.4853 8.01918C46.2585 8.13255 46.0318 8.13255 45.805 8.24593L45.9184 8.35931C46.1451 8.35931 46.2585 8.24593 46.4853 8.13255C46.8254 7.90579 47.0522 7.79241 47.5057 7.67904ZM43.6508 7.22552L43.9909 7.3389C44.3311 7.3389 44.5578 7.45228 44.898 7.45228H45.1247C45.4649 7.45228 45.805 7.3389 46.1451 7.22552H46.0318H45.805C45.4649 7.3389 45.2381 7.3389 44.898 7.3389H44.6712C44.3311 7.3389 43.9909 7.3389 43.6508 7.22552Z" fill="#D6D6D6"/>
</svg>
