<svg width="200" height="35" viewBox="0 0 200 35" fill="none" xmlns="http://www.w3.org/2000/svg">
<path d="M0 0V35H35V0H0ZM2.13936 14.3765L14.9756 8.55746C14.9756 8.55746 19.4254 6.50367 23.0196 5.90465L2.13936 18.6553V14.3765ZM2.13936 20.3668L23.6186 5.90465C24.5599 5.81907 25.5012 5.81907 26.4425 5.81907L2.13936 27.7262V20.3668ZM2.13936 32.5183V30.2078L26.8704 5.81907C27.8973 5.90465 29.0098 5.99022 30.0367 6.24695L18.313 32.5183H2.13936ZM32.3472 32.5183H21.3936L30.4645 6.33252C31.1491 6.50367 31.7482 6.67482 32.4328 6.84597L32.3472 32.5183Z" fill="white"/>
<path d="M40.9902 27.0416V19.5966H46.3814L46.2103 21.1369H43.3863V22.4205H45.6968V23.9609H43.3863V25.5012H46.5526V27.1271L40.9902 27.0416Z" fill="white"/>
<path d="M52.1149 27.0416L50.489 24.4743C50.2323 24.0465 49.9756 23.533 49.8044 23.1051C49.89 23.7042 49.9756 24.3888 49.9756 24.9878V27.0416H47.665V19.5966H49.89L51.6015 22.1638C51.8582 22.5917 52.1149 23.1052 52.3716 23.6186C52.2861 23.1052 52.2861 22.5061 52.2861 21.9927V19.6822H54.511V27.1271L52.1149 27.0416Z" fill="white"/>
<path d="M61.956 21.2225H59.8166V27.0416H57.4205V21.2225H55.2812V19.6822H62.2983L61.956 21.2225Z" fill="white"/>
<path d="M62.7262 27.0416V19.5966H68.1174L67.9462 21.1369H65.1223V22.4205H67.4328V23.9609H65.1223V25.5012H68.2885V27.1271L62.7262 27.0416Z" fill="white"/>
<path d="M73.7653 27.0416L72.7384 24.9878C72.3961 24.2176 72.1394 24.132 71.6259 24.132V27.0416H69.3154V19.5966H72.4817C75.2201 19.5966 76.0758 20.4523 76.0758 21.7359C76.0758 22.934 75.2201 23.6186 74.1932 23.7897C74.621 23.9609 74.8778 24.2176 75.1345 24.5599C75.4768 25.0734 76.247 26.4426 76.5037 26.956H73.7653V27.0416ZM72.3961 21.2225H71.7115V22.7629H72.3961C73.1663 22.7629 73.5086 22.4205 73.5086 21.9927C73.5086 21.3937 73.1663 21.2225 72.3961 21.2225Z" fill="white"/>
<path d="M83.1785 21.2225H81.0391V27.0416H78.643V21.2225H76.5037V19.6822H83.5208L83.1785 21.2225Z" fill="white"/>
<path d="M87.8851 27.0416L87.3717 25.5868H85.1467L84.6333 27.0416H82.1516L85.1467 19.5966H87.6284L90.4523 27.0416H87.8851ZM86.5159 22.8484C86.4303 22.5061 86.3448 22.1638 86.3448 21.8215C86.3448 22.2494 86.2592 22.5917 86.088 23.0196L85.7457 24.2176H86.9438L86.5159 22.8484Z" fill="white"/>
<path d="M91.1369 27.0416V19.5966H93.533V27.0416H91.1369Z" fill="white"/>
<path d="M99.6088 27.0416L97.9829 24.4743C97.7262 24.0465 97.4694 23.533 97.2983 23.1051C97.3839 23.7042 97.4694 24.3888 97.4694 24.9878V27.0416H95.2445V19.5966H97.555L99.2665 22.1638C99.5232 22.5917 99.78 23.1052 100.037 23.6186C99.9511 23.1052 99.9511 22.5061 99.9511 21.9927V19.6822H102.176V27.1271L99.6088 27.0416Z" fill="white"/>
<path d="M110.99 27.0416L110.734 24.0465C110.648 23.533 110.648 23.0196 110.648 22.5917C110.562 23.1051 110.477 23.533 110.306 23.9609L109.193 27.0416H107.225L106.284 24.0465C106.112 23.533 106.027 23.1051 105.941 22.5917C105.941 23.2763 105.941 23.6186 105.941 24.132L105.77 27.1271H103.374L104.315 19.6822H107.225L108.166 22.5917C108.337 23.0196 108.423 23.533 108.509 23.9609C108.594 23.4474 108.68 22.934 108.851 22.4205L109.792 19.5966H112.616L113.472 27.0416H110.99Z" fill="white"/>
<path d="M114.242 27.0416V19.5966H119.633L119.462 21.1369H116.638V22.4205H118.949V23.9609H116.638V25.5012H119.804V27.1271L114.242 27.0416Z" fill="white"/>
<path d="M125.281 27.0416L123.655 24.4743C123.399 24.0465 123.142 23.533 122.971 23.1051C123.056 23.7042 123.142 24.3888 123.142 24.9878V27.0416H120.917V19.5966H123.227L124.939 22.1638C125.196 22.5917 125.452 23.1052 125.709 23.6186C125.624 23.1052 125.623 22.5061 125.623 21.9927V19.6822H127.934V27.1271L125.281 27.0416Z" fill="white"/>
<path d="M135.379 21.2225H133.24V27.0416H130.844V21.2225H128.704V19.6822H135.721L135.379 21.2225Z" fill="white"/>
<path d="M48.7775 15.4034L48.5208 12.4083C48.4352 11.8949 48.4352 11.3814 48.4352 10.9535C48.3497 11.467 48.2641 11.8949 48.0929 12.3227L46.9805 15.4034H44.9267L43.8998 12.4083C43.7286 11.8949 43.643 11.3814 43.5575 10.9535C43.5575 11.6381 43.5575 11.9804 43.5575 12.4939L43.3863 15.489H40.9902L41.9316 8.04401H44.8411L45.7824 10.9535C45.9536 11.3814 46.0391 11.8949 46.1247 12.3227C46.2103 11.8093 46.2959 11.2958 46.467 10.7824L47.4083 7.95844H50.2323L51.088 15.4034H48.7775Z" fill="white"/>
<path d="M57.4206 15.4034L56.9071 13.9487H54.6822L54.1687 15.4034H51.6871L54.6822 7.95844H57.1638L59.9878 15.4034H57.4206ZM56.0514 11.2103C55.9658 10.868 55.8802 10.5257 55.8802 10.1834C55.7946 10.6112 55.7091 11.0391 55.6235 11.3814L55.2812 12.5795H56.4792L56.0514 11.2103Z" fill="white"/>
<path d="M66.6626 14.5477C66.0636 15.1467 65.2934 15.4034 64.0954 15.4034H60.6724V7.95844H63.9242C64.6944 7.95844 65.4646 8.04401 66.1492 8.38631C67.1761 8.98533 67.6895 10.0122 67.6895 11.5526C67.6895 12.7506 67.5184 13.7775 66.6626 14.5477ZM63.8387 9.58435H63.0685V13.8631H63.8387C64.5233 13.8631 65.0367 13.6064 65.0367 11.5526C65.1223 9.7555 64.5233 9.58435 63.8387 9.58435Z" fill="white"/>
<path d="M68.8875 15.4034V7.95844H71.3692V15.4034H68.8875Z" fill="white"/>
<path d="M75.4768 15.5746C74.2787 15.5746 73.1663 15.3179 72.0538 14.89L72.9095 13.4352C73.7653 13.7775 74.621 14.0342 75.5624 14.0342C76.5037 14.0342 76.846 13.7775 76.846 13.3496C76.846 13.0073 76.5892 12.8362 75.9047 12.7506L74.7922 12.4939C73.423 12.2372 72.4817 11.6381 72.4817 10.3545C72.4817 8.89976 74.022 7.87286 76.0758 7.87286C77.1883 7.87286 78.3863 8.12958 79.4132 8.64303L78.3007 10.0122C77.6161 9.66993 76.9315 9.49878 76.247 9.49878C75.6479 9.49878 75.3056 9.7555 75.3056 10.0122C75.3056 10.2689 75.4768 10.5257 76.247 10.6113L77.1883 10.7824C78.2152 10.9535 79.6699 11.3814 79.6699 12.8362C79.4988 14.6333 77.8729 15.5746 75.4768 15.5746Z" fill="white"/>
<path d="M84.2054 15.5746C81.467 15.5746 80.0122 14.1198 80.0122 11.8949C80.0122 9.24206 81.8093 7.87286 84.291 7.87286C87.4572 7.87286 88.3985 9.84108 88.3985 11.467C88.3985 13.6064 87.5428 15.5746 84.2054 15.5746ZM84.2054 9.32763C83.0929 9.32763 82.6651 10.2689 82.6651 11.6381C82.6651 13.5208 83.2641 14.0342 84.2054 14.0342C85.2323 14.0342 85.6602 13.5208 85.6602 11.6381C85.6602 9.7555 85.2323 9.32763 84.2054 9.32763Z" fill="white"/>
<path d="M94.0465 15.4034L92.4205 12.8362C92.1638 12.4083 91.9071 11.8949 91.7359 11.467C91.8215 12.066 91.9071 12.7506 91.9071 13.3496V15.4034H89.5966V7.95844H91.9071L93.6186 10.5257C93.8753 10.9535 94.132 11.467 94.3888 11.9804C94.3032 11.467 94.3032 10.868 94.3032 10.3545V8.04401H96.6137V15.489L94.0465 15.4034Z" fill="white"/>
<path d="M104.059 15.5746C102.861 15.5746 101.748 15.3179 100.636 14.89L101.491 13.4352C102.347 13.7775 103.203 14.0342 104.144 14.0342C105.086 14.0342 105.428 13.7775 105.428 13.3496C105.428 13.0073 105.171 12.8362 104.487 12.7506L103.374 12.4939C102.005 12.2372 101.064 11.6381 101.064 10.3545C101.064 8.89976 102.604 7.87286 104.658 7.87286C105.77 7.87286 106.968 8.12958 107.995 8.64303L106.883 10.0122C106.198 9.66993 105.513 9.49878 104.743 9.49878C104.144 9.49878 103.802 9.7555 103.802 10.0122C103.802 10.2689 103.973 10.5257 104.743 10.6113L105.685 10.7824C106.712 10.9535 108.166 11.3814 108.166 12.8362C108.166 14.6333 106.455 15.5746 104.059 15.5746Z" fill="white"/>
<path d="M117.323 16.8582C117.152 16.8582 116.895 16.8582 116.724 16.8582C115.098 16.8582 114.67 15.9169 113.215 15.5746C110.134 15.5746 108.851 14.1198 108.851 11.7237C108.851 9.24205 110.648 7.78728 113.13 7.78728C115.782 7.78728 117.237 9.15648 117.237 11.3814C117.237 13.5208 116.381 14.4621 115.526 14.9756C116.125 15.0611 116.553 15.5746 117.579 15.5746H117.922L117.323 16.8582ZM113.044 9.32763C111.932 9.32763 111.504 10.2689 111.504 11.6381C111.504 13.5208 112.103 14.0342 113.044 14.0342C114.071 14.0342 114.499 13.5208 114.499 11.6381C114.499 9.7555 114.071 9.32763 113.044 9.32763Z" fill="white"/>
<path d="M125.024 14.3765C124.597 14.9756 123.57 15.5746 121.773 15.5746C120.318 15.5746 119.291 15.2323 118.692 14.6333C118.35 14.291 118.264 14.0342 118.264 13.0073V7.95844H120.66V12.8362C120.66 13.5208 120.917 13.9487 121.773 13.9487C122.628 13.9487 122.885 13.6064 122.885 12.8362V7.95844H125.281V13.0929C125.281 13.6064 125.196 14.0342 125.024 14.3765Z" fill="white"/>
<path d="M131.357 15.4034L130.844 13.9487H128.619L128.105 15.4034H125.623L128.619 7.95844H131.1L133.924 15.4034H131.357ZM129.988 11.2103C129.902 10.868 129.817 10.5257 129.817 10.1834C129.817 10.6112 129.731 10.9535 129.56 11.3814L129.218 12.5795H130.416L129.988 11.2103Z" fill="white"/>
<path d="M139.059 15.4034L138.117 13.3496C137.775 12.5795 137.518 12.4939 137.005 12.4939V15.4034H134.609V7.95844H137.775C140.513 7.95844 141.369 8.81418 141.369 10.0978C141.369 11.2958 140.513 12.066 139.401 12.1516C139.829 12.3227 140.171 12.5795 140.342 12.9218C140.685 13.4352 141.455 14.8044 141.712 15.3179L139.059 15.4034ZM137.604 9.58435H136.919V11.1247H137.604C138.374 11.1247 138.716 10.7824 138.716 10.3545C138.716 9.7555 138.374 9.58435 137.604 9.58435Z" fill="white"/>
<path d="M142.653 15.4034V7.95844H148.044L147.873 9.49878H145.049V10.7824H147.359V12.3227H145.049V13.8631H148.215V15.489L142.653 15.4034Z" fill="white"/>
<path d="M158.313 10.0122C157.8 9.58435 157.115 9.4132 156.43 9.4132C155.147 9.4132 154.633 10.0978 154.633 11.8093C154.633 13.2641 155.147 14.0342 156.259 14.0342C156.516 14.0342 156.858 14.0342 157.115 13.9487V12.7506H156.002L155.746 11.2103H159.511V14.8044C158.484 15.3179 157.286 15.5746 156.174 15.5746C154.633 15.5746 153.521 15.2323 152.751 14.291C152.152 13.6064 151.809 12.7506 151.895 11.8949C151.809 10.3545 152.751 8.89975 154.205 8.30073C154.89 8.04401 155.575 7.87286 156.345 7.95844C157.457 7.95844 158.655 8.30073 159.597 8.89976L158.313 10.0122Z" fill="white"/>
<path d="M165.844 15.4034L165.33 13.9487H163.105L162.592 15.4034H160.11L163.105 7.95844H165.587L168.411 15.4034H165.844ZM164.474 11.2103C164.389 10.868 164.303 10.5257 164.303 10.1834C164.218 10.6112 164.132 11.0391 164.046 11.3814L163.704 12.5795H164.902L164.474 11.2103Z" fill="white"/>
<path d="M173.545 15.4034L172.604 13.3496C172.262 12.5795 172.005 12.4939 171.491 12.4939V15.4034H169.095V7.95844H172.347C175.086 7.95844 175.941 8.81418 175.941 10.0978C175.941 11.2958 175.086 12.066 173.973 12.1516C174.401 12.3227 174.743 12.5795 174.914 12.9218C175.257 13.4352 176.027 14.8044 176.284 15.3179L173.545 15.4034ZM172.176 9.58435H171.491V11.1247H172.176C173.032 11.1247 173.289 10.7824 173.289 10.3545C173.289 9.7555 172.861 9.58435 172.176 9.58435Z" fill="white"/>
<path d="M183.13 14.5477C182.531 15.1467 181.76 15.4034 180.562 15.4034H177.139V7.95844H180.391C181.161 7.95844 181.932 8.04401 182.616 8.38631C183.643 8.98533 184.157 10.0122 184.157 11.5526C184.157 12.7506 183.985 13.7775 183.13 14.5477ZM180.306 9.58435H179.535V13.8631H180.306C180.99 13.8631 181.504 13.6064 181.504 11.5526C181.589 9.7555 180.99 9.58435 180.306 9.58435Z" fill="white"/>
<path d="M185.355 15.4034V7.95844H190.746L190.575 9.49878H187.751V10.7824H190.061V12.3227H187.751V13.8631H190.917V15.489L185.355 15.4034Z" fill="white"/>
<path d="M196.565 15.4034L194.939 12.8362C194.682 12.4083 194.425 11.8949 194.254 11.467C194.34 12.066 194.425 12.7506 194.425 13.3496V15.4034H192.115V7.95844H194.425L196.137 10.5257C196.394 10.9535 196.65 11.467 196.907 11.9804C196.822 11.467 196.822 10.868 196.822 10.3545V8.04401H199.132V15.489L196.565 15.4034Z" fill="white"/>
</svg>
