<svg width="149" height="30" viewBox="0 0 149 30" fill="none" xmlns="http://www.w3.org/2000/svg">
<path d="M4.87085 19.7048C4.87085 21.476 5.20295 22.6937 5.75646 23.5793C6.42066 24.5756 7.41697 25.0185 8.30258 25.0185C9.52029 25.0185 10.738 24.6863 12.952 21.5867C14.7232 19.1513 16.8266 15.6089 18.2657 13.5055L20.7011 9.8524C22.3616 7.30628 24.3542 4.42805 26.5683 2.54613C28.3395 0.996316 30.3321 0.110703 32.3247 0.110703C35.6457 0.110703 38.7454 1.99262 41.1808 5.64576C43.8376 9.52029 45.0553 14.5018 45.0553 19.5941C45.0553 22.583 44.5018 24.9077 43.3948 26.5683C42.3985 28.2288 40.5166 30 37.3063 30V25.1291C40.0738 25.1291 40.738 22.583 40.738 19.7048C40.738 15.6089 39.7417 10.9594 37.6384 7.74908C36.0886 5.42436 34.2066 3.98524 31.9926 3.98524C29.6679 3.98524 27.786 5.75646 25.6826 8.85609C24.5756 10.5166 23.4686 12.5092 22.1402 14.834L20.7011 17.3801C17.8229 22.4723 17.1587 23.5793 15.7196 25.4613C13.1734 28.7823 11.0701 30 8.30258 30C4.98155 30 2.87823 28.5609 1.54982 26.3469C0.442806 24.5756 0 22.2509 0 19.5941L4.87085 19.7048Z" fill="white"/>
<path d="M3.87454 5.86716C6.08856 2.43543 9.29889 0 12.952 0C15.0553 0 17.1587 0.664203 19.4834 2.43542C21.9188 4.42804 24.4649 7.63838 27.6753 13.0627L28.7823 14.9446C31.5498 19.5941 33.2103 22.0295 34.0959 23.1365C35.3136 24.5756 36.0886 25.0185 37.1956 25.0185C39.9631 25.0185 40.6273 22.4723 40.6273 19.5941L44.9446 19.4834C44.9446 22.4723 44.3911 24.797 43.2841 26.4576C42.2878 28.1181 40.4059 29.8893 37.1956 29.8893C35.2029 29.8893 33.4317 29.4465 31.4391 27.5646C29.8893 26.1254 28.1181 23.5793 26.7897 21.3653L22.8044 14.6125C20.8118 11.1808 18.9299 8.74539 17.8229 7.52768C16.7159 6.30997 15.166 4.87085 12.8413 4.87085C10.9594 4.87085 9.29889 6.19926 7.97048 8.30258L3.87454 5.86716Z" fill="white"/>
<path d="M12.8413 4.87085C10.9594 4.87085 9.29889 6.19926 7.97047 8.30258C6.08855 11.1808 4.87085 15.4982 4.87085 19.7048C4.87085 21.476 5.20295 22.6937 5.75646 23.5793L1.66052 26.3469C0.553505 24.5756 0.110699 22.2509 0.110699 19.5941C0.110699 14.8339 1.43911 9.7417 3.98524 5.86716C6.19926 2.43543 9.40959 0 13.0627 0L12.8413 4.87085Z" fill="white"/>
<path d="M54.4649 0.996315H60.1107L69.631 18.2657L79.1513 0.996315H84.6863V29.3358H80.1476V7.52768L71.7343 22.583H67.417L59.0037 7.52768V29.3358H54.4649V0.996315ZM99.0775 11.5129C95.7564 11.5129 93.7638 13.9483 93.321 17.048H104.502C104.28 13.9483 102.399 11.5129 99.0775 11.5129ZM88.7823 18.8192C88.7823 12.3985 92.9889 7.63838 99.1882 7.63838C105.277 7.63838 108.93 12.2878 108.93 19.1513V20.369H93.321C93.8745 23.69 96.0885 25.9041 99.631 25.9041C102.509 25.9041 104.28 25.0184 105.941 23.4686L108.376 26.4576C106.052 28.5609 103.173 29.7786 99.4096 29.7786C92.7675 29.8893 88.7823 25.0184 88.7823 18.8192ZM114.465 11.9557H110.258V8.19189H114.465V1.99263H118.893V8.19189H125.314V11.9557H118.893V21.476C118.893 24.6863 119.889 25.9041 122.435 25.9041C123.653 25.9041 124.317 25.7934 125.203 25.6827V29.4465C123.985 29.7786 122.768 30 121.55 30C116.79 30 114.354 27.3432 114.354 22.1402V11.9557H114.465ZM143.911 15.6089C143.026 13.3948 141.033 11.7343 138.155 11.7343C134.391 11.7343 131.956 14.3911 131.956 18.8192C131.956 23.1365 134.17 25.9041 137.934 25.9041C140.922 25.9041 143.026 24.1328 143.911 22.0295V15.6089ZM148.339 29.3358H144.022V26.3469C142.804 28.1181 140.59 29.7786 137.048 29.7786C131.291 29.7786 127.417 24.9077 127.417 18.7085C127.417 12.3985 131.402 7.63838 137.269 7.63838C140.148 7.63838 142.472 8.85609 144.022 10.8487V8.08119H148.339V29.3358Z" fill="white"/>
</svg>
