<svg width="111" height="30" viewBox="0 0 111 30" fill="none" xmlns="http://www.w3.org/2000/svg">
<path d="M15.136 28.006C13.5045 28.2779 11.7825 28.3686 10.0604 28.6405L4.713 12.9607V29.2749C3.08158 29.4562 1.54079 29.7281 0 29.9094V0H4.44109L10.5136 16.9486V0H15.2266V28.006H15.136ZM24.29 11.0574C26.1027 11.0574 28.9124 10.9668 30.5438 10.9668V15.6798C28.4592 15.6798 26.0121 15.6798 24.29 15.7704V22.7492C27.0091 22.568 29.8187 22.2961 32.5378 22.2961V26.8278L19.577 27.8248V0.271899H32.5378V4.9849H24.29V11.0574ZM49.9396 4.71299H45.136V26.1934C43.5952 26.1934 41.9638 26.1934 40.423 26.284V4.71299H35.6193V0H49.9396V4.71299ZM57.5529 10.6949H63.9879V15.4079H57.5529V26.0121H52.9305V0.0906331H65.9819V4.80362H57.5529V10.6949ZM73.5952 21.8429C76.2236 21.9335 78.9426 22.1148 81.571 22.2961V26.9184C77.4018 26.6465 73.2326 26.3746 68.9728 26.284V0.0906331H73.6858V21.8429H73.5952ZM85.4683 27.1903C86.9184 27.281 88.5499 27.3716 90.0907 27.5529V0.0906331H85.4683V27.1903ZM110.483 0.0906331L104.592 14.3202L110.483 30C108.761 29.7281 106.949 29.4562 105.227 29.1843L101.873 20.574L98.429 28.5499C96.707 28.278 95.0756 28.1873 93.4441 27.9154L99.426 14.2296L93.9879 0.181266H98.9728L102.054 8.06646L105.317 0.181266H110.483V0.0906331Z" fill="white"/>
</svg>
