<svg width="201" height="30" viewBox="0 0 201 30" fill="none" xmlns="http://www.w3.org/2000/svg">
<path d="M9.55102 28.898L5.02041 14.449C4.65306 13.4694 3.67347 10.1633 3.30612 8.32652C3.30612 9.30612 3.55102 13.5918 3.55102 14.5714V28.898H0.85714V0.979584H3.42857L7.95918 15.9184C8.32653 17.0204 9.18367 19.7143 9.67347 22.0408C9.55102 18 9.55102 16.7755 9.55102 16.0408V1.10204H12.2449V28.898H9.55102Z" fill="white"/>
<path d="M10.1633 28.0408H11.1429V1.71429H10.1633V15.7959C10.1633 16.5306 10.1633 17.7551 10.2857 21.4286V21.7959L8.57143 22.0408C8.20408 20.3265 7.59184 18.3674 7.22449 17.1429C7.10204 16.6531 6.9796 16.2857 6.85715 16.0408L2.57143 1.83674H1.46939V28.1633H2.44898V14.5714C2.44898 13.7143 2.32653 9.42858 2.20408 8.44899L3.91837 8.20409C4.28572 10.0408 5.26531 13.3469 5.63266 14.3265L10.1633 28.0408ZM12.9796 29.7551H8.93878L4.40817 15.3061V29.7551H0V0.122452H4.16327L8.69388 14.9388V0.122452H13.102V29.7551H12.9796Z" fill="white"/>
<path d="M25.7143 28.898V0.979584H28.7755V28.898H25.7143Z" fill="white"/>
<path d="M26.5714 28.0408H27.9184V1.71429H26.5714V28.0408ZM29.6327 29.7551H24.7347V0.122452H29.6327V29.7551Z" fill="white"/>
<path d="M51.0612 28.898L46.5306 14.449C46.1633 13.4694 45.1837 10.1633 44.8163 8.32652C44.8163 9.30612 45.0612 13.5918 45.0612 14.5714V28.898H42.3674V0.979584H44.9388L49.4694 15.9184C49.8367 17.0204 50.6939 19.7143 51.1837 22.0408C51.0612 18 51.0612 16.7755 51.0612 16.0408V1.10204H53.7551V28.898H51.0612Z" fill="white"/>
<path d="M51.7959 28.0408H52.7755V1.71429H51.7959V15.7959C51.7959 16.5306 51.7959 17.7551 51.9184 21.4286V21.7959L50.2041 22.0408C49.8368 20.3265 49.2245 18.3674 48.8572 17.1429C48.7347 16.6531 48.6123 16.2857 48.4898 16.0408L44.2041 1.83674H43.1021V28.1633H44.0817V14.5714C44.0817 13.7143 43.9592 9.42858 43.8367 8.44899L45.551 8.20409C45.9184 10.0408 46.898 13.3469 47.2653 14.3265L51.7959 28.0408ZM54.4898 29.7551H50.449L45.9184 15.3061V29.7551H41.5102V0.122452H45.6735L50.2041 14.9388V0.122452H54.6123V29.7551H54.4898Z" fill="white"/>
<path d="M65.1429 26.2041C65.2653 26.2041 66.6123 26.3265 66.7347 26.3265C68.9388 26.3265 69.0612 25.4694 69.0612 22.7755V0.979584H72.1225V22.1633C72.1225 25.3469 72.1225 29.2653 67.347 29.2653C66.6123 29.2653 65.8776 29.1429 65.1429 29.0204V26.2041Z" fill="white"/>
<path d="M66 28.2857C66.4898 28.4082 66.8572 28.4082 67.347 28.4082C71.0204 28.4082 71.2653 26.0816 71.2653 22.1633V1.83674H69.9184V22.7755C69.9184 25.102 69.9184 27.1837 66.7347 27.1837C66.7347 27.1837 66.6123 27.1837 66.1225 27.1837V28.2857H66ZM67.347 30C66.4898 30 65.7551 29.8776 64.898 29.7551L64.1633 29.6327V25.347H65.0204C65.1429 25.347 65.2653 25.347 66 25.347C66.2449 25.347 66.4898 25.347 66.6123 25.347C67.9592 25.347 68.0817 25.3469 68.0817 22.6531V0H72.9796V22.0408C72.9796 25.2245 72.9796 30 67.347 30Z" fill="white"/>
<path d="M91.1021 18.1224L90.1225 11.1429C89.6327 7.71428 89.5102 6.61225 89.3878 4.77551C89.2653 6.36735 88.898 9.42857 88.6531 11.2653L87.6735 18.2449H91.1021V18.1224ZM92.8164 28.898L91.4694 20.6939H87.4286L86.0817 28.898H83.3878L87.9184 0.979584H90.9796L95.6327 28.898H92.8164Z" fill="white"/>
<path d="M88.6531 17.2653H90.1225L89.3878 8.69388L88.6531 17.2653ZM92.0817 18.9796H86.6939L87.796 11.0204C88.0409 8.93878 88.4082 6.12245 88.5306 4.65306H90.2449V4.89797C90.3674 6.7347 90.4898 7.71429 90.9796 11.0204L92.0817 18.9796ZM93.5511 28.0408H94.6531L90.2449 1.71429H88.7755L84.4898 28.0408H85.347L86.6939 19.8368H92.2041L93.5511 28.0408ZM96.7347 29.7551H91.9592L90.6123 21.551H88.1633L86.8164 29.7551H82.4082L87.1837 0.122452H91.7143L96.7347 29.7551Z" fill="white"/>
<path d="M122.571 28.898V3.55102H118.898V0.857132H129.429V3.55102H125.755V28.898H122.571Z" fill="white"/>
<path d="M123.429 28.0408H124.776V2.69388H128.449V1.71429H119.755V2.69388H123.429V28.0408ZM126.49 29.7551H121.714V4.40817H118.041V0.122452H130.286V4.40817H126.612V29.7551H126.49Z" fill="white"/>
<path d="M145.102 0.979584V22.7755C145.102 24.6122 145.102 26.449 147.551 26.449C150 26.449 150 24.7347 150 22.7755V0.979584H153.061V22.6531C153.061 25.102 153.061 29.1429 147.674 29.1429C142.041 29.1429 142.041 25.4694 142.041 22.6531V0.979584H145.102Z" fill="white"/>
<path d="M142.898 1.83674V22.6531C142.898 26.0816 143.265 28.4082 147.674 28.4082C151.837 28.4082 152.204 25.8367 152.204 22.6531V1.83674H150.857V22.7755C150.857 24.6123 150.857 27.3061 147.551 27.3061C144.245 27.3061 144.245 24.6123 144.245 22.7755V1.71429H142.898V1.83674ZM147.674 30C141.184 30 141.184 25.3469 141.184 22.6531V0.122452H145.959V22.7755C145.959 24.9796 146.082 25.5919 147.551 25.5919C149.02 25.5919 149.143 24.9796 149.143 22.7755V0.122452H153.918V22.6531C153.918 24.9796 153.918 30 147.674 30Z" fill="white"/>
<path d="M173.265 28.898L168.735 14.449C168.367 13.4694 167.388 10.1633 167.02 8.32652C167.02 9.30612 167.265 13.5918 167.265 14.5714V28.898H164.571V0.979584H167.143L171.674 15.9184C172.041 17.0204 172.898 19.7143 173.388 22.0408C173.265 18 173.265 16.7755 173.265 16.0408V1.10204H175.959V28.898H173.265Z" fill="white"/>
<path d="M173.878 28.0408H174.857V1.71429H173.878V15.7959C173.878 16.5306 173.878 17.7551 174 21.4286V21.7959L172.286 22.0408C171.918 20.3265 171.306 18.3674 170.939 17.1429C170.816 16.6531 170.694 16.2857 170.571 16.0408L166.286 1.83674H165.184V28.1633H166.163V14.5714C166.163 13.7143 166.041 9.42858 165.918 8.44899L167.633 8.20409C168 10.0408 168.98 13.3469 169.347 14.3265L173.878 28.0408ZM176.694 29.7551H172.653L168.123 15.3061V29.7551H163.714V0.122452H167.878L172.408 14.9388V0.122452H176.816V29.7551H176.694Z" fill="white"/>
<path d="M189.429 28.898V0.979584H198.98V3.67347H192.49V12.9796H197.388V15.6735H192.49V26.3265H199.347V29.0204H189.429V28.898Z" fill="white"/>
<path d="M190.286 28.0408H198.367V27.0612H191.51V14.8163H196.408V13.7143H191.51V2.69388H198V1.71429H190.286V28.0408ZM200.204 29.7551H188.571V0.122452H200.204V4.40817H193.347V12H198.245V16.4082H193.347V25.347H200.204V29.7551Z" fill="white"/>
</svg>
