<svg width="100" height="84" viewBox="0 0 100 84" fill="none" xmlns="http://www.w3.org/2000/svg">
<path d="M58.2992 45.1844C58.1967 45.1844 57.8894 45.1844 57.7869 45.1844H47.541V47.541H57.9918C58.0943 47.541 58.709 47.541 58.8115 47.541C60.9631 47.3361 61.8853 45.5943 61.8853 44.0574C61.8853 42.5205 60.8607 40.7787 58.9139 40.5738C58.5041 40.5738 58.1967 40.5738 58.0943 40.5738H51.332C51.0246 40.5738 50.7172 40.5738 50.6148 40.4713C50.1025 40.3689 49.8975 39.8566 49.8975 39.4467C49.8975 39.1394 50.1025 38.6271 50.6148 38.4221C50.8197 38.4221 50.9221 38.3197 51.332 38.3197H61.168V35.9631H51.0246C50.6148 35.9631 50.3074 35.9631 50 36.0656C48.2582 36.2705 47.1311 37.7049 47.1311 39.4467C47.1311 40.8812 48.0533 42.5205 50 42.8279C50.3074 42.8279 50.8197 42.8279 51.0246 42.8279H57.6844C57.7869 42.8279 58.0943 42.8279 58.1967 42.8279C58.9139 42.9303 59.2213 43.4426 59.2213 43.9549C59.2213 44.4672 58.9139 44.9795 58.2992 45.1844Z" fill="white"/>
<path d="M38.832 45.1844C38.7295 45.1844 38.4221 45.1844 38.3197 45.1844H28.0738V47.541H38.5246C38.6271 47.541 39.2418 47.541 39.3443 47.541C41.4959 47.3361 42.418 45.5943 42.418 44.0574C42.418 42.5205 41.3935 40.7787 39.4467 40.5738C39.0369 40.5738 38.7295 40.5738 38.6271 40.5738H31.8648C31.5574 40.5738 31.25 40.5738 31.1476 40.4713C30.6353 40.3689 30.4303 39.8566 30.4303 39.4467C30.4303 39.1394 30.6353 38.6271 31.1476 38.4221C31.3525 38.4221 31.4549 38.3197 31.8648 38.3197H41.7008V35.9631H31.7623C31.3525 35.9631 31.0451 35.9631 30.7377 36.0656C28.9959 36.2705 27.8689 37.7049 27.8689 39.4467C27.8689 40.8812 28.791 42.5205 30.7377 42.8279C31.0451 42.8279 31.5574 42.8279 31.7623 42.8279H38.4221C38.5246 42.8279 38.832 42.8279 38.9344 42.8279C39.6516 42.9303 39.959 43.4426 39.959 43.9549C39.8566 44.4672 39.5492 44.9795 38.832 45.1844Z" fill="white"/>
<path d="M22.7459 35.9631H20.1844V47.6435H22.7459V35.9631Z" fill="white"/>
<path d="M14.4467 47.6435V35.9631H11.8853V44.6722L3.27869 35.9631H0V47.6435H2.56148V38.832L11.168 47.6435H14.4467Z" fill="white"/>
<path d="M97.4385 35.9631V44.6722L88.832 35.9631H85.5533V47.6435H88.1148V38.832L96.7213 47.6435H100V35.9631H97.4385Z" fill="white"/>
<path d="M72.1312 35.9631L64.8566 47.6435H68.0328L69.3648 45.5943H77.8689L79.2008 47.6435H82.2746L75 35.9631H72.1312ZM76.4344 43.3402H70.5943L73.4631 38.6271L76.4344 43.3402Z" fill="white"/>
<path d="M14.3443 29.3033C19.5697 14.1393 33.8115 3.9959 50 3.9959C66.1885 3.9959 80.5328 14.2418 85.6557 29.4057V29.5082H97.1311V28.1762L92.418 27.6639C89.5492 27.3566 88.9344 26.0246 88.1147 24.3852L87.9098 23.9754C81.0451 9.42623 66.1885 0 50.1025 0C33.9139 0 19.0574 9.42623 12.2951 23.9754L12.0902 24.3852C11.2705 26.0246 10.6557 27.2541 7.78689 27.6639L3.07377 28.1762V29.5082H14.4467L14.3443 29.3033Z" fill="white"/>
<path d="M85.7582 54.0984V54.2008C80.5328 69.3648 66.1885 79.6106 50.1025 79.6106C33.9139 79.6106 19.5697 69.3648 14.4467 54.2008V54.0984H2.97131V55.4303L7.68443 55.9426C10.5533 56.25 11.168 57.582 11.9877 59.2213L12.1926 59.6311C19.0574 74.1803 33.9139 83.6066 50 83.6066C66.1885 83.6066 81.0451 74.1803 87.8074 59.6311L88.0123 59.2213C88.832 57.582 89.4467 56.3525 92.3156 55.9426L97.0287 55.4303V54.0984H85.7582Z" fill="white"/>
</svg>
