<svg width="180" height="30" viewBox="0 0 180 30" fill="none" xmlns="http://www.w3.org/2000/svg">
<path d="M156.073 6.80161C154.98 4.97975 153.644 3.88663 151.457 3.88663C149.028 3.88663 146.964 5.58703 146.964 8.13764C146.964 10.4453 149.393 11.5385 151.215 12.3887L153.036 13.2389C156.559 14.8178 159.595 16.5182 159.595 20.8907C159.595 25.6275 155.83 29.2712 151.093 29.2712C146.721 29.2712 143.563 26.4777 142.591 22.2267L145.506 21.3765C145.87 24.17 148.057 26.3563 150.972 26.3563C153.887 26.3563 156.559 24.17 156.559 21.1336C156.559 17.9757 154.13 16.8826 151.579 15.7895L149.879 15.0607C146.721 13.6032 143.927 12.0243 143.927 8.13764C143.927 3.88663 147.449 1.21457 151.457 1.21457C154.494 1.21457 157.044 2.79352 158.502 5.46558L156.073 6.80161Z" fill="white"/>
<path d="M176.478 6.80161C175.385 4.97975 174.049 3.88663 171.862 3.88663C169.433 3.88663 167.368 5.58703 167.368 8.13764C167.368 10.4453 169.798 11.5385 171.619 12.3887L173.441 13.2389C176.964 14.8178 180 16.5182 180 20.8907C180 25.6275 176.235 29.2712 171.498 29.2712C167.125 29.2712 163.968 26.4777 162.996 22.2267L165.911 21.3765C166.275 24.17 168.462 26.3563 171.376 26.3563C174.291 26.3563 176.964 24.17 176.964 21.1336C176.964 17.9757 174.534 16.8826 171.984 15.7895L170.283 15.0607C167.125 13.6032 164.332 12.0243 164.332 8.13764C164.332 3.88663 167.854 1.21457 171.862 1.21457C174.899 1.21457 177.449 2.79352 178.907 5.46558L176.478 6.80161Z" fill="white"/>
<path d="M125.587 1.45749H139.676V4.25101H128.623V12.2672H139.312V15.0607H128.623V25.749H139.676V28.5425H125.587V1.45749Z" fill="white"/>
<path d="M0 0.364365L21.1336 22.4696V1.45748H24.17V29.7571L3.03644 7.65181V28.5425H0V0.364365Z" fill="white"/>
<path d="M66.4372 21.7409L75.1822 0L83.9271 21.7409L91.0931 1.45749H94.3725L83.9271 30L75.1822 8.13765L66.4372 30L55.9919 1.45749H59.2712L66.4372 21.7409Z" fill="white"/>
<path d="M55.9919 15.0607C55.9919 22.834 49.5547 29.0283 41.9028 29.0283C34.1296 29.0283 27.8138 22.834 27.8138 15.0607C27.8138 7.28744 34.251 0.971649 41.9028 0.971649C49.5547 0.971649 55.9919 7.28744 55.9919 15.0607ZM30.7287 15.0607C30.7287 21.1336 35.7085 26.2348 41.7814 26.2348C47.9757 26.2348 52.834 21.1336 52.834 15.0607C52.834 8.86639 47.9757 3.88663 41.7814 3.88663C35.587 3.76517 30.7287 8.86639 30.7287 15.0607Z" fill="white"/>
<path d="M97.2874 0.364365L118.421 22.4696V1.45748H121.457V29.7571L100.324 7.65181V28.5425H97.2874V0.364365Z" fill="white"/>
</svg>
