<svg width="108" height="35" viewBox="0 0 108 35" fill="none" xmlns="http://www.w3.org/2000/svg">
<path d="M76.5625 2.18749L78.2745 3.89945L79.9864 2.18749L78.2745 0.47554L76.5625 2.18749Z" fill="white"/>
<path d="M48.0299 9.51087L38.6141 0.47554V15.5027H41.3723V6.94293L50.6929 15.9783V0.855969H48.125V9.51087H48.0299Z" fill="white"/>
<path d="M74.6603 3.04347C74.9456 3.04347 75.5163 3.13858 75.9918 3.13858L75.8016 0.665755C75.3261 0.570646 74.8505 0.570647 74.1848 0.570647C71.8071 0.570647 70.4755 1.80706 70.3804 4.66032H66.7663V4.27989C66.7663 3.3288 67.2418 2.94836 68.3831 2.94836C68.6685 2.94836 69.2391 3.04347 69.7147 3.04347L69.4293 0.570647C68.9538 0.475539 68.4783 0.47554 67.8125 0.47554C65.4348 0.47554 64.1033 1.71195 64.0082 4.56521H63.0571L62.5815 7.03803H64.1033V15.5027H66.6712V7.03803H70.2853V15.5027H72.8532V7.03803H75.7065V4.4701H72.8532V4.08967C73.0435 3.23369 73.519 3.04347 74.6603 3.04347Z" fill="white"/>
<path d="M59.1576 12.0788C58.7772 12.5543 57.9212 13.3152 56.7799 13.3152C55.9239 13.3152 54.8777 13.0299 54.8777 11.3179V4.66032H52.3098V11.8886C52.3098 14.6467 54.0217 15.6929 56.3043 15.6929C57.8261 15.6929 58.7772 15.0272 59.2527 14.5516V15.4076H61.8206V4.66032H59.2527V12.0788H59.1576Z" fill="white"/>
<path d="M79.606 4.66032H77.038V15.4076H79.606V4.66032Z" fill="white"/>
<path d="M86.644 4.375C83.2201 4.375 80.8424 6.84783 80.8424 10.0815C80.8424 13.0299 82.8397 15.6929 86.644 15.6929C88.5462 15.6929 89.8777 15.2174 91.3994 14.3614L90.5435 11.9837C89.3071 12.8397 88.1658 13.2201 86.8342 13.2201C85.6929 13.2201 84.8369 12.9348 84.2663 12.269L91.6848 8.94021C91.1141 5.99184 89.4973 4.375 86.644 4.375ZM83.6005 10.1766C83.5054 8.27445 84.5516 6.75272 86.8342 6.75272C87.6902 6.75272 88.4511 7.22826 88.7364 7.89402L83.6005 10.1766Z" fill="white"/>
<path d="M105 5.42119C104.524 5.04076 103.478 4.4701 102.052 4.4701C99.1033 4.4701 96.7255 6.5625 96.7255 10.0815C96.7255 14.0761 99.1032 15.788 101.671 15.788C103.288 15.788 104.429 15.3125 105.095 14.5516V15.5027H107.663V0.665756L105.095 1.04619V5.42119H105ZM105 11.9837C104.239 12.7446 103.383 13.3152 102.147 13.3152C100.245 13.3152 99.3886 11.7935 99.3886 10.1766C99.3886 8.27445 100.34 6.94293 102.242 6.94293C103.478 6.94293 104.429 7.60869 105 8.27445V11.9837Z" fill="white"/>
<path d="M92.731 15.4076H95.2989V0.665756L92.731 1.04619V15.4076Z" fill="white"/>
<path d="M81.9837 28.7228V24.9185H84.7418V22.4456H81.9837V19.3071L79.4158 19.6875V22.4456H78.4647L77.9891 24.9185H79.5109V29.1032C79.5109 31.9565 80.2717 33.4782 83.3152 33.4782C83.6956 33.4782 84.2663 33.4782 84.837 33.3831L85.2174 30.9103C84.7418 31.0054 84.0761 31.1956 83.8859 31.1956C82.3641 30.9103 81.9837 30.625 81.9837 28.7228Z" fill="white"/>
<path d="M74.375 33.288H77.1331V18.5462L74.375 18.8315V33.288Z" fill="white"/>
<path d="M91.5897 22.2554C90.2581 22.2554 89.2119 22.731 88.6413 23.1114V18.356L86.0734 18.7364V33.1929H88.6413V25.7744C89.1168 25.2989 89.8777 24.6331 91.019 24.6331C91.9701 24.6331 93.0163 24.9185 93.0163 26.5353V33.1929H95.5842V26.1549C95.5842 23.2065 93.587 22.2554 91.5897 22.2554Z" fill="white"/>
<path d="M68.1929 22.2554C66.9565 22.2554 65.7201 22.5408 64.5788 22.9212L64.1032 25.394C64.9592 25.0136 66.481 24.538 67.8125 24.538C69.4293 24.538 70.1902 25.0136 70.1902 26.4402V26.9158C69.3342 26.4402 68.288 26.25 67.337 26.25C64.8641 26.25 62.9619 27.3913 62.9619 29.8641C62.9619 31.8614 64.4837 33.5734 66.9565 33.5734C68.6685 33.5734 69.7147 32.8125 70.1902 32.4321V33.3831H72.7581V26.8207C72.7581 24.3478 71.9973 22.2554 68.1929 22.2554ZM70.1902 30.0543C69.9049 30.3397 68.9538 31.1957 67.4321 31.1957C66.1956 31.1957 65.7201 30.5299 65.7201 29.9592C65.7201 29.1033 66.1956 28.6277 67.7174 28.6277C68.6685 28.6277 69.8098 29.0082 70.1902 29.2935V30.0543Z" fill="white"/>
<path d="M47.7446 24.4429H41.2772V18.6413H38.519V33.2881H41.2772V27.106H47.7446V33.2881H50.5027V18.6413H47.7446V24.4429Z" fill="white"/>
<path d="M57.6359 22.2554C54.2119 22.2554 51.8342 24.7283 51.8342 27.962C51.8342 30.9103 53.8315 33.5734 57.6359 33.5734C59.538 33.5734 60.8696 33.0978 62.3913 32.2418L61.5353 29.8641C60.2989 30.7201 59.1576 31.1005 57.8261 31.1005C56.6848 31.1005 55.8288 30.8152 55.2581 30.1495L62.6766 26.8207C62.106 23.6821 60.394 22.2554 57.6359 22.2554ZM54.4022 28.0571C54.3071 26.1549 55.3532 24.6331 57.6359 24.6331C58.4918 24.6331 59.2527 25.1087 59.538 25.7745L54.4022 28.0571Z" fill="white"/>
<path d="M18.2609 0.0951072C17.0245 -1.45266e-06 16.0734 0 15.1223 0C14.2663 0 13.4103 -1.45266e-06 11.9837 0.0951072C9.03532 0.380433 4.27989 0.855975 0 2.56793V12.6495V18.4511V19.212C0 19.3071 0 19.3071 0 19.4973C0.0951087 28.3424 7.7038 32.5272 11.9837 34.144C12.8397 34.5244 14.0761 34.9049 15.1223 35C15.9783 34.9049 17.2147 34.3342 18.2609 34.144C22.6359 32.5272 30.1494 28.3424 30.2446 19.4973C30.2446 19.4022 30.2446 19.4022 30.2446 19.212V18.4511V12.6495V2.56793C25.9647 0.951084 21.2092 0.285325 18.2609 0.0951072ZM29.3886 18.356H18.2609V33.0027C18.1658 33.0027 17.9755 33.0978 17.9755 33.0978C17.1196 33.3832 15.9783 33.7636 15.2174 33.9538C14.4565 33.8587 13.2201 33.4783 12.4592 33.0978C12.3641 33.0978 12.1739 33.0027 12.1739 33.0027V18.356H1.1413V12.5543H12.269V0.855972C13.4103 0.760864 14.2663 0.760865 15.2174 0.760865C16.1685 0.760865 17.1196 0.760864 18.1658 0.855972V12.5543H29.2935V18.356H29.3886Z" fill="white"/>
</svg>
