<svg width="100" height="19" viewBox="0 0 100 19" fill="none" xmlns="http://www.w3.org/2000/svg">
<path d="M100 3.99484C100 3.22165 100 2.31959 100 1.5464V0.257738H95.7474V3.47939C95.7474 5.54124 95.7474 7.73196 95.7474 9.79381C95.7474 9.92268 95.7474 10.0515 95.7474 10.1804C95.6186 11.5979 94.9742 12.6289 93.9433 13.5309C93.0412 14.3041 92.1392 14.5619 90.9794 14.6907C89.8196 14.6907 88.5309 14.6907 87.5 14.6907H86.9845C85.6959 14.6907 84.5361 14.3041 83.634 13.4021C82.6031 12.3711 81.9588 11.2113 81.9588 9.66495C81.9588 7.73196 81.9588 5.92783 81.9588 3.99484C81.9588 3.22165 81.9588 2.44846 81.9588 1.5464V0.128864H77.7062V9.53608C77.7062 10.6959 77.3196 11.5979 76.8041 12.5C75.7732 13.7887 74.4845 14.5618 72.9381 14.5618C72.165 14.5618 71.3918 14.5618 70.7474 14.5618H70.6186C70.232 14.5618 69.7165 14.5618 69.3299 14.5618C68.5567 14.5618 67.9124 14.433 67.3969 14.3041C66.2371 13.9175 65.335 13.1443 64.6907 11.9845C64.3041 11.2113 64.0464 10.3093 64.0464 9.27836C64.0464 7.47423 64.0464 5.54124 64.0464 3.73712V0H59.7938V3.86598V9.66495C59.7938 10.6959 60.0516 11.7268 60.4382 12.7577C61.2113 14.8196 62.6289 16.366 64.5619 17.5258C65.7217 18.1701 66.8814 18.5567 67.9124 18.6856C68.8144 18.8144 69.7165 18.8144 71.0052 18.8144H71.3918C72.2938 18.8144 73.1959 18.8144 74.0979 18.6856C76.4175 18.4278 78.3505 17.268 79.8969 15.4639C81.5722 17.5258 83.8917 18.6856 86.5979 18.8144C87.1134 18.8144 87.7577 18.8144 88.5309 18.8144C89.0464 18.8144 89.5619 18.8144 90.0773 18.8144C90.4639 18.8144 90.7216 18.8144 91.1082 18.8144C91.6237 18.8144 92.0103 18.8144 92.5258 18.6856C94.7165 18.299 96.5206 17.1392 97.9381 15.4639C99.3557 13.7887 100 11.8557 100 9.66495C100 7.73196 100 5.92783 100 3.99484Z" fill="white"/>
<path d="M57.9897 9.27837C57.9897 7.47425 57.4742 5.79898 56.4433 4.38146C54.5103 1.67527 51.933 0.257751 48.7113 0.257751C44.8454 0.257751 40.7217 0.257751 35.3093 0.257751C34.665 0.257751 34.0206 0.386613 33.3763 0.515479C30.6701 1.15981 28.6083 2.7062 27.3196 5.02579C25.3866 8.50517 25.6443 11.9845 27.9639 15.2062C29.768 17.6546 32.2165 18.9433 35.1804 18.9433C37.1134 18.9433 39.3041 18.9433 41.8814 18.9433C43.5567 18.9433 45.1031 18.9433 46.7784 18.9433H48.067C48.4536 18.9433 49.3557 18.9433 50.2577 18.9433C50.3866 18.9433 50.3866 18.9433 50.5155 18.9433H51.6753V14.6907H45.8763C42.3969 14.6907 39.0464 14.6907 35.567 14.6907C34.9227 14.6907 34.2784 14.5619 33.7629 14.3041C32.0876 13.6598 31.0567 12.3711 30.6701 10.8248C30.4124 9.79383 30.4124 8.89176 30.799 7.86084C31.4433 5.79898 33.3763 4.51032 35.567 4.51032C37.3711 4.51032 39.3041 4.51032 41.1082 4.51032H43.1701C45.1031 4.51032 46.9072 4.51032 48.8402 4.51032C49.4845 4.51032 50.2577 4.63919 50.7732 4.89692C52.5773 5.67012 53.866 7.47424 53.866 9.5361V18.9433H57.9897L58.1186 17.9124C58.1186 17.7835 58.1186 17.7835 58.1186 17.6547V15.3351C57.9897 13.2732 57.9897 11.2114 57.9897 9.27837Z" fill="white"/>
<path d="M9.14949 0.128876C8.50516 0.128876 7.86082 0.257748 7.08763 0.386614C5.15464 0.773211 3.60825 1.80414 2.31959 3.22166C0.7732 4.89692 0 6.95877 0 9.02063C0 10.9536 0 13.0155 0 15.0773C0 15.8505 0 16.7526 0 17.5258C0 17.6546 0 17.7835 0 17.7835L0.128874 18.8144H4.25258V15.0773C4.25258 13.1443 4.25258 11.2114 4.25258 9.40723C4.25258 8.24744 4.63918 7.21651 5.41238 6.31445C6.4433 5.15465 7.73196 4.51032 9.27836 4.51032C12.3711 4.51032 15.3351 4.51032 18.4278 4.51032H25.2577V0.25775H20.1031C16.4949 0.128884 12.7577 0.128876 9.14949 0.128876Z" fill="white"/>
</svg>
