<svg width="197" height="30" viewBox="0 0 197 30" fill="none" xmlns="http://www.w3.org/2000/svg">
<path d="M186.615 13.2308V17.3846H189.538V21.3846C189.538 21.6923 189.538 22.1539 189.538 22.4615C189.385 23.2308 188.769 24.4616 186.615 24.4616C184.615 24.4616 183.846 23.2308 183.692 22.4615C183.692 22.1539 183.692 21.6923 183.692 21.3846V8.61539C183.692 8.15386 183.692 7.69231 183.846 7.23078C184 6.61539 184.615 5.23077 186.615 5.23077C188.769 5.23077 189.231 6.61539 189.385 7.23078C189.538 7.69231 189.538 8.30769 189.538 8.30769V9.84616H196.615V8.92308C196.615 8.92308 196.615 8.00001 196.615 7.07693C196.154 1.84616 191.692 0.153856 186.769 0.153856C181.846 0.153856 177.538 1.84616 176.923 7.07693C176.923 7.53847 176.769 8.46154 176.769 8.92308V20.7692C176.769 21.2308 176.769 21.6923 176.923 22.6154C177.385 27.6923 181.846 29.5385 186.769 29.5385C191.692 29.5385 196.154 27.6923 196.615 22.6154C196.769 21.6923 196.769 21.2308 196.769 20.7692V13.2308H186.615ZM138 0.923086H130.923V21.6923C130.923 22 130.923 22.4615 130.923 22.7692C130.769 23.5385 130.154 24.7692 128.154 24.7692C126.154 24.7692 125.538 23.3846 125.538 22.7692C125.538 22.4615 125.385 22 125.538 21.6923V0.923086H118.462V21.0769C118.462 21.5385 118.462 22.6154 118.462 22.9231C118.923 28.1539 123.077 29.8462 128.308 29.8462C133.538 29.8462 137.538 28.1539 138.154 22.9231C138.154 22.6154 138.308 21.5385 138.154 21.0769V0.923086H138ZM72.7692 0.923086L69.2308 22.9231L65.6923 0.923086H54.3077L53.6923 28.9231H60.7692L60.9231 2.92308L65.6923 28.9231H72.7692L77.5385 2.92308L77.6923 28.9231H84.7692L84.1538 0.923086H72.7692ZM30.3077 0.923086L25.0769 28.9231H32.7692L36.6154 2.92308L40.4615 28.9231H48L42.7692 0.923086H30.3077ZM162.769 23.5385L156.154 0.923086H145.692V28.7692H152.615L152.154 5.38462L159.231 28.7692H169.231V0.923086H162.308L162.769 23.5385ZM99.0769 8.30769C98.9231 7.69231 98.9231 7.23077 99.0769 6.92308C99.2308 6 99.8462 5.07693 101.692 5.07693C103.385 5.07693 104.308 6.15385 104.308 7.53846V9.23077H111.231V7.23078C111.231 1.23078 105.846 0.307699 101.846 0.307699C96.9231 0.307699 92.9231 2.00001 92.1538 6.46155C92 7.69231 91.8462 8.76924 92.1538 10.1539C93.3846 15.8462 103.231 17.5385 104.615 21.0769C104.923 21.6923 104.769 22.6154 104.615 23.0769C104.462 24 103.846 24.9231 101.846 24.9231C100.154 24.9231 99.0769 23.8462 99.0769 22.4615V19.6923H91.6923V21.8461C91.6923 28 96.6154 29.8462 101.846 29.8462C106.923 29.8462 110.923 28.1539 111.692 23.5385C112 21.0769 111.846 19.5385 111.692 18.9231C110.308 13.2308 99.8461 11.5385 99.0769 8.30769ZM7.6923 8.15385C7.53846 7.53847 7.53846 6.92308 7.6923 6.61539C7.84615 5.69231 8.46154 4.76924 10.3077 4.76924C12 4.76924 12.9231 5.84616 12.9231 7.38462V9.07693H19.8462V7.07693C19.8462 0.923086 14.3077 0 10.3077 0C5.38462 0 1.23077 1.69232 0.461537 6.3077C0.307691 7.53847 0.153845 8.61539 0.461537 10.1539C1.69231 15.8462 11.6923 17.5385 13.0769 21.2308C13.3846 21.8462 13.2308 22.7692 13.0769 23.2308C12.9231 24.1539 12.1538 25.0769 10.3077 25.0769C8.61539 25.0769 7.53846 24 7.53846 22.4615V19.6923H0V21.8461C0 28.1538 4.92308 30 10.1538 30C15.2308 30 19.3846 28.3077 20 23.5385C20.3077 21.0769 20.1538 19.5385 20 18.9231C19.2308 13.2308 8.61538 11.3846 7.6923 8.15385Z" fill="white"/>
</svg>
