<svg width="100" height="67" viewBox="0 0 100 67" fill="none" xmlns="http://www.w3.org/2000/svg">
<path d="M59.2648 1.98329C58.1668 1.98329 57.3982 2.53228 57.3982 3.19107C57.3982 4.17926 58.7158 4.61845 60.1432 4.94785C62.8881 5.49684 64.3155 6.37522 64.3155 8.46139C64.3155 10.4378 62.5587 11.9749 59.704 11.9749C57.2884 12.1945 55.0924 10.6574 54.3239 8.46139L56.3002 7.25361C56.6296 8.90059 58.057 10.1084 59.704 9.99857C61.1314 9.99857 62.0097 9.44959 62.0097 8.5712C62.0097 7.69281 61.4608 7.25362 59.3746 6.92422C56.959 6.59483 55.2022 5.49684 55.2022 3.30087C55.2022 1.5441 56.8492 0.00691905 59.4844 0.00691905C61.4608 -0.102879 63.2175 1.1049 63.8763 2.86168L61.8999 3.95966C61.5705 2.75188 60.4726 1.8735 59.2648 1.98329Z" fill="white"/>
<path d="M65.3037 9.12021V5.60666H63.6567V3.84989H65.3037V1.21472H67.3899V3.84989H70.3544V5.60666H67.3899V9.12021C67.3899 9.55941 67.7193 9.99859 68.1585 10.1084H68.2683C68.8172 10.1084 69.1466 9.779 69.2564 9.01041L71.2328 9.33981C71.123 10.877 69.8054 12.0848 68.2683 11.975C66.8409 12.1946 65.5233 11.0966 65.3037 9.6692C65.3037 9.44961 65.3037 9.33981 65.3037 9.12021Z" fill="white"/>
<path d="M79.2481 3.84985V11.7553H77.1619V10.5476C76.7227 11.4259 75.7345 11.9749 74.7464 11.8651C73.2092 11.9749 71.8916 10.877 71.7818 9.33977C71.7818 9.12018 71.7818 9.01038 71.7818 8.79078V3.84985H73.9778V8.35159C73.9778 9.44957 74.5268 10.1084 75.4052 10.1084C76.5031 10.1084 77.1619 9.22997 77.1619 7.91239V3.84985H79.2481Z" fill="white"/>
<path d="M79.7971 7.91245C79.7971 5.38708 81.3343 3.74011 83.5302 3.74011C84.5184 3.74011 85.5066 4.1793 86.0556 5.05769V0.11676H88.1418V11.8652H86.0556V10.7672C85.5066 11.6456 84.5184 12.0848 83.5302 12.0848C81.3343 11.975 79.7971 10.328 79.7971 7.91245ZM86.1654 7.91245C86.2752 6.70466 85.3968 5.71648 84.2988 5.60668C83.091 5.49688 82.1029 6.37528 81.9931 7.47326C81.9931 7.58306 81.9931 7.80265 81.9931 7.91245C81.8833 9.12023 82.7616 10.1084 83.9694 10.2182C85.1772 10.328 86.1654 9.44963 86.2752 8.24184C86.1654 8.13205 86.1654 8.02224 86.1654 7.91245Z" fill="white"/>
<path d="M88.8006 0.446106H91.1063V2.75187H88.8006V0.446106ZM90.9965 3.84986V11.7553H88.9103V3.84986H90.9965Z" fill="white"/>
<path d="M91.6553 7.80258C91.6553 5.49682 93.5219 3.63025 95.8277 3.63025C98.1334 3.63025 100 5.49682 100 7.80258C100 10.1083 98.1334 11.9749 95.8277 11.9749C93.6317 12.0847 91.7651 10.328 91.6553 8.13198C91.6553 8.02218 91.6553 7.91238 91.6553 7.80258ZM97.804 7.80258C97.6942 6.7046 96.7061 5.82622 95.6081 5.93601C94.5101 6.04581 93.6317 7.034 93.7415 8.13198C93.8513 9.22997 94.7297 9.99855 95.8277 9.99855C96.9256 9.99855 97.9138 9.12017 97.9138 8.02219C97.804 7.91239 97.804 7.91238 97.804 7.80258Z" fill="white"/>
<path d="M63.7665 13.8415V15.9277H57.1786V18.453H63.2175V20.5392H57.1786V23.394H63.9861V25.4801H54.9827V13.7317L63.7665 13.8415Z" fill="white"/>
<path d="M64.5351 26.688L66.4017 25.8096C66.6213 26.6879 67.3899 27.3467 68.3781 27.2369C69.6956 27.2369 70.3544 26.3586 70.3544 25.041V24.2724C69.8054 25.1508 68.8172 25.59 67.8291 25.4802C65.8527 25.4802 64.2057 23.8332 64.2057 21.8568C64.2057 21.747 64.2057 21.6372 64.2057 21.6372C64.0959 19.551 65.6331 17.6845 67.7193 17.5747C67.8291 17.5747 67.8291 17.5747 67.9389 17.5747C68.8172 17.4649 69.8054 17.9041 70.3544 18.6727V17.6845H72.4406V24.9312C72.4406 27.4565 71.123 29.1035 68.3781 29.1035C66.2919 29.1035 65.0841 28.2251 64.5351 26.688ZM70.3544 21.5274C70.4642 20.4294 69.5858 19.4413 68.4879 19.3315C67.3899 19.2217 66.4017 20.1 66.2919 21.198C66.2919 21.3078 66.2919 21.4176 66.2919 21.6372C66.1821 22.7352 67.0605 23.7234 68.1585 23.7234C68.2683 23.7234 68.2683 23.7234 68.3781 23.7234C69.476 23.7234 70.4642 22.845 70.3544 21.6372C70.3544 21.6372 70.3544 21.6372 70.3544 21.5274Z" fill="white"/>
<path d="M75.1855 17.6844V18.6726C75.5149 17.904 76.2835 17.4648 77.0521 17.4648C78.2599 17.355 79.2481 18.3432 79.3579 19.551C79.3579 19.6608 79.3579 19.7706 79.3579 19.8804C79.3579 20.2098 79.3579 20.5392 79.2481 20.8686H77.2717C77.2717 20.649 77.3815 20.4294 77.3815 20.3196C77.3815 19.7706 76.9423 19.3314 76.5031 19.3314H76.3933C75.7345 19.3314 75.2954 19.7706 75.2954 20.5392V25.5899H73.2092V17.6844H75.1855Z" fill="white"/>
<path d="M85.7262 22.5156L87.5928 23.2842C87.0438 24.8214 85.5066 25.9194 83.8596 25.8096C81.6637 25.9194 79.7971 24.2724 79.6873 22.0764C79.6873 21.9666 79.6873 21.747 79.6873 21.6372C79.5775 19.4413 81.2245 17.6845 83.4204 17.5747C83.5302 17.5747 83.5302 17.5747 83.64 17.5747C85.5066 17.4649 87.1536 18.7825 87.2634 20.649C87.2634 20.7588 87.2634 20.9784 87.2634 21.0882C87.2634 21.4176 87.2634 21.747 87.1536 22.0764H81.7735C81.7735 23.1744 82.6518 23.943 83.7498 23.943H83.8596C84.738 23.943 85.5066 23.394 85.7262 22.5156ZM81.7735 20.649H85.1772C85.1772 20.649 85.1772 20.649 85.1772 20.5392C85.1772 19.7706 84.5184 19.2217 83.5302 19.2217C82.7616 19.2217 81.9931 19.7707 81.7735 20.649Z" fill="white"/>
<path d="M88.9104 22.9548V19.4413H87.2634V17.6845H88.9104V15.0493H90.9965V17.6845H93.9611V19.4413H90.9965V22.9548C90.9965 23.394 91.3259 23.8332 91.7651 23.943H91.8749C92.4239 23.943 92.7533 23.6136 92.8631 22.845L94.8395 23.1744C94.7297 24.7116 93.4121 25.9194 91.8749 25.8096C90.4475 26.0292 89.13 24.9312 88.9104 23.5038C88.9104 23.2842 88.9104 23.0646 88.9104 22.9548Z" fill="white"/>
<path d="M53.9945 27.6761H56.3002L58.2766 37.8873L60.3628 27.6761H64.2057L66.2919 37.8873L67.8291 30.0917H70.1348L68.1585 39.3147H64.4253L62.3391 29.1035L60.253 39.3147H56.5198L53.9945 27.6761Z" fill="white"/>
<path d="M75.7345 36.3501L77.6011 37.1187C77.0521 38.6559 75.5149 39.7539 73.868 39.6441C71.672 39.7539 69.8054 38.1069 69.6956 35.911C69.6956 35.8012 69.6956 35.5816 69.6956 35.4718C69.5858 33.2758 71.2328 31.519 73.4288 31.4092C73.5386 31.4092 73.5386 31.4092 73.6484 31.4092C75.515 31.2994 77.1619 32.617 77.2717 34.4836C77.2717 34.5934 77.2717 34.813 77.2717 34.9228C77.2717 35.2522 77.2717 35.5816 77.1619 35.911H71.7818C71.7818 37.0089 72.6602 37.7775 73.7582 37.7775H73.868C74.7464 37.7775 75.5149 37.1187 75.7345 36.3501ZM71.7818 34.3738H75.1855C75.1855 34.3738 75.1855 34.3738 75.1855 34.264C75.1855 33.4954 74.5268 32.9464 73.5386 32.9464C72.77 32.9464 72.0014 33.4954 71.7818 34.3738Z" fill="white"/>
<path d="M77.6011 37.4482L79.2481 36.5698C79.5775 37.3384 80.3461 37.8873 81.2245 37.7775C82.1028 37.7775 82.542 37.4481 82.542 37.009C82.542 36.46 82.2126 36.2404 80.6755 36.0208C79.0285 35.8012 77.9305 35.0326 77.9305 33.6052C77.9305 32.1778 79.3579 31.2994 81.0049 31.2994C82.7616 31.2994 83.5302 32.068 83.9694 32.9464L82.3224 33.8248C82.1028 33.2758 81.5539 32.8366 81.0049 32.9464C80.3461 32.9464 79.9069 33.2758 79.9069 33.6052C79.9069 34.0444 80.3461 34.264 81.6637 34.4836C83.7498 34.813 84.5184 35.5816 84.5184 37.009C84.5184 38.5461 83.091 39.5343 81.2245 39.5343C79.6873 39.6441 78.2599 38.7657 77.6011 37.4482Z" fill="white"/>
<path d="M85.7262 36.6796V33.166H84.0792V31.4093H85.7262V28.7741H87.8124V31.4093H90.7769V33.166H87.8124V36.6796C87.8124 37.1188 88.1418 37.558 88.581 37.6678H88.6908C89.2398 37.6678 89.5691 37.3384 89.6789 36.5698L91.6553 36.8992C91.5455 38.4364 90.2279 39.6442 88.6908 39.5344C87.2634 39.754 85.9458 38.656 85.7262 37.2286C85.7262 37.009 85.7262 36.8992 85.7262 36.6796Z" fill="white"/>
<path d="M90.4739 43.3773H82.5684V49.1966C82.5684 49.1966 82.5684 49.1966 82.5684 49.3064C82.5684 54.6865 78.0667 59.0785 72.6866 59.0785C67.526 59.0785 63.2439 55.0159 63.0243 49.8554C63.0243 49.7456 63.0243 49.526 63.0243 49.4162C63.0243 49.3064 63.0243 49.3064 63.0243 49.1966V43.3773H55.1188V48.977C55.1188 49.0868 55.1188 49.0868 55.1188 49.1966C55.1188 49.3064 55.1188 49.526 55.1188 49.6358C54.8992 54.7963 50.6171 58.8589 45.4565 58.9687C45.3467 58.9687 45.3467 58.9687 45.2369 58.9687C39.9666 58.9687 35.6845 54.9061 35.4649 49.6358C35.4649 49.526 35.4649 49.4162 35.4649 49.3064C35.4649 49.0868 35.4649 48.977 35.4649 48.7574C35.6845 43.7067 39.747 39.6441 44.7978 39.4245C44.9076 39.4245 45.1271 39.4245 45.2369 39.4245C45.3467 39.4245 45.4565 39.4245 45.4565 39.4245H51.0563V31.5191H45.3468H45.2369C45.1271 31.5191 44.9076 31.5191 44.7978 31.5191C39.4176 31.1897 35.2453 26.5781 35.5747 21.198C35.9041 16.0375 40.0764 11.9749 45.3468 11.9749H51.1661V4.06946H17.7873H17.6775C7.90548 4.06946 0 11.975 0 21.747C0 31.4093 7.68589 39.7539 17.1286 39.3148C22.5087 38.9854 27.23 43.1577 27.4496 48.6476C27.4496 48.7574 27.4496 48.7574 27.4496 48.8672C27.4496 48.977 27.4496 49.1966 27.4496 49.3064C27.4496 49.526 27.4496 49.6358 27.4496 49.8554C27.23 55.2355 22.6185 59.5177 17.2383 59.1883C11.968 58.9687 7.90548 54.6865 7.90548 49.4162V48.7574C7.90548 48.0986 7.90548 43.3773 7.90548 43.3773H0.109797V48.5378C0.109797 48.7574 0.109797 48.977 0.109797 49.1966C0.109797 58.9687 8.01528 66.8741 17.7873 66.8741C23.1675 66.8741 28.2182 64.4586 31.6219 60.2862C31.9513 60.7254 32.3905 61.1646 32.8297 61.6038C39.747 68.5211 50.9465 68.5211 57.8638 61.6038C58.303 61.1646 58.7422 60.7254 59.0716 60.2862C65.2203 67.8623 76.4197 69.0701 83.9958 62.9214C88.1681 59.5177 90.5837 54.4669 90.5837 49.1966C90.4739 49.1966 90.4739 43.3773 90.4739 43.3773ZM7.79569 21.8568C7.68589 16.4767 11.968 12.0847 17.3482 11.9749C17.458 11.9749 17.6775 11.9749 17.7873 11.9749C17.8971 11.9749 17.8971 11.9749 18.0069 11.9749H30.6338C25.583 19.551 27.1202 29.7623 34.2571 35.5816C33.2689 36.3502 32.3905 37.2286 31.6219 38.2168C29.975 36.2404 26.2418 31.5191 18.6657 31.7387C13.1758 32.1779 8.45448 28.0055 8.01529 22.5156C7.79569 22.1862 7.79569 22.0764 7.79569 21.8568Z" fill="white"/>
</svg>
