<svg width="80" height="80" viewBox="0 0 80 80" fill="none" xmlns="http://www.w3.org/2000/svg">
<path d="M0 0V80H80V0H0ZM17.6124 37.7054H29.0233V49.1163H17.6124V37.7054ZM56.4341 68.4651H26.6667V64.4961H28.4031C34.1085 64.4961 36.3411 62.1395 36.3411 56.5581V15.5039H35.7209C26.0465 15.5039 20.8372 21.2093 20.8372 30.3876V31.0078H17.3643V11.4108H65.3643V30.7597H61.8915V30.1395C61.8915 20.9612 56.8062 15.2558 47.0077 15.2558H46.3876V56.4341C46.3876 62.1395 48.7442 64.3721 54.3256 64.3721H56.062V68.4651H56.4341ZM65.4884 49.1163H54.0775V37.7054H65.4884V49.1163Z" fill="white"/>
</svg>
