<svg width="100" height="44" viewBox="0 0 100 44" fill="none" xmlns="http://www.w3.org/2000/svg">
<path d="M20.858 42.9734C27.8846 35.1331 38.3136 30.1775 49.8521 30.1775C61.7604 30.1775 72.4113 35.429 79.4379 43.6391L81.287 41.9379C73.7426 33.284 62.5 27.7367 49.8521 27.7367C37.574 27.7367 26.5533 32.9882 19.0089 41.2722L20.858 42.9734Z" fill="white"/>
<path d="M98.003 22.3373C86.0207 10.1331 69.0089 2.44082 50.2219 2.44082C31.213 2.44082 14.0533 10.2811 1.99704 22.7811L0 20.784C12.6479 7.98816 30.4734 0 50.1479 0C69.7485 0 87.426 7.84023 100 20.4882L98.003 22.3373Z" fill="white"/>
<path d="M6.13905 24.0385L8.87574 21.8935L15.2367 29.4379C16.568 30.9912 18.6391 32.2486 21.4497 29.9557C23.8905 27.6628 22.7811 25.7397 20.932 23.5947L15.3107 16.864L18.1213 14.645L24.4083 22.1154C25.8136 23.7427 26.5533 25.148 26.5533 27.145C26.5533 29.4379 25.2219 31.361 23.2988 32.9142C22.1893 33.8018 20.3402 34.6154 18.4172 34.6154C15.7544 34.6154 14.0533 33.358 12.7959 31.8788L6.13905 24.0385Z" fill="white"/>
<path d="M34.0976 21.3018L31.8787 10.9467C31.5828 9.61539 31.8047 9.02367 33.284 8.72781L43.4172 6.73077L44.1568 9.91125L35.503 11.5385L36.3166 15.2367L44.1568 13.6834L44.8965 16.7899L36.9822 18.4172L37.426 20.1923C37.7959 21.6716 38.4615 21.9675 40.1627 21.5976L46.3018 20.3402L47.0414 23.5207L40.7544 24.7781C35.8728 25.6657 34.6154 23.5947 34.0976 21.3018Z" fill="white"/>
<path d="M58.8018 24.7042L57.3225 24.4083C55.9172 24.0385 55.2515 23.7427 55.9172 21.5237L58.5799 11.6864C59.7633 7.69236 63.3876 8.21011 65.5326 8.6539L71.6716 10.2072L70.784 13.3876L65.0888 11.9083C63.5355 11.4646 62.3521 11.2427 61.8343 12.9438L61.3166 14.9409L69.0829 16.864L68.1953 19.9705L60.429 17.9734L58.8018 24.7042Z" fill="white"/>
<path d="M73.5947 29.8816L70.2663 27.9586L84.9852 18.713C86.0207 17.9733 86.9083 17.9733 87.574 18.4911L88.2396 19.0828C88.8314 19.6745 88.9793 19.7485 88.2396 22.2633L83.6538 37.7219L80.6953 35.1331L81.6568 31.9526L78.3284 29.3639L81.287 27.5148L82.6923 28.5503L84.3935 22.929L73.5947 29.8816Z" fill="white"/>
</svg>
