<svg width="249" height="30" viewBox="0 0 249 30" fill="none" xmlns="http://www.w3.org/2000/svg">
<path fill-rule="evenodd" clip-rule="evenodd" d="M22.8191 19.1489C22.8191 26.6489 18.3511 29.8404 11.1702 29.8404C8.61702 29.8404 4.78723 29.2021 2.23404 26.4893C0.638294 24.734 0.159574 22.5 0 19.6276V0.797852H6.06383V19.1489C6.06383 23.1383 8.29787 24.734 11.1702 24.734C15.1596 24.734 16.9149 22.8191 16.9149 19.3085V0.797852H22.9787V19.1489H22.8191Z" fill="white"/>
<path fill-rule="evenodd" clip-rule="evenodd" d="M74.5213 20.4255C74.5213 22.0213 75.3191 25.0532 80.4255 25.0532C83.1383 25.0532 86.3298 24.4149 86.3298 21.383C86.3298 19.1489 84.2553 18.6702 81.2234 17.8723L78.1915 17.2341C73.5638 16.117 69.2553 15.1596 69.2553 8.93618C69.2553 5.74469 71.0106 0.319153 80.1064 0.319153C88.7234 0.319153 91.117 5.90427 91.117 9.4149H85.5319C85.3723 8.13831 84.8936 5.10639 79.7872 5.10639C77.5532 5.10639 74.8404 5.90427 74.8404 8.45746C74.8404 10.6915 76.5957 11.1702 77.8723 11.3298L84.734 13.0851C88.5638 14.0426 92.0745 15.6383 92.0745 20.7447C92.0745 29.2021 83.4574 30 80.9043 30C70.5319 30 68.7766 24.0957 68.7766 20.5851H74.5213V20.4255Z" fill="white"/>
<path fill-rule="evenodd" clip-rule="evenodd" d="M115.372 29.0425H109.468V5.74466H101.011V0.797852H123.989V5.74466H115.532V29.0425H115.372Z" fill="white"/>
<path fill-rule="evenodd" clip-rule="evenodd" d="M156.702 19.1489C156.702 26.6489 152.234 29.8404 145.053 29.8404C142.5 29.8404 138.67 29.2021 136.117 26.4893C134.521 24.734 134.043 22.5 133.883 19.6276V0.797852H139.947V19.1489C139.947 23.1383 142.181 24.734 145.053 24.734C149.043 24.734 150.798 22.8191 150.798 19.3085V0.797852H156.862V19.1489H156.702Z" fill="white"/>
<path fill-rule="evenodd" clip-rule="evenodd" d="M175.053 24.2553H180.798C185.585 24.2553 187.181 19.4681 187.181 14.8404C187.181 6.54254 183.191 5.90423 180.638 5.90423H175.053V24.2553ZM169.149 0.797852H181.596C191.17 0.797852 193.085 8.93615 193.085 14.2021C193.085 20.2659 190.691 29.0425 181.436 29.0425H169.149V0.797852Z" fill="white"/>
<path fill-rule="evenodd" clip-rule="evenodd" d="M204.255 29.0425H210.16V0.797852H204.255V29.0425Z" fill="white"/>
<path fill-rule="evenodd" clip-rule="evenodd" d="M234.894 24.8936C238.085 24.8936 242.553 22.9787 242.553 15C242.553 7.02125 238.085 5.10635 234.894 5.10635C231.702 5.10635 227.234 7.02125 227.234 15C227.234 22.8191 231.702 24.8936 234.894 24.8936ZM234.894 0.159546C238.564 0.159546 248.457 1.75529 248.457 15C248.457 28.2447 238.564 29.8404 234.894 29.8404C231.223 29.8404 221.33 28.2447 221.33 15C221.33 1.75529 231.223 0.159546 234.894 0.159546Z" fill="white"/>
<path fill-rule="evenodd" clip-rule="evenodd" d="M35.4255 10.6915C35.4255 3.19148 39.8936 0 47.0745 0C49.6277 0 53.4574 0.638295 56.0106 3.35106C57.6064 5.10638 58.0851 7.34043 58.2447 10.2128V28.883H52.1808V10.5319C52.1808 6.54255 49.9468 4.94681 47.0745 4.94681C43.0851 4.94681 41.3298 6.8617 41.3298 10.3723V29.0425H35.266V10.6915H35.4255Z" fill="white"/>
</svg>
