<svg width="195" height="30" viewBox="0 0 195 30" fill="none" xmlns="http://www.w3.org/2000/svg">
<path d="M0 0H3.42857L8.28571 19.4286L13.3333 0.190473H16.5714L21.619 19.4286L26.381 0H29.5238L23.1429 23.5238H20L14.7619 3.80952L9.71429 23.5238H6.66667L0 0Z" fill="white"/>
<path d="M32.2857 6.47619H35.1428V23.5238H32.2857V6.47619ZM32.1905 0H35.2381V3.33333H32.1905V0Z" fill="white"/>
<path d="M41.2381 0H38.381V23.5238H41.2381V0Z" fill="white"/>
<path d="M44.2857 0H47.1428V13.7143L54.9524 6.47619H58.3809L52.3809 12.1905L59.0476 23.5238H55.9048L50.2857 13.9048L47.1428 16.7619V23.6191H44.2857V0Z" fill="white"/>
<path d="M61.2381 6.47619H64.0952V23.5238H61.2381V6.47619ZM61.0476 0H64.0952V3.33333H61.0476V0Z" fill="white"/>
<path d="M66.8571 6.47618H69.7143V9.04761C70.5714 7.90475 71.4286 7.14285 72.4762 6.57142C73.4286 6.09523 74.4762 5.80951 75.619 5.80951C77.5238 5.80951 78.9524 6.38094 79.8095 7.42856C80.7619 8.47618 81.1429 9.99998 81.1429 12.0952V23.4286H78.2857V12.6667C78.2857 11.0476 78 9.99999 77.4286 9.33332C76.8571 8.66666 76 8.38094 74.8571 8.38094C74.1905 8.38094 73.619 8.47618 72.9524 8.66665C72.2857 8.85713 71.7143 9.23808 71.2381 9.71427C70.7619 10.1905 70.2857 10.7619 70 11.2381C69.7143 11.8095 69.619 12.4762 69.619 13.3333V23.4286H66.7619L66.8571 6.47618Z" fill="white"/>
<path d="M86.1905 18.5714C86.381 19.7143 86.8572 20.5714 87.6191 21.0476C88.381 21.5238 89.5238 21.7143 90.8572 21.7143C92.2857 21.7143 93.3333 21.4286 93.9048 20.9524C94.4762 20.4762 94.7619 19.8095 94.7619 18.9524C94.7619 18.6666 94.6667 18.2857 94.6667 18C94.5714 17.7143 94.4762 17.4286 94.2857 17.2381C94.0952 17.0476 93.8095 16.8571 93.4286 16.5714C93.0476 16.3809 92.5714 16.2857 91.9048 16.1905L89.8095 15.9047C88.8572 15.7143 88 15.5238 87.3333 15.3333C86.5714 15.0476 86 14.7619 85.5238 14.3809C85.0476 14 84.6667 13.5238 84.381 12.9524C84.0953 12.3809 84 11.7143 84 10.9524C84 10.1905 84.1905 9.42856 84.4762 8.85713C84.7619 8.19047 85.2381 7.71427 85.9048 7.23808C86.4762 6.85713 87.2381 6.47618 88 6.19046C88.8572 5.99999 89.7143 5.80951 90.6667 5.80951C91.9048 5.80951 92.9524 5.90475 93.7143 6.19046C94.5714 6.47618 95.1429 6.76189 95.7143 7.23808C96.1905 7.61903 96.6667 8.09522 96.9524 8.76189C97.2381 9.33332 97.4286 9.90475 97.6191 10.5714L95.0476 10.9524C94.8572 10.4762 94.7619 10.0952 94.5714 9.71427C94.381 9.33332 94.0952 9.04761 93.8095 8.85713C93.5238 8.66666 93.0476 8.47617 92.5714 8.2857C92.0952 8.19046 91.5238 8.09523 90.8572 8.09523C90.0952 8.09523 89.4286 8.19046 88.9524 8.2857C88.4762 8.47617 88 8.57142 87.7143 8.85713C87.4286 9.14285 87.2381 9.42856 87.0476 9.61903C86.9524 9.90475 86.8572 10.2857 86.8572 10.5714C86.8572 10.9524 86.9524 11.2381 86.9524 11.5238C87.0476 11.8095 87.2381 12.0952 87.4286 12.2857C87.7143 12.4762 88 12.6667 88.381 12.8571C88.7619 13.0476 89.3333 13.1428 90 13.2381L92.4762 13.619C94.4762 13.9048 95.9048 14.4762 96.6667 15.3333C97.5238 16.0952 98 17.3333 98 18.8571C98 19.619 97.8095 20.1905 97.6191 20.8571C97.3333 21.4286 96.9524 22 96.381 22.4762C95.8095 22.9524 95.1429 23.2381 94.2857 23.5238C93.4286 23.8095 92.4762 23.9048 91.3333 23.9048C90.2857 23.9048 89.3333 23.8095 88.4762 23.619C87.6191 23.4286 86.7619 23.0476 86.0952 22.6667C85.4286 22.2857 84.8572 21.619 84.4762 20.9524C84.0952 20.2857 83.8095 19.3333 83.7143 18.3809H86.4762V18.5714H86.1905Z" fill="white"/>
<path d="M107.524 21.7143C108.381 21.7143 109.238 21.5238 109.905 21.2381C110.571 20.9524 111.143 20.4762 111.524 19.9048C111.905 19.3333 112.286 18.5714 112.476 17.8095C112.667 16.9524 112.762 16.0952 112.762 15.0476C112.762 14.0952 112.667 13.2381 112.476 12.3809C112.286 11.619 112 10.8571 111.524 10.2857C111.143 9.71429 110.571 9.23809 109.905 8.95238C109.238 8.66667 108.476 8.47619 107.524 8.47619C106.667 8.47619 105.81 8.66667 105.143 8.95238C104.476 9.23809 104 9.71429 103.524 10.2857C103.143 10.8571 102.762 11.5238 102.571 12.3809C102.381 13.1429 102.286 14.0952 102.286 15.0476C102.286 16 102.381 16.9524 102.571 17.7143C102.762 18.4762 103.048 19.2381 103.429 19.8095C103.81 20.381 104.381 20.8571 105.048 21.1429C105.905 21.5238 106.667 21.7143 107.524 21.7143ZM107.524 24.0952C106.19 24.0952 105.143 23.9048 104.095 23.4286C103.143 23.0476 102.286 22.3809 101.524 21.619C100.857 20.8571 100.286 19.9048 99.9047 18.7619C99.5238 17.619 99.3333 16.381 99.3333 15.0476C99.3333 13.7143 99.5238 12.381 99.9047 11.3333C100.286 10.1905 100.857 9.23809 101.619 8.47619C102.381 7.71428 103.143 7.04762 104.19 6.66666C105.143 6.28571 106.286 6 107.524 6C108.762 6 109.905 6.19047 110.952 6.66666C111.905 7.04762 112.762 7.71428 113.524 8.47619C114.19 9.23809 114.762 10.1905 115.143 11.2381C115.524 12.381 115.714 13.5238 115.714 14.9524C115.714 16.3809 115.524 17.619 115.143 18.7619C114.762 19.9048 114.19 20.8571 113.524 21.619C112.762 22.3809 112 23.0476 110.952 23.4286C110 23.9048 108.857 24.0952 107.524 24.0952Z" fill="white"/>
<path d="M118 6.47618H120.857V9.04761C121.714 7.90475 122.571 7.14285 123.619 6.57142C124.571 6.09523 125.619 5.80951 126.762 5.80951C128.667 5.80951 130.095 6.38094 130.952 7.42856C131.905 8.47618 132.286 9.99998 132.286 12.0952V23.4286H129.429V12.6667C129.429 11.0476 129.143 9.99999 128.571 9.33332C128 8.66666 127.143 8.38094 126 8.38094C125.333 8.38094 124.762 8.47618 124.095 8.66665C123.429 8.85713 122.857 9.23808 122.381 9.71427C121.905 10.1905 121.429 10.7619 121.143 11.2381C120.857 11.8095 120.762 12.4762 120.762 13.3333V23.4286H117.905L118 6.47618Z" fill="white"/>
<path d="M135.143 0H150.19V2.66667H138.095V10.0952H149.524V12.7619H138.095V20.8571H150.762L150.286 23.5238H135.143V0Z" fill="white"/>
<path d="M153.524 27.2381C154.19 27.4286 154.762 27.5238 155.333 27.5238C156 27.5238 156.571 27.3333 156.952 26.9524C157.333 26.5714 157.714 25.9048 158.095 24.9524L158.762 23.1429L151.619 6.4762H154.952L160.286 20L165.143 6.57143H168.286L160.952 25.2381C160.667 26 160.286 26.6667 160.095 27.2381C159.81 27.8095 159.429 28.381 159.143 28.7619C158.762 29.1429 158.381 29.5238 157.809 29.7143C157.333 29.9048 156.667 30 155.905 30C155.429 30 154.952 29.9048 154.476 29.9048C154.095 29.8095 153.619 29.7143 153.143 29.5238L153.524 27.2381Z" fill="white"/>
<path d="M170.095 6.47621H172.952V9.14287C173.619 8.19049 174.286 7.42859 175.143 6.9524C176 6.38097 176.857 6.19049 177.905 6.19049C178.476 6.19049 179.048 6.28573 179.429 6.28573L179.048 8.9524C178.857 8.85716 178.667 8.85716 178.381 8.85716C178.19 8.76192 177.905 8.76192 177.619 8.76192C177.143 8.76192 176.571 8.85716 176 9.04763C175.524 9.23811 174.952 9.52382 174.476 10C174 10.381 173.619 10.8572 173.333 11.4286C173.048 12 172.952 12.5714 172.952 13.3333V23.4286H170.095V6.47621Z" fill="white"/>
<path d="M192 13.619C192 12.8571 191.905 12.0952 191.714 11.4286C191.524 10.7619 191.238 10.1905 190.857 9.71428C190.476 9.23809 190 8.85714 189.429 8.57143C188.857 8.28571 188.095 8.19047 187.333 8.19047C185.81 8.19047 184.667 8.66666 183.81 9.52381C182.952 10.3809 182.476 11.8095 182.381 13.5238L192 13.619ZM194.571 18.7619C194.286 20.3809 193.619 21.7143 192.476 22.6667C191.333 23.619 189.619 24.0952 187.429 24.0952C184.857 24.0952 182.857 23.3333 181.524 21.7143C180.19 20.0952 179.524 18 179.524 15.1429C179.524 13.619 179.714 12.381 180.095 11.2381C180.476 10.0952 181.048 9.14286 181.714 8.38095C182.476 7.61905 183.238 7.04762 184.19 6.66666C185.143 6.28571 186.19 6 187.333 6C188.667 6 189.714 6.19047 190.667 6.66666C191.619 7.04762 192.381 7.71429 192.952 8.38095C193.524 9.14286 194 10 194.286 11.0476C194.571 12.0952 194.667 13.1429 194.667 14.3809V15.8095H182.19C182.19 16.6667 182.286 17.4286 182.571 18.1905C182.762 18.9524 183.143 19.5238 183.524 20.0952C183.905 20.6667 184.476 21.0476 185.048 21.3333C185.714 21.619 186.381 21.8095 187.238 21.8095C188.667 21.8095 189.714 21.5238 190.286 21.0476C190.952 20.4762 191.429 19.8095 191.619 18.8571H194.571V18.7619Z" fill="white"/>
<path d="M110.667 23.5238H104.381C104.667 23.619 105.048 23.7143 105.333 23.8095H109.714C110.095 23.8095 110.381 23.619 110.667 23.5238Z" fill="white"/>
<path d="M190.857 23.5238H184.19C184.476 23.619 184.857 23.7143 185.143 23.8095H189.81C190.19 23.8095 190.571 23.619 190.857 23.5238Z" fill="white"/>
</svg>
